999
dxflib 2.0.4.8
  0
SECTION
  2
HEADER
  9
$ACADVER
  1
AC1015
  9
$HANDSEED
  5
FFFF
  9
$DIMASZ
 40
2.5
  9
$EXTMIN
 10
0.0
 20
0.0
 30
0.0
  9
$DIMGAP
 40
0.625
  9
$INSBASE
 10
0.0
 20
0.0
 30
0.0
  9
$INSUNITS
 70
4
  9
$DIMEXO
 40
0.625
  9
$EXTMAX
 10
0.0
 20
0.0
 30
0.0
  9
$DIMTXT
 40
2.5
  9
$DIMSTYLE
  2
Standard
  9
$PLIMMIN
 10
0.0
 20
0.0
  9
$PLIMMAX
 10
210.0
 20
297.0
  9
$DIMEXE
 40
1.25
  0
ENDSEC
  0
SECTION
  2
TABLES
  0
TABLE
  2
VPORT
  5
8
100
AcDbSymbolTable
 70
1
  0
VPORT
  5
30
100
AcDbSymbolTableRecord
100
AcDbViewportTableRecord
  2
*Active
 70
0
 10
0.0
 20
0.0
 11
1.0
 21
1.0
 12
286.3055555555554861
 22
148.5
 13
0.0
 23
0.0
 14
10.0
 24
10.0
 15
10.0
 25
10.0
 16
0.0
 26
0.0
 36
1.0
 17
0.0
 27
0.0
 37
0.0
 40
297.0
 41
1.92798353909465
 42
50.0
 43
0.0
 44
0.0
 50
0.0
 51
0.0
 71
0
 72
100
 73
1
 74
3
 75
1
 76
1
 77
0
 78
0
281
0
 65
1
110
0.0
120
0.0
130
0.0
111
1.0
121
0.0
131
0.0
112
0.0
122
1.0
132
0.0
 79
0
146
0.0
  0
ENDTAB
  0
TABLE
  2
LTYPE
  5
5
100
AcDbSymbolTable
 70
21
  0
LTYPE
  5
14
100
AcDbSymbolTableRecord
100
AcDbLinetypeTableRecord
  2
ByBlock
 70
0
  3

 72
65
 73
0
 40
0.0
  0
LTYPE
  5
15
100
AcDbSymbolTableRecord
100
AcDbLinetypeTableRecord
  2
ByLayer
 70
0
  3

 72
65
 73
0
 40
0.0
  0
LTYPE
  5
16
100
AcDbSymbolTableRecord
100
AcDbLinetypeTableRecord
  2
CONTINUOUS
 70
0
  3
Solid line
 72
65
 73
0
 40
0.0
  0
LTYPE
  5
31
100
AcDbSymbolTableRecord
100
AcDbLinetypeTableRecord
  2
DOT
 70
0
  3
Dot . . . . . . . . . . . . . . . . . . . . . .
 72
65
 73
2
 40
6.3499999999999996
 49
0.0
 74
0
 49
-6.3499999999999996
 74
0
  0
LTYPE
  5
32
100
AcDbSymbolTableRecord
100
AcDbLinetypeTableRecord
  2
DOT2
 70
0
  3
Dot (.5x) .....................................
 72
65
 73
2
 40
3.1749999999999998
 49
0.0
 74
0
 49
-3.1749999999999998
 74
0
  0
LTYPE
  5
33
100
AcDbSymbolTableRecord
100
AcDbLinetypeTableRecord
  2
DOTX2
 70
0
  3
Dot (2x) .  .  .  .  .  .  .  .  .  .  .  .  .
 72
65
 73
2
 40
12.6999999999999993
 49
0.0
 74
0
 49
-12.6999999999999993
 74
0
  0
LTYPE
  5
34
100
AcDbSymbolTableRecord
100
AcDbLinetypeTableRecord
  2
DASHED
 70
0
  3
Dashed __ __ __ __ __ __ __ __ __ __ __ __ __ _
 72
65
 73
2
 40
19.0500000000000007
 49
12.6999999999999993
 74
0
 49
-6.3499999999999996
 74
0
  0
LTYPE
  5
35
100
AcDbSymbolTableRecord
100
AcDbLinetypeTableRecord
  2
DASHED2
 70
0
  3
Dashed (.5x) _ _ _ _ _ _ _ _ _ _ _ _ _ _ _ _ _
 72
65
 73
2
 40
9.5250000000000004
 49
6.3499999999999996
 74
0
 49
-3.1749999999999998
 74
0
  0
LTYPE
  5
36
100
AcDbSymbolTableRecord
100
AcDbLinetypeTableRecord
  2
DASHEDX2
 70
0
  3
Dashed (2x) ____  ____  ____  ____  ____  ___
 72
65
 73
2
 40
38.1000000000000014
 49
25.3999999999999986
 74
0
 49
-12.6999999999999993
 74
0
  0
LTYPE
  5
37
100
AcDbSymbolTableRecord
100
AcDbLinetypeTableRecord
  2
DASHDOT
 70
0
  3
Dash dot __ . __ . __ . __ . __ . __ . __ . __
 72
65
 73
4
 40
25.3999999999999986
 49
12.6999999999999993
 74
0
 49
-6.3499999999999996
 74
0
 49
0.0
 74
0
 49
-6.3499999999999996
 74
0
  0
LTYPE
  5
38
100
AcDbSymbolTableRecord
100
AcDbLinetypeTableRecord
  2
DASHDOT2
 70
0
  3
Dash dot (.5x) _._._._._._._._._._._._._._._.
 72
65
 73
4
 40
12.6999999999999993
 49
6.3499999999999996
 74
0
 49
-3.1749999999999998
 74
0
 49
0.0
 74
0
 49
-3.1749999999999998
 74
0
  0
LTYPE
  5
39
100
AcDbSymbolTableRecord
100
AcDbLinetypeTableRecord
  2
DASHDOTX2
 70
0
  3
Dash dot (2x) ____  .  ____  .  ____  .  ___
 72
65
 73
4
 40
50.7999999999999972
 49
25.3999999999999986
 74
0
 49
-12.6999999999999993
 74
0
 49
0.0
 74
0
 49
-12.6999999999999993
 74
0
  0
LTYPE
  5
3A
100
AcDbSymbolTableRecord
100
AcDbLinetypeTableRecord
  2
DIVIDE
 70
0
  3
Divide ____ . . ____ . . ____ . . ____ . . ____
 72
65
 73
6
 40
31.75
 49
12.6999999999999993
 74
0
 49
-6.3499999999999996
 74
0
 49
0.0
 74
0
 49
-6.3499999999999996
 74
0
 49
0.0
 74
0
 49
-6.3499999999999996
 74
0
  0
LTYPE
  5
3B
100
AcDbSymbolTableRecord
100
AcDbLinetypeTableRecord
  2
DIVIDE2
 70
0
  3
Divide (.5x) __..__..__..__..__..__..__..__.._
 72
65
 73
6
 40
15.875
 49
6.3499999999999996
 74
0
 49
-3.1749999999999998
 74
0
 49
0.0
 74
0
 49
-3.1749999999999998
 74
0
 49
0.0
 74
0
 49
-3.1749999999999998
 74
0
  0
LTYPE
  5
3C
100
AcDbSymbolTableRecord
100
AcDbLinetypeTableRecord
  2
DIVIDEX2
 70
0
  3
Divide (2x) ________  .  .  ________  .  .  _
 72
65
 73
6
 40
63.5
 49
25.3999999999999986
 74
0
 49
-12.6999999999999993
 74
0
 49
0.0
 74
0
 49
-12.6999999999999993
 74
0
 49
0.0
 74
0
 49
-12.6999999999999993
 74
0
  0
LTYPE
  5
3D
100
AcDbSymbolTableRecord
100
AcDbLinetypeTableRecord
  2
CENTER
 70
0
  3
Center ____ _ ____ _ ____ _ ____ _ ____ _ ____
 72
65
 73
4
 40
50.7999999999999972
 49
31.75
 74
0
 49
-6.3499999999999996
 74
0
 49
6.3499999999999996
 74
0
 49
-6.3499999999999996
 74
0
  0
LTYPE
  5
3E
100
AcDbSymbolTableRecord
100
AcDbLinetypeTableRecord
  2
CENTER2
 70
0
  3
Center (.5x) ___ _ ___ _ ___ _ ___ _ ___ _ ___
 72
65
 73
4
 40
28.5749999999999993
 49
19.0500000000000007
 74
0
 49
-3.1749999999999998
 74
0
 49
3.1749999999999998
 74
0
 49
-3.1749999999999998
 74
0
  0
LTYPE
  5
3F
100
AcDbSymbolTableRecord
100
AcDbLinetypeTableRecord
  2
CENTERX2
 70
0
  3
Center (2x) ________  __  ________  __  _____
 72
65
 73
4
 40
101.5999999999999943
 49
63.5
 74
0
 49
-12.6999999999999993
 74
0
 49
12.6999999999999993
 74
0
 49
-12.6999999999999993
 74
0
  0
LTYPE
  5
40
100
AcDbSymbolTableRecord
100
AcDbLinetypeTableRecord
  2
BORDER
 70
0
  3
Border __ __ . __ __ . __ __ . __ __ . __ __ .
 72
65
 73
6
 40
44.4500000000000028
 49
12.6999999999999993
 74
0
 49
-6.3499999999999996
 74
0
 49
12.6999999999999993
 74
0
 49
-6.3499999999999996
 74
0
 49
0.0
 74
0
 49
-6.3499999999999996
 74
0
  0
LTYPE
  5
41
100
AcDbSymbolTableRecord
100
AcDbLinetypeTableRecord
  2
BORDER2
 70
0
  3
Border (.5x) __.__.__.__.__.__.__.__.__.__.__.
 72
65
 73
6
 40
22.2250000000000014
 49
6.3499999999999996
 74
0
 49
-3.1749999999999998
 74
0
 49
6.3499999999999996
 74
0
 49
-3.1749999999999998
 74
0
 49
0.0
 74
0
 49
-3.1749999999999998
 74
0
  0
LTYPE
  5
42
100
AcDbSymbolTableRecord
100
AcDbLinetypeTableRecord
  2
BORDERX2
 70
0
  3
Border (2x) ____  ____  .  ____  ____  .  ___
 72
65
 73
6
 40
88.9000000000000057
 49
25.3999999999999986
 74
0
 49
-12.6999999999999993
 74
0
 49
25.3999999999999986
 74
0
 49
-12.6999999999999993
 74
0
 49
0.0
 74
0
 49
-12.6999999999999993
 74
0
  0
ENDTAB
  0
TABLE
  2
LAYER
  5
2
100
AcDbSymbolTable
 70
5
  0
LAYER
  5
10
100
AcDbSymbolTableRecord
100
AcDbLayerTableRecord
  2
0
 70
0
 62
7
  6
CONTINUOUS
370
0
390
F
  0
LAYER
  5
43
100
AcDbSymbolTableRecord
100
AcDbLayerTableRecord
  2
PYDXF
 70
0
 62
7
  6
CONTINUOUS
390
F
  0
LAYER
  5
44
100
AcDbSymbolTableRecord
100
AcDbLayerTableRecord
  2
cuts
 70
0
 62
7
  6
ByLayer
390
F
  0
LAYER
  5
45
100
AcDbSymbolTableRecord
100
AcDbLayerTableRecord
  2
patterns
 70
0
 62
3
  6
CONTINUOUS
370
-3
390
F
  0
LAYER
  5
46
100
AcDbSymbolTableRecord
100
AcDbLayerTableRecord
  2
etch
 70
0
 62
5
  6
ByLayer
390
F
  0
ENDTAB
  0
TABLE
  2
STYLE
  5
3
100
AcDbSymbolTable
 70
1
  0
STYLE
  5
11
100
AcDbSymbolTableRecord
100
AcDbTextStyleTableRecord
  2
Standard
 70
0
 40
0.0
 41
0.75
 50
0.0
 71
0
 42
2.5
  3
txt
  4

  0
ENDTAB
  0
TABLE
  2
VIEW
  5
6
100
AcDbSymbolTable
 70
0
  0
ENDTAB
  0
TABLE
  2
UCS
  5
7
100
AcDbSymbolTable
 70
0
  0
ENDTAB
  0
TABLE
  2
APPID
  5
9
100
AcDbSymbolTable
 70
1
  0
APPID
  5
12
100
AcDbSymbolTableRecord
100
AcDbRegAppTableRecord
  2
ACAD
 70
0
  0
ENDTAB
  0
TABLE
  2
DIMSTYLE
  5
A
100
AcDbSymbolTable
 70
1
100
AcDbDimStyleTable
 71
0
  0
DIMSTYLE
105
27
100
AcDbSymbolTableRecord
100
AcDbDimStyleTableRecord
  2
Standard
 41
2.5
 42
0.625
 43
3.75
 44
1.25
 70
0
 73
0
 74
0
 77
1
 78
8
140
2.5
141
2.5
143
0.03937007874016
147
0.625
171
3
172
1
271
2
272
2
274
3
278
44
283
0
284
8
340
11
  0
ENDTAB
  0
TABLE
  2
BLOCK_RECORD
  5
1
100
AcDbSymbolTable
 70
1
  0
BLOCK_RECORD
  5
1F
100
AcDbSymbolTableRecord
100
AcDbBlockTableRecord
  2
*Model_Space
340
22
  0
BLOCK_RECORD
  5
1B
100
AcDbSymbolTableRecord
100
AcDbBlockTableRecord
  2
*Paper_Space
340
1E
  0
BLOCK_RECORD
  5
23
100
AcDbSymbolTableRecord
100
AcDbBlockTableRecord
  2
*Paper_Space0
340
26
  0
ENDTAB
  0
ENDSEC
  0
SECTION
  2
BLOCKS
  0
BLOCK
  5
20
100
AcDbEntity
  8
0
100
AcDbBlockBegin
  2
*Model_Space
 70
0
 10
0.0
 20
0.0
 30
0.0
  3
*Model_Space
  1

  0
ENDBLK
  5
21
100
AcDbEntity
  8
0
100
AcDbBlockEnd
  0
BLOCK
  5
1C
100
AcDbEntity
 67
1
  8
0
100
AcDbBlockBegin
  2
*Paper_Space
 70
0
 10
0.0
 20
0.0
 30
0.0
  3
*Paper_Space
  1

  0
ENDBLK
  5
1D
100
AcDbEntity
 67
1
  8
0
100
AcDbBlockEnd
  0
BLOCK
  5
24
100
AcDbEntity
  8
0
100
AcDbBlockBegin
  2
*Paper_Space0
 70
0
 10
0.0
 20
0.0
 30
0.0
  3
*Paper_Space0
  1

  0
ENDBLK
  5
25
100
AcDbEntity
  8
0
100
AcDbBlockEnd
  0
ENDSEC
  0
SECTION
  2
ENTITIES
  0
CIRCLE
  5
47
100
AcDbEntity
100
AcDbCircle
  8
0
 62
0
370
-1
  6
ByLayer
 10
210.0
 20
60.4600000000000009
 30
0.0
 40
2.0
  0
ARC
  5
48
100
AcDbEntity
  8
0
 62
0
370
-1
  6
ByLayer
100
AcDbCircle
 10
210.0
 20
59.759999999999998
 30
0.0
 40
10.0
100
AcDbArc
 50
0.0
 51
180.0
  0
LWPOLYLINE
  5
49
  8
0
 62
0
370
-1
  6
ByLayer
100
AcDbEntity
100
AcDbPolyline
 90
4
 70
0
 10
200.0
 20
59.759999999999998
 10
200.0
 20
40.0
 10
220.0
 20
40.0
 10
220.0
 20
59.759999999999998
  0
CIRCLE
  5
4A
100
AcDbEntity
100
AcDbCircle
  8
0
 62
0
370
-1
  6
ByLayer
 10
235.0
 20
60.4600000000000009
 30
0.0
 40
2.0
  0
ARC
  5
4B
100
AcDbEntity
  8
0
 62
0
370
-1
  6
ByLayer
100
AcDbCircle
 10
235.0
 20
59.759999999999998
 30
0.0
 40
10.0
100
AcDbArc
 50
0.0
 51
180.0
  0
LWPOLYLINE
  5
4C
  8
0
 62
0
370
-1
  6
ByLayer
100
AcDbEntity
100
AcDbPolyline
 90
4
 70
0
 10
225.0
 20
59.759999999999998
 10
225.0
 20
40.0
 10
245.0
 20
40.0
 10
245.0
 20
59.759999999999998
  0
LWPOLYLINE
  5
4D
  8
0
 62
0
370
-1
  6
ByLayer
100
AcDbEntity
100
AcDbPolyline
 90
12
 70
1
 10
60.0
 20
40.0
 10
90.0
 20
40.0
 10
90.0
 20
44.0200000000000031
 10
80.0
 20
44.0200000000000031
 10
80.0
 20
66.0400000000000063
 10
70.0
 20
66.0400000000000063
 10
70.0
 20
62.0200000000000031
 10
73.0
 20
62.0200000000000031
 10
73.0
 20
58.6000000000000014
 10
70.0
 20
58.6000000000000014
 10
70.0
 20
44.0200000000000031
 10
60.0
 20
44.0200000000000031
  0
LWPOLYLINE
  5
4E
  8
0
 62
0
370
-1
  6
ByLayer
100
AcDbEntity
100
AcDbPolyline
 90
4
 70
1
 10
153.4399999999999977
 20
340.0
 10
156.5600000000000023
 20
340.0
 10
156.5600000000000023
 20
370.0
 10
153.4399999999999977
 20
370.0
  0
LWPOLYLINE
  5
4F
  8
0
 62
0
370
-1
  6
ByLayer
100
AcDbEntity
100
AcDbPolyline
 90
4
 70
1
 10
153.4399999999999977
 20
50.0
 10
156.5600000000000023
 20
50.0
 10
156.5600000000000023
 20
60.0
 10
153.4399999999999977
 20
60.0
  0
LWPOLYLINE
  5
50
  8
0
 62
0
370
-1
  6
ByLayer
100
AcDbEntity
100
AcDbPolyline
 90
4
 70
1
 10
140.0
 20
10.0
 10
120.0
 20
10.0
 10
120.0
 20
13.7200000000000006
 10
140.0
 20
13.7200000000000006
  0
LWPOLYLINE
  5
51
  8
0
 62
0
370
-1
  6
ByLayer
100
AcDbEntity
100
AcDbPolyline
 90
4
 70
1
 10
140.0
 20
90.0
 10
120.0
 20
90.0
 10
120.0
 20
86.2800000000000011
 10
140.0
 20
86.2800000000000011
  0
LWPOLYLINE
  5
52
  8
0
 62
0
370
-1
  6
ByLayer
100
AcDbEntity
100
AcDbPolyline
 90
4
 70
1
 10
140.0
 20
110.0
 10
120.0
 20
110.0
 10
120.0
 20
113.7199999999999989
 10
140.0
 20
113.7199999999999989
  0
LWPOLYLINE
  5
53
  8
0
 62
0
370
-1
  6
ByLayer
100
AcDbEntity
100
AcDbPolyline
 90
4
 70
1
 10
140.0
 20
190.0
 10
120.0
 20
190.0
 10
120.0
 20
186.2800000000000011
 10
140.0
 20
186.2800000000000011
  0
LWPOLYLINE
  5
54
  8
0
 62
0
370
-1
  6
ByLayer
100
AcDbEntity
100
AcDbPolyline
 90
4
 70
1
 10
140.0
 20
210.0
 10
120.0
 20
210.0
 10
120.0
 20
213.7199999999999989
 10
140.0
 20
213.7199999999999989
  0
LWPOLYLINE
  5
55
  8
0
 62
0
370
-1
  6
ByLayer
100
AcDbEntity
100
AcDbPolyline
 90
4
 70
1
 10
140.0
 20
290.0
 10
120.0
 20
290.0
 10
120.0
 20
286.2799999999999727
 10
140.0
 20
286.2799999999999727
  0
LWPOLYLINE
  5
56
  8
0
 62
0
370
-1
  6
ByLayer
100
AcDbEntity
100
AcDbPolyline
 90
4
 70
1
 10
140.0
 20
310.3000000000000114
 10
120.0
 20
310.3000000000000114
 10
120.0
 20
313.4200000000000159
 10
140.0
 20
313.4200000000000159
  0
LWPOLYLINE
  5
57
  8
0
 62
0
370
-1
  6
ByLayer
100
AcDbEntity
100
AcDbPolyline
 90
4
 70
1
 10
140.0
 20
389.6999999999999886
 10
120.0
 20
389.6999999999999886
 10
120.0
 20
386.5799999999999841
 10
140.0
 20
386.5799999999999841
  0
LWPOLYLINE
  5
58
  8
0
 62
0
370
-1
  6
ByLayer
100
AcDbEntity
100
AcDbPolyline
 90
4
 70
1
 10
280.0
 20
10.0
 10
260.0
 20
10.0
 10
260.0
 20
13.7200000000000006
 10
280.0
 20
13.7200000000000006
  0
LWPOLYLINE
  5
59
  8
0
 62
0
370
-1
  6
ByLayer
100
AcDbEntity
100
AcDbPolyline
 90
4
 70
1
 10
280.0
 20
90.0
 10
260.0
 20
90.0
 10
260.0
 20
86.2800000000000011
 10
280.0
 20
86.2800000000000011
  0
LWPOLYLINE
  5
5A
  8
0
 62
0
370
-1
  6
ByLayer
100
AcDbEntity
100
AcDbPolyline
 90
4
 70
1
 10
280.0
 20
110.0
 10
260.0
 20
110.0
 10
260.0
 20
113.7199999999999989
 10
280.0
 20
113.7199999999999989
  0
LWPOLYLINE
  5
5B
  8
0
 62
0
370
-1
  6
ByLayer
100
AcDbEntity
100
AcDbPolyline
 90
4
 70
1
 10
280.0
 20
190.0
 10
260.0
 20
190.0
 10
260.0
 20
186.2800000000000011
 10
280.0
 20
186.2800000000000011
  0
LWPOLYLINE
  5
5C
  8
0
 62
0
370
-1
  6
ByLayer
100
AcDbEntity
100
AcDbPolyline
 90
4
 70
1
 10
280.0
 20
210.0
 10
260.0
 20
210.0
 10
260.0
 20
213.7199999999999989
 10
280.0
 20
213.7199999999999989
  0
LWPOLYLINE
  5
5D
  8
0
 62
0
370
-1
  6
ByLayer
100
AcDbEntity
100
AcDbPolyline
 90
4
 70
1
 10
280.0
 20
290.0
 10
260.0
 20
290.0
 10
260.0
 20
286.2799999999999727
 10
280.0
 20
286.2799999999999727
  0
LWPOLYLINE
  5
5E
  8
0
 62
0
370
-1
  6
ByLayer
100
AcDbEntity
100
AcDbPolyline
 90
4
 70
1
 10
280.0
 20
310.3000000000000114
 10
260.0
 20
310.3000000000000114
 10
260.0
 20
313.4200000000000159
 10
280.0
 20
313.4200000000000159
  0
LWPOLYLINE
  5
5F
  8
0
 62
0
370
-1
  6
ByLayer
100
AcDbEntity
100
AcDbPolyline
 90
4
 70
1
 10
280.0
 20
389.6999999999999886
 10
260.0
 20
389.6999999999999886
 10
260.0
 20
386.5799999999999841
 10
280.0
 20
386.5799999999999841
  0
LINE
  5
60
100
AcDbEntity
100
AcDbLine
  8
0
 62
256
370
-1
  6
ByLayer
 10
9.9999939999999992
 20
125.0
 30
0.0
 11
29.9999940000000009
 21
125.0
 31
0.0
  0
LINE
  5
61
100
AcDbEntity
100
AcDbLine
  8
0
 62
256
370
-1
  6
ByLayer
 10
29.9999940000000009
 20
135.0
 30
0.0
 11
34.9999919999999989
 21
135.0
 31
0.0
  0
LINE
  5
62
100
AcDbEntity
100
AcDbLine
  8
0
 62
256
370
-1
  6
ByLayer
 10
14.9999920000000007
 20
165.0
 30
0.0
 11
29.9999919999999989
 21
165.0
 31
0.0
  0
LINE
  5
63
100
AcDbEntity
100
AcDbLine
  8
0
 62
256
370
-1
  6
ByLayer
 10
14.9999920000000007
 20
175.0
 30
0.0
 11
19.9999919999999989
 21
175.0
 31
0.0
  0
LINE
  5
64
100
AcDbEntity
100
AcDbLine
  8
0
 62
256
370
-1
  6
ByLayer
 10
24.9999919999999989
 20
185.0
 30
0.0
 11
29.9999919999999989
 21
185.0
 31
0.0
  0
LINE
  5
65
100
AcDbEntity
100
AcDbLine
  8
0
 62
256
370
-1
  6
ByLayer
 10
9.9999939999999992
 20
130.0
 30
0.0
 11
24.9999940000000009
 21
130.0
 31
0.0
  0
LINE
  5
66
100
AcDbEntity
100
AcDbLine
  8
0
 62
256
370
-1
  6
ByLayer
 10
24.9999919999999989
 20
140.0
 30
0.0
 11
29.9999940000000009
 21
140.0
 31
0.0
  0
LINE
  5
67
100
AcDbEntity
100
AcDbLine
  8
0
 62
256
370
-1
  6
ByLayer
 10
14.9999920000000007
 20
170.0
 30
0.0
 11
19.9999919999999989
 21
170.0
 31
0.0
  0
LINE
  5
68
100
AcDbEntity
100
AcDbLine
  8
0
 62
256
370
-1
  6
ByLayer
 10
24.9999919999999989
 20
170.0
 30
0.0
 11
34.9999919999999989
 21
170.0
 31
0.0
  0
LINE
  5
69
100
AcDbEntity
100
AcDbLine
  8
0
 62
256
370
-1
  6
ByLayer
 10
14.9999920000000007
 20
180.0
 30
0.0
 11
19.9999919999999989
 21
180.0
 31
0.0
  0
LINE
  5
6A
100
AcDbEntity
100
AcDbLine
  8
0
 62
256
370
-1
  6
ByLayer
 10
19.9999919999999989
 20
190.0
 30
0.0
 11
29.9999919999999989
 21
190.0
 31
0.0
  0
LINE
  5
6B
100
AcDbEntity
100
AcDbLine
  8
0
 62
256
370
-1
  6
ByLayer
 10
9.9999939999999992
 20
125.0
 30
0.0
 11
9.9999939999999992
 21
130.0
 31
0.0
  0
LINE
  5
6C
100
AcDbEntity
100
AcDbLine
  8
0
 62
256
370
-1
  6
ByLayer
 10
14.9999920000000007
 20
165.0
 30
0.0
 11
14.9999920000000007
 21
170.0
 31
0.0
  0
LINE
  5
6D
100
AcDbEntity
100
AcDbLine
  8
0
 62
256
370
-1
  6
ByLayer
 10
14.9999920000000007
 20
175.0
 30
0.0
 11
14.9999920000000007
 21
180.0
 31
0.0
  0
LINE
  5
6E
100
AcDbEntity
100
AcDbLine
  8
0
 62
256
370
-1
  6
ByLayer
 10
19.9999919999999989
 20
170.0
 30
0.0
 11
19.9999919999999989
 21
175.0
 31
0.0
  0
LINE
  5
6F
100
AcDbEntity
100
AcDbLine
  8
0
 62
256
370
-1
  6
ByLayer
 10
19.9999919999999989
 20
180.0
 30
0.0
 11
19.9999919999999989
 21
190.0
 31
0.0
  0
LINE
  5
70
100
AcDbEntity
100
AcDbLine
  8
0
 62
256
370
-1
  6
ByLayer
 10
24.9999940000000009
 20
130.0
 30
0.0
 11
24.9999919999999989
 21
140.0
 31
0.0
  0
LINE
  5
71
100
AcDbEntity
100
AcDbLine
  8
0
 62
256
370
-1
  6
ByLayer
 10
29.9999940000000009
 20
140.0
 30
0.0
 11
29.9999919999999989
 21
165.0
 31
0.0
  0
LINE
  5
72
100
AcDbEntity
100
AcDbLine
  8
0
 62
256
370
-1
  6
ByLayer
 10
24.9999919999999989
 20
170.0
 30
0.0
 11
24.9999919999999989
 21
185.0
 31
0.0
  0
LINE
  5
73
100
AcDbEntity
100
AcDbLine
  8
0
 62
256
370
-1
  6
ByLayer
 10
29.9999940000000009
 20
125.0
 30
0.0
 11
29.9999940000000009
 21
135.0
 31
0.0
  0
LINE
  5
74
100
AcDbEntity
100
AcDbLine
  8
0
 62
256
370
-1
  6
ByLayer
 10
29.9999919999999989
 20
185.0
 30
0.0
 11
29.9999919999999989
 21
190.0
 31
0.0
  0
LINE
  5
75
100
AcDbEntity
100
AcDbLine
  8
0
 62
256
370
-1
  6
ByLayer
 10
34.9999919999999989
 20
135.0
 30
0.0
 11
34.9999919999999989
 21
170.0
 31
0.0
  0
LINE
  5
76
100
AcDbEntity
100
AcDbLine
  8
0
 62
3
370
-1
  6
ByLayer
 10
150.0
 20
225.0
 30
0.0
 11
170.0
 21
225.0
 31
0.0
  0
LINE
  5
77
100
AcDbEntity
100
AcDbLine
  8
0
 62
3
370
-1
  6
ByLayer
 10
170.0
 20
235.0
 30
0.0
 11
175.0
 21
235.0
 31
0.0
  0
LINE
  5
78
100
AcDbEntity
100
AcDbLine
  8
0
 62
3
370
-1
  6
ByLayer
 10
155.0
 20
265.0
 30
0.0
 11
170.0
 21
265.0
 31
0.0
  0
LINE
  5
79
100
AcDbEntity
100
AcDbLine
  8
0
 62
3
370
-1
  6
ByLayer
 10
155.0
 20
275.0
 30
0.0
 11
160.0
 21
275.0
 31
0.0
  0
LINE
  5
7A
100
AcDbEntity
100
AcDbLine
  8
0
 62
3
370
-1
  6
ByLayer
 10
165.0
 20
285.0
 30
0.0
 11
170.0
 21
285.0
 31
0.0
  0
LINE
  5
7B
100
AcDbEntity
100
AcDbLine
  8
0
 62
3
370
-1
  6
ByLayer
 10
150.0
 20
230.0
 30
0.0
 11
165.0
 21
230.0
 31
0.0
  0
LINE
  5
7C
100
AcDbEntity
100
AcDbLine
  8
0
 62
3
370
-1
  6
ByLayer
 10
165.0
 20
240.0
 30
0.0
 11
170.0
 21
240.0
 31
0.0
  0
LINE
  5
7D
100
AcDbEntity
100
AcDbLine
  8
0
 62
3
370
-1
  6
ByLayer
 10
155.0
 20
270.0
 30
0.0
 11
160.0
 21
270.0
 31
0.0
  0
LINE
  5
7E
100
AcDbEntity
100
AcDbLine
  8
0
 62
3
370
-1
  6
ByLayer
 10
165.0
 20
270.0
 30
0.0
 11
175.0
 21
270.0
 31
0.0
  0
LINE
  5
7F
100
AcDbEntity
100
AcDbLine
  8
0
 62
3
370
-1
  6
ByLayer
 10
155.0
 20
280.0
 30
0.0
 11
160.0
 21
280.0
 31
0.0
  0
LINE
  5
80
100
AcDbEntity
100
AcDbLine
  8
0
 62
3
370
-1
  6
ByLayer
 10
160.0
 20
290.0
 30
0.0
 11
170.0
 21
290.0
 31
0.0
  0
LINE
  5
81
100
AcDbEntity
100
AcDbLine
  8
0
 62
3
370
-1
  6
ByLayer
 10
150.0
 20
225.0
 30
0.0
 11
150.0
 21
230.0
 31
0.0
  0
LINE
  5
82
100
AcDbEntity
100
AcDbLine
  8
0
 62
3
370
-1
  6
ByLayer
 10
155.0
 20
265.0
 30
0.0
 11
155.0
 21
270.0
 31
0.0
  0
LINE
  5
83
100
AcDbEntity
100
AcDbLine
  8
0
 62
3
370
-1
  6
ByLayer
 10
155.0
 20
275.0
 30
0.0
 11
155.0
 21
280.0
 31
0.0
  0
LINE
  5
84
100
AcDbEntity
100
AcDbLine
  8
0
 62
3
370
-1
  6
ByLayer
 10
160.0
 20
270.0
 30
0.0
 11
160.0
 21
275.0
 31
0.0
  0
LINE
  5
85
100
AcDbEntity
100
AcDbLine
  8
0
 62
3
370
-1
  6
ByLayer
 10
160.0
 20
280.0
 30
0.0
 11
160.0
 21
290.0
 31
0.0
  0
LINE
  5
86
100
AcDbEntity
100
AcDbLine
  8
0
 62
3
370
-1
  6
ByLayer
 10
165.0
 20
230.0
 30
0.0
 11
165.0
 21
240.0
 31
0.0
  0
LINE
  5
87
100
AcDbEntity
100
AcDbLine
  8
0
 62
3
370
-1
  6
ByLayer
 10
170.0
 20
240.0
 30
0.0
 11
170.0
 21
265.0
 31
0.0
  0
LINE
  5
88
100
AcDbEntity
100
AcDbLine
  8
0
 62
3
370
-1
  6
ByLayer
 10
165.0
 20
270.0
 30
0.0
 11
165.0
 21
285.0
 31
0.0
  0
LINE
  5
89
100
AcDbEntity
100
AcDbLine
  8
0
 62
3
370
-1
  6
ByLayer
 10
170.0
 20
225.0
 30
0.0
 11
170.0
 21
235.0
 31
0.0
  0
LINE
  5
8A
100
AcDbEntity
100
AcDbLine
  8
0
 62
3
370
-1
  6
ByLayer
 10
170.0
 20
285.0
 30
0.0
 11
170.0
 21
290.0
 31
0.0
  0
LINE
  5
8B
100
AcDbEntity
100
AcDbLine
  8
0
 62
3
370
-1
  6
ByLayer
 10
175.0
 20
235.0
 30
0.0
 11
175.0
 21
270.0
 31
0.0
  0
LINE
  5
8C
100
AcDbEntity
100
AcDbLine
  8
cuts
 62
256
370
-1
  6
ByLayer
 10
50.0
 20
190.0
 30
0.0
 11
50.0
 21
110.0
 31
0.0
  0
LINE
  5
8D
100
AcDbEntity
100
AcDbLine
  8
cuts
 62
256
370
-1
  6
ByLayer
 10
50.0
 20
90.0
 30
0.0
 11
50.0
 21
10.0
 31
0.0
  0
LINE
  5
8E
100
AcDbEntity
100
AcDbLine
  8
cuts
 62
256
370
-1
  6
ByLayer
 10
25.0
 20
100.0
 30
0.0
 11
30.0
 21
95.0
 31
0.0
  0
LINE
  5
8F
100
AcDbEntity
100
AcDbLine
  8
cuts
 62
256
370
-1
  6
ByLayer
 10
40.0
 20
95.0
 30
0.0
 11
45.0
 21
100.0
 31
0.0
  0
LINE
  5
90
100
AcDbEntity
100
AcDbLine
  8
cuts
 62
256
370
-1
  6
ByLayer
 10
30.0
 20
95.0
 30
0.0
 11
40.0
 21
95.0
 31
0.0
  0
LINE
  5
91
100
AcDbEntity
100
AcDbLine
  8
cuts
 62
256
370
-1
  6
ByLayer
 10
50.0
 20
290.0
 30
0.0
 11
50.0
 21
210.0
 31
0.0
  0
LINE
  5
92
100
AcDbEntity
100
AcDbLine
  8
cuts
 62
256
370
-1
  6
ByLayer
 10
12.0
 20
60.0
 30
0.0
 11
12.0
 21
50.0
 31
0.0
  0
LINE
  5
93
100
AcDbEntity
100
AcDbLine
  8
cuts
 62
256
370
-1
  6
ByLayer
 10
18.0
 20
50.0
 30
0.0
 11
18.0
 21
60.0
 31
0.0
  0
LINE
  5
94
100
AcDbEntity
100
AcDbLine
  8
cuts
 62
256
370
-1
  6
ByLayer
 10
12.0
 20
50.0
 30
0.0
 11
18.0
 21
50.0
 31
0.0
  0
LINE
  5
95
100
AcDbEntity
100
AcDbLine
  8
cuts
 62
256
370
-1
  6
ByLayer
 10
18.0
 20
60.0
 30
0.0
 11
12.0
 21
60.0
 31
0.0
  0
LINE
  5
96
100
AcDbEntity
100
AcDbLine
  8
cuts
 62
256
370
-1
  6
ByLayer
 10
0.0
 20
395.0
 30
0.0
 11
5.0
 21
400.0
 31
0.0
  0
LINE
  5
97
100
AcDbEntity
100
AcDbLine
  8
cuts
 62
256
370
-1
  6
ByLayer
 10
0.0
 20
395.0
 30
0.0
 11
0.0
 21
305.0
 31
0.0
  0
LINE
  5
98
100
AcDbEntity
100
AcDbLine
  8
cuts
 62
256
370
-1
  6
ByLayer
 10
0.0
 20
305.0
 30
0.0
 11
5.0
 21
300.0
 31
0.0
  0
LINE
  5
99
100
AcDbEntity
100
AcDbLine
  8
cuts
 62
256
370
-1
  6
ByLayer
 10
5.0
 20
200.0
 30
0.0
 11
0.0
 21
195.0
 31
0.0
  0
LINE
  5
9A
100
AcDbEntity
100
AcDbLine
  8
cuts
 62
256
370
-1
  6
ByLayer
 10
5.0
 20
0.0
 30
0.0
 11
0.0
 21
5.0
 31
0.0
  0
LINE
  5
9B
100
AcDbEntity
100
AcDbLine
  8
cuts
 62
256
370
-1
  6
ByLayer
 10
0.0
 20
95.0
 30
0.0
 11
0.0
 21
5.0
 31
0.0
  0
LINE
  5
9C
100
AcDbEntity
100
AcDbLine
  8
cuts
 62
256
370
-1
  6
ByLayer
 10
0.0
 20
95.0
 30
0.0
 11
5.0
 21
100.0
 31
0.0
  0
LINE
  5
9D
100
AcDbEntity
100
AcDbLine
  8
cuts
 62
256
370
-1
  6
ByLayer
 10
0.0
 20
205.0
 30
0.0
 11
5.0
 21
200.0
 31
0.0
  0
LINE
  5
9E
100
AcDbEntity
100
AcDbLine
  8
cuts
 62
256
370
-1
  6
ByLayer
 10
0.0
 20
295.0
 30
0.0
 11
5.0
 21
300.0
 31
0.0
  0
LINE
  5
9F
100
AcDbEntity
100
AcDbLine
  8
cuts
 62
256
370
-1
  6
ByLayer
 10
0.0
 20
195.0
 30
0.0
 11
0.0
 21
105.0
 31
0.0
  0
LINE
  5
A0
100
AcDbEntity
100
AcDbLine
  8
cuts
 62
256
370
-1
  6
ByLayer
 10
0.0
 20
105.0
 30
0.0
 11
5.0
 21
100.0
 31
0.0
  0
LINE
  5
A1
100
AcDbEntity
100
AcDbLine
  8
cuts
 62
256
370
-1
  6
ByLayer
 10
190.0
 20
190.0
 30
0.0
 11
190.0
 21
110.0
 31
0.0
  0
LINE
  5
A2
100
AcDbEntity
100
AcDbLine
  8
cuts
 62
256
370
-1
  6
ByLayer
 10
165.0
 20
200.0
 30
0.0
 11
170.0
 21
195.0
 31
0.0
  0
LINE
  5
A3
100
AcDbEntity
100
AcDbLine
  8
cuts
 62
256
370
-1
  6
ByLayer
 10
180.0
 20
195.0
 30
0.0
 11
185.0
 21
200.0
 31
0.0
  0
LINE
  5
A4
100
AcDbEntity
100
AcDbLine
  8
cuts
 62
256
370
-1
  6
ByLayer
 10
170.0
 20
195.0
 30
0.0
 11
180.0
 21
195.0
 31
0.0
  0
LINE
  5
A5
100
AcDbEntity
100
AcDbLine
  8
cuts
 62
256
370
-1
  6
ByLayer
 10
110.0
 20
110.0
 30
0.0
 11
110.0
 21
120.0
 31
0.0
  0
LINE
  5
A6
100
AcDbEntity
100
AcDbLine
  8
cuts
 62
256
370
-1
  6
ByLayer
 10
110.0
 20
180.0
 30
0.0
 11
110.0
 21
190.0
 31
0.0
  0
LINE
  5
A7
100
AcDbEntity
100
AcDbLine
  8
cuts
 62
256
370
-1
  6
ByLayer
 10
50.0
 20
110.0
 30
0.0
 11
110.0
 21
110.0
 31
0.0
  0
LINE
  5
A8
100
AcDbEntity
100
AcDbLine
  8
cuts
 62
256
370
-1
  6
ByLayer
 10
110.0
 20
190.0
 30
0.0
 11
50.0
 21
190.0
 31
0.0
  0
LINE
  5
A9
100
AcDbEntity
100
AcDbLine
  8
cuts
 62
256
370
-1
  6
ByLayer
 10
190.0
 20
90.0
 30
0.0
 11
190.0
 21
10.0
 31
0.0
  0
LINE
  5
AA
100
AcDbEntity
100
AcDbLine
  8
cuts
 62
256
370
-1
  6
ByLayer
 10
110.0
 20
10.0
 30
0.0
 11
110.0
 21
20.0
 31
0.0
  0
LINE
  5
AB
100
AcDbEntity
100
AcDbLine
  8
cuts
 62
256
370
-1
  6
ByLayer
 10
110.0
 20
80.0
 30
0.0
 11
110.0
 21
90.0
 31
0.0
  0
LINE
  5
AC
100
AcDbEntity
100
AcDbLine
  8
cuts
 62
256
370
-1
  6
ByLayer
 10
50.0
 20
10.0
 30
0.0
 11
110.0
 21
10.0
 31
0.0
  0
LINE
  5
AD
100
AcDbEntity
100
AcDbLine
  8
cuts
 62
256
370
-1
  6
ByLayer
 10
110.0
 20
90.0
 30
0.0
 11
50.0
 21
90.0
 31
0.0
  0
LINE
  5
AE
100
AcDbEntity
100
AcDbLine
  8
cuts
 62
256
370
-1
  6
ByLayer
 10
110.0
 20
210.0
 30
0.0
 11
110.0
 21
220.0
 31
0.0
  0
LINE
  5
AF
100
AcDbEntity
100
AcDbLine
  8
cuts
 62
256
370
-1
  6
ByLayer
 10
110.0
 20
280.0
 30
0.0
 11
110.0
 21
290.0
 31
0.0
  0
LINE
  5
B0
100
AcDbEntity
100
AcDbLine
  8
cuts
 62
256
370
-1
  6
ByLayer
 10
50.0
 20
210.0
 30
0.0
 11
110.0
 21
210.0
 31
0.0
  0
LINE
  5
B1
100
AcDbEntity
100
AcDbLine
  8
cuts
 62
256
370
-1
  6
ByLayer
 10
110.0
 20
290.0
 30
0.0
 11
50.0
 21
290.0
 31
0.0
  0
LINE
  5
B2
100
AcDbEntity
100
AcDbLine
  8
cuts
 62
256
370
-1
  6
ByLayer
 10
190.0
 20
210.0
 30
0.0
 11
190.0
 21
290.0
 31
0.0
  0
LINE
  5
B3
100
AcDbEntity
100
AcDbLine
  8
cuts
 62
256
370
-1
  6
ByLayer
 10
151.0
 20
160.0
 30
0.0
 11
151.0
 21
150.0
 31
0.0
  0
LINE
  5
B4
100
AcDbEntity
100
AcDbLine
  8
cuts
 62
256
370
-1
  6
ByLayer
 10
159.0
 20
150.0
 30
0.0
 11
159.0
 21
160.0
 31
0.0
  0
LINE
  5
B5
100
AcDbEntity
100
AcDbLine
  8
cuts
 62
256
370
-1
  6
ByLayer
 10
151.0
 20
150.0
 30
0.0
 11
159.0
 21
150.0
 31
0.0
  0
LINE
  5
B6
100
AcDbEntity
100
AcDbLine
  8
cuts
 62
256
370
-1
  6
ByLayer
 10
159.0
 20
160.0
 30
0.0
 11
151.0
 21
160.0
 31
0.0
  0
LINE
  5
B7
100
AcDbEntity
100
AcDbLine
  8
cuts
 62
256
370
-1
  6
ByLayer
 10
135.0
 20
400.0
 30
0.0
 11
5.0
 21
400.0
 31
0.0
  0
LINE
  5
B8
100
AcDbEntity
100
AcDbLine
  8
cuts
 62
256
370
-1
  6
ByLayer
 10
135.0
 20
400.0
 30
0.0
 11
140.0
 21
395.0
 31
0.0
  0
LINE
  5
B9
100
AcDbEntity
100
AcDbLine
  8
cuts
 62
256
370
-1
  6
ByLayer
 10
135.0
 20
300.0
 30
0.0
 11
140.0
 21
305.0
 31
0.0
  0
LINE
  5
BA
100
AcDbEntity
100
AcDbLine
  8
cuts
 62
256
370
-1
  6
ByLayer
 10
140.0
 20
295.0
 30
0.0
 11
145.0
 21
300.0
 31
0.0
  0
LINE
  5
BB
100
AcDbEntity
100
AcDbLine
  8
cuts
 62
256
370
-1
  6
ByLayer
 10
140.0
 20
205.0
 30
0.0
 11
145.0
 21
200.0
 31
0.0
  0
LINE
  5
BC
100
AcDbEntity
100
AcDbLine
  8
cuts
 62
256
370
-1
  6
ByLayer
 10
140.0
 20
105.0
 30
0.0
 11
135.0
 21
100.0
 31
0.0
  0
LINE
  5
BD
100
AcDbEntity
100
AcDbLine
  8
cuts
 62
256
370
-1
  6
ByLayer
 10
140.0
 20
95.0
 30
0.0
 11
145.0
 21
100.0
 31
0.0
  0
LINE
  5
BE
100
AcDbEntity
100
AcDbLine
  8
cuts
 62
256
370
-1
  6
ByLayer
 10
145.0
 20
0.0
 30
0.0
 11
140.0
 21
5.0
 31
0.0
  0
LINE
  5
BF
100
AcDbEntity
100
AcDbLine
  8
cuts
 62
256
370
-1
  6
ByLayer
 10
145.0
 20
400.0
 30
0.0
 11
140.0
 21
395.0
 31
0.0
  0
LINE
  5
C0
100
AcDbEntity
100
AcDbLine
  8
cuts
 62
256
370
-1
  6
ByLayer
 10
140.0
 20
305.0
 30
0.0
 11
145.0
 21
300.0
 31
0.0
  0
LINE
  5
C1
100
AcDbEntity
100
AcDbLine
  8
cuts
 62
256
370
-1
  6
ByLayer
 10
135.0
 20
300.0
 30
0.0
 11
5.0
 21
300.0
 31
0.0
  0
LINE
  5
C2
100
AcDbEntity
100
AcDbLine
  8
cuts
 62
256
370
-1
  6
ByLayer
 10
135.0
 20
300.0
 30
0.0
 11
140.0
 21
295.0
 31
0.0
  0
LINE
  5
C3
100
AcDbEntity
100
AcDbLine
  8
cuts
 62
256
370
-1
  6
ByLayer
 10
140.0
 20
295.0
 30
0.0
 11
140.0
 21
205.0
 31
0.0
  0
LINE
  5
C4
100
AcDbEntity
100
AcDbLine
  8
cuts
 62
256
370
-1
  6
ByLayer
 10
135.0
 20
200.0
 30
0.0
 11
5.0
 21
200.0
 31
0.0
  0
LINE
  5
C5
100
AcDbEntity
100
AcDbLine
  8
cuts
 62
256
370
-1
  6
ByLayer
 10
140.0
 20
205.0
 30
0.0
 11
135.0
 21
200.0
 31
0.0
  0
LINE
  5
C6
100
AcDbEntity
100
AcDbLine
  8
cuts
 62
256
370
-1
  6
ByLayer
 10
140.0
 20
105.0
 30
0.0
 11
140.0
 21
195.0
 31
0.0
  0
LINE
  5
C7
100
AcDbEntity
100
AcDbLine
  8
cuts
 62
256
370
-1
  6
ByLayer
 10
140.0
 20
195.0
 30
0.0
 11
145.0
 21
200.0
 31
0.0
  0
LINE
  5
C8
100
AcDbEntity
100
AcDbLine
  8
cuts
 62
256
370
-1
  6
ByLayer
 10
135.0
 20
100.0
 30
0.0
 11
140.0
 21
95.0
 31
0.0
  0
LINE
  5
C9
100
AcDbEntity
100
AcDbLine
  8
cuts
 62
256
370
-1
  6
ByLayer
 10
5.0
 20
0.0
 30
0.0
 11
135.0
 21
0.0
 31
0.0
  0
LINE
  5
CA
100
AcDbEntity
100
AcDbLine
  8
cuts
 62
256
370
-1
  6
ByLayer
 10
140.0
 20
95.0
 30
0.0
 11
140.0
 21
5.0
 31
0.0
  0
LINE
  5
CB
100
AcDbEntity
100
AcDbLine
  8
cuts
 62
256
370
-1
  6
ByLayer
 10
135.0
 20
0.0
 30
0.0
 11
140.0
 21
5.0
 31
0.0
  0
LINE
  5
CC
100
AcDbEntity
100
AcDbLine
  8
cuts
 62
256
370
-1
  6
ByLayer
 10
5.0
 20
100.0
 30
0.0
 11
135.0
 21
100.0
 31
0.0
  0
LINE
  5
CD
100
AcDbEntity
100
AcDbLine
  8
cuts
 62
256
370
-1
  6
ByLayer
 10
135.0
 20
200.0
 30
0.0
 11
140.0
 21
195.0
 31
0.0
  0
LINE
  5
CE
100
AcDbEntity
100
AcDbLine
  8
cuts
 62
256
370
-1
  6
ByLayer
 10
140.0
 20
105.0
 30
0.0
 11
145.0
 21
100.0
 31
0.0
  0
LINE
  5
CF
100
AcDbEntity
100
AcDbLine
  8
cuts
 62
256
370
-1
  6
ByLayer
 10
160.0
 20
175.0
 30
0.0
 11
160.0
 21
180.0
 31
0.0
  0
LINE
  5
D0
100
AcDbEntity
100
AcDbLine
  8
cuts
 62
256
370
-1
  6
ByLayer
 10
160.0
 20
180.0
 30
0.0
 11
155.0
 21
180.0
 31
0.0
  0
LINE
  5
D1
100
AcDbEntity
100
AcDbLine
  8
cuts
 62
256
370
-1
  6
ByLayer
 10
155.0
 20
180.0
 30
0.0
 11
155.0
 21
175.0
 31
0.0
  0
LINE
  5
D2
100
AcDbEntity
100
AcDbLine
  8
cuts
 62
256
370
-1
  6
ByLayer
 10
155.0
 20
175.0
 30
0.0
 11
160.0
 21
175.0
 31
0.0
  0
LINE
  5
D3
100
AcDbEntity
100
AcDbLine
  8
cuts
 62
256
370
-1
  6
ByLayer
 10
190.0
 20
110.0
 30
0.0
 11
250.0
 21
110.0
 31
0.0
  0
LINE
  5
D4
100
AcDbEntity
100
AcDbLine
  8
cuts
 62
256
370
-1
  6
ByLayer
 10
250.0
 20
110.0
 30
0.0
 11
250.0
 21
120.0
 31
0.0
  0
LINE
  5
D5
100
AcDbEntity
100
AcDbLine
  8
cuts
 62
256
370
-1
  6
ByLayer
 10
250.0
 20
180.0
 30
0.0
 11
250.0
 21
190.0
 31
0.0
  0
LINE
  5
D6
100
AcDbEntity
100
AcDbLine
  8
cuts
 62
256
370
-1
  6
ByLayer
 10
250.0
 20
190.0
 30
0.0
 11
190.0
 21
190.0
 31
0.0
  0
LINE
  5
D7
100
AcDbEntity
100
AcDbLine
  8
cuts
 62
256
370
-1
  6
ByLayer
 10
190.0
 20
10.0
 30
0.0
 11
250.0
 21
10.0
 31
0.0
  0
LINE
  5
D8
100
AcDbEntity
100
AcDbLine
  8
cuts
 62
256
370
-1
  6
ByLayer
 10
250.0
 20
90.0
 30
0.0
 11
190.0
 21
90.0
 31
0.0
  0
LINE
  5
D9
100
AcDbEntity
100
AcDbLine
  8
cuts
 62
256
370
-1
  6
ByLayer
 10
250.0
 20
210.0
 30
0.0
 11
250.0
 21
220.0
 31
0.0
  0
LINE
  5
DA
100
AcDbEntity
100
AcDbLine
  8
cuts
 62
256
370
-1
  6
ByLayer
 10
250.0
 20
280.0
 30
0.0
 11
250.0
 21
290.0
 31
0.0
  0
LINE
  5
DB
100
AcDbEntity
100
AcDbLine
  8
cuts
 62
256
370
-1
  6
ByLayer
 10
190.0
 20
210.0
 30
0.0
 11
250.0
 21
210.0
 31
0.0
  0
LINE
  5
DC
100
AcDbEntity
100
AcDbLine
  8
cuts
 62
256
370
-1
  6
ByLayer
 10
250.0
 20
290.0
 30
0.0
 11
190.0
 21
290.0
 31
0.0
  0
LINE
  5
DD
100
AcDbEntity
100
AcDbLine
  8
cuts
 62
256
370
-1
  6
ByLayer
 10
280.0
 20
105.0
 30
0.0
 11
280.0
 21
195.0
 31
0.0
  0
LINE
  5
DE
100
AcDbEntity
100
AcDbLine
  8
cuts
 62
256
370
-1
  6
ByLayer
 10
280.0
 20
195.0
 30
0.0
 11
275.0
 21
200.0
 31
0.0
  0
LINE
  5
DF
100
AcDbEntity
100
AcDbLine
  8
cuts
 62
256
370
-1
  6
ByLayer
 10
145.0
 20
100.0
 30
0.0
 11
275.0
 21
100.0
 31
0.0
  0
LINE
  5
E0
100
AcDbEntity
100
AcDbLine
  8
cuts
 62
256
370
-1
  6
ByLayer
 10
275.0
 20
400.0
 30
0.0
 11
145.0
 21
400.0
 31
0.0
  0
LINE
  5
E1
100
AcDbEntity
100
AcDbLine
  8
cuts
 62
256
370
-1
  6
ByLayer
 10
275.0
 20
400.0
 30
0.0
 11
280.0
 21
395.0
 31
0.0
  0
LINE
  5
E2
100
AcDbEntity
100
AcDbLine
  8
cuts
 62
256
370
-1
  6
ByLayer
 10
280.0
 20
305.0
 30
0.0
 11
280.0
 21
395.0
 31
0.0
  0
LINE
  5
E3
100
AcDbEntity
100
AcDbLine
  8
cuts
 62
256
370
-1
  6
ByLayer
 10
280.0
 20
305.0
 30
0.0
 11
275.0
 21
300.0
 31
0.0
  0
LINE
  5
E4
100
AcDbEntity
100
AcDbLine
  8
cuts
 62
256
370
-1
  6
ByLayer
 10
275.0
 20
300.0
 30
0.0
 11
145.0
 21
300.0
 31
0.0
  0
LINE
  5
E5
100
AcDbEntity
100
AcDbLine
  8
cuts
 62
256
370
-1
  6
ByLayer
 10
275.0
 20
200.0
 30
0.0
 11
145.0
 21
200.0
 31
0.0
  0
LINE
  5
E6
100
AcDbEntity
100
AcDbLine
  8
cuts
 62
256
370
-1
  6
ByLayer
 10
145.0
 20
0.0
 30
0.0
 11
275.0
 21
0.0
 31
0.0
  0
LINE
  5
E7
100
AcDbEntity
100
AcDbLine
  8
cuts
 62
256
370
-1
  6
ByLayer
 10
250.0
 20
10.0
 30
0.0
 11
250.0
 21
20.0
 31
0.0
  0
LINE
  5
E8
100
AcDbEntity
100
AcDbLine
  8
cuts
 62
256
370
-1
  6
ByLayer
 10
250.0
 20
80.0
 30
0.0
 11
250.0
 21
90.0
 31
0.0
  0
LINE
  5
E9
100
AcDbEntity
100
AcDbLine
  8
cuts
 62
256
370
-1
  6
ByLayer
 10
275.0
 20
100.0
 30
0.0
 11
280.0
 21
105.0
 31
0.0
  0
LINE
  5
EA
100
AcDbEntity
100
AcDbLine
  8
cuts
 62
256
370
-1
  6
ByLayer
 10
260.0
 20
80.0
 30
0.0
 11
250.0
 21
80.0
 31
0.0
  0
LINE
  5
EB
100
AcDbEntity
100
AcDbLine
  8
cuts
 62
256
370
-1
  6
ByLayer
 10
280.0
 20
5.0
 30
0.0
 11
280.0
 21
95.0
 31
0.0
  0
LINE
  5
EC
100
AcDbEntity
100
AcDbLine
  8
cuts
 62
256
370
-1
  6
ByLayer
 10
275.0
 20
100.0
 30
0.0
 11
280.0
 21
95.0
 31
0.0
  0
LINE
  5
ED
100
AcDbEntity
100
AcDbLine
  8
cuts
 62
256
370
-1
  6
ByLayer
 10
280.0
 20
5.0
 30
0.0
 11
280.0
 21
5.0
 31
0.0
  0
LINE
  5
EE
100
AcDbEntity
100
AcDbLine
  8
cuts
 62
256
370
-1
  6
ByLayer
 10
275.0
 20
0.0
 30
0.0
 11
280.0
 21
5.0
 31
0.0
  0
LINE
  5
EF
100
AcDbEntity
100
AcDbLine
  8
cuts
 62
256
370
-1
  6
ByLayer
 10
250.0
 20
220.0
 30
0.0
 11
260.0
 21
220.0
 31
0.0
  0
LINE
  5
F0
100
AcDbEntity
100
AcDbLine
  8
cuts
 62
256
370
-1
  6
ByLayer
 10
260.0
 20
220.0
 30
0.0
 11
260.0
 21
280.0
 31
0.0
  0
LINE
  5
F1
100
AcDbEntity
100
AcDbLine
  8
cuts
 62
256
370
-1
  6
ByLayer
 10
260.0
 20
280.0
 30
0.0
 11
250.0
 21
280.0
 31
0.0
  0
LINE
  5
F2
100
AcDbEntity
100
AcDbLine
  8
cuts
 62
256
370
-1
  6
ByLayer
 10
270.0
 20
300.0
 30
0.0
 11
270.0
 21
200.0
 31
0.0
  0
LINE
  5
F3
100
AcDbEntity
100
AcDbLine
  8
cuts
 62
256
370
-1
  6
ByLayer
 10
250.0
 20
120.0
 30
0.0
 11
260.0
 21
120.0
 31
0.0
  0
LINE
  5
F4
100
AcDbEntity
100
AcDbLine
  8
cuts
 62
256
370
-1
  6
ByLayer
 10
260.0
 20
120.0
 30
0.0
 11
260.0
 21
180.0
 31
0.0
  0
LINE
  5
F5
100
AcDbEntity
100
AcDbLine
  8
cuts
 62
256
370
-1
  6
ByLayer
 10
260.0
 20
180.0
 30
0.0
 11
250.0
 21
180.0
 31
0.0
  0
LINE
  5
F6
100
AcDbEntity
100
AcDbLine
  8
cuts
 62
256
370
-1
  6
ByLayer
 10
260.0
 20
20.0
 30
0.0
 11
260.0
 21
80.0
 31
0.0
  0
LINE
  5
F7
100
AcDbEntity
100
AcDbLine
  8
cuts
 62
256
370
-1
  6
ByLayer
 10
260.0
 20
80.0
 30
0.0
 11
250.0
 21
80.0
 31
0.0
  0
LINE
  5
F8
100
AcDbEntity
100
AcDbLine
  8
cuts
 62
256
370
-1
  6
ByLayer
 10
250.0
 20
20.0
 30
0.0
 11
260.0
 21
20.0
 31
0.0
  0
LINE
  5
F9
100
AcDbEntity
100
AcDbLine
  8
cuts
 62
256
370
-1
  6
ByLayer
 10
120.0
 20
20.0
 30
0.0
 11
120.0
 21
80.0
 31
0.0
  0
LINE
  5
FA
100
AcDbEntity
100
AcDbLine
  8
cuts
 62
256
370
-1
  6
ByLayer
 10
110.0
 20
20.0
 30
0.0
 11
120.0
 21
20.0
 31
0.0
  0
LINE
  5
FB
100
AcDbEntity
100
AcDbLine
  8
cuts
 62
256
370
-1
  6
ByLayer
 10
120.0
 20
80.0
 30
0.0
 11
110.0
 21
80.0
 31
0.0
  0
LINE
  5
FC
100
AcDbEntity
100
AcDbLine
  8
cuts
 62
256
370
-1
  6
ByLayer
 10
110.0
 20
120.0
 30
0.0
 11
120.0
 21
120.0
 31
0.0
  0
LINE
  5
FD
100
AcDbEntity
100
AcDbLine
  8
cuts
 62
256
370
-1
  6
ByLayer
 10
120.0
 20
120.0
 30
0.0
 11
120.0
 21
180.0
 31
0.0
  0
LINE
  5
FE
100
AcDbEntity
100
AcDbLine
  8
cuts
 62
256
370
-1
  6
ByLayer
 10
120.0
 20
180.0
 30
0.0
 11
110.0
 21
180.0
 31
0.0
  0
LINE
  5
FF
100
AcDbEntity
100
AcDbLine
  8
cuts
 62
256
370
-1
  6
ByLayer
 10
110.0
 20
220.0
 30
0.0
 11
120.0
 21
220.0
 31
0.0
  0
LINE
  5
100
100
AcDbEntity
100
AcDbLine
  8
cuts
 62
256
370
-1
  6
ByLayer
 10
120.0
 20
220.0
 30
0.0
 11
120.0
 21
280.0
 31
0.0
  0
LINE
  5
101
100
AcDbEntity
100
AcDbLine
  8
cuts
 62
256
370
-1
  6
ByLayer
 10
120.0
 20
280.0
 30
0.0
 11
110.0
 21
280.0
 31
0.0
  0
LINE
  5
102
100
AcDbEntity
100
AcDbLine
  8
cuts
 62
256
370
-1
  6
ByLayer
 10
0.0
 20
295.0
 30
0.0
 11
0.0
 21
205.0
 31
0.0
  0
LINE
  5
103
100
AcDbEntity
100
AcDbLine
  8
cuts
 62
256
370
-1
  6
ByLayer
 10
11.0
 20
160.0
 30
0.0
 11
11.0
 21
150.0
 31
0.0
  0
LINE
  5
104
100
AcDbEntity
100
AcDbLine
  8
cuts
 62
256
370
-1
  6
ByLayer
 10
19.0
 20
150.0
 30
0.0
 11
19.0
 21
160.0
 31
0.0
  0
LINE
  5
105
100
AcDbEntity
100
AcDbLine
  8
cuts
 62
256
370
-1
  6
ByLayer
 10
11.0
 20
150.0
 30
0.0
 11
19.0
 21
150.0
 31
0.0
  0
LINE
  5
106
100
AcDbEntity
100
AcDbLine
  8
cuts
 62
256
370
-1
  6
ByLayer
 10
19.0
 20
160.0
 30
0.0
 11
11.0
 21
160.0
 31
0.0
  0
LINE
  5
107
100
AcDbEntity
100
AcDbLine
  8
cuts
 62
256
370
-1
  6
ByLayer
 10
15.0
 20
280.0
 30
0.0
 11
20.0
 21
280.0
 31
0.0
  0
LINE
  5
108
100
AcDbEntity
100
AcDbLine
  8
cuts
 62
256
370
-1
  6
ByLayer
 10
20.0
 20
275.0
 30
0.0
 11
15.0
 21
275.0
 31
0.0
  0
LINE
  5
109
100
AcDbEntity
100
AcDbLine
  8
cuts
 62
256
370
-1
  6
ByLayer
 10
15.0
 20
290.0
 30
0.0
 11
15.0
 21
270.0
 31
0.0
  0
LINE
  5
10A
100
AcDbEntity
100
AcDbLine
  8
cuts
 62
256
370
-1
  6
ByLayer
 10
30.0
 20
300.0
 30
0.0
 11
30.0
 21
290.0
 31
0.0
  0
LINE
  5
10B
100
AcDbEntity
100
AcDbLine
  8
cuts
 62
256
370
-1
  6
ByLayer
 10
25.0
 20
300.0
 30
0.0
 11
30.0
 21
295.0
 31
0.0
  0
LINE
  5
10C
100
AcDbEntity
100
AcDbLine
  8
cuts
 62
256
370
-1
  6
ByLayer
 10
40.0
 20
295.0
 30
0.0
 11
45.0
 21
300.0
 31
0.0
  0
LINE
  5
10D
100
AcDbEntity
100
AcDbLine
  8
cuts
 62
256
370
-1
  6
ByLayer
 10
26.0
 20
221.0
 30
0.0
 11
31.0
 21
221.0
 31
0.0
  0
LINE
  5
10E
100
AcDbEntity
100
AcDbLine
  8
cuts
 62
256
370
-1
  6
ByLayer
 10
31.0
 20
221.0
 30
0.0
 11
31.0
 21
219.0
 31
0.0
  0
LINE
  5
10F
100
AcDbEntity
100
AcDbLine
  8
cuts
 62
256
370
-1
  6
ByLayer
 10
31.0
 20
219.0
 30
0.0
 11
35.0
 21
219.0
 31
0.0
  0
LINE
  5
110
100
AcDbEntity
100
AcDbLine
  8
cuts
 62
256
370
-1
  6
ByLayer
 10
35.0
 20
219.0
 30
0.0
 11
35.0
 21
221.0
 31
0.0
  0
LINE
  5
111
100
AcDbEntity
100
AcDbLine
  8
cuts
 62
256
370
-1
  6
ByLayer
 10
35.0
 20
221.0
 30
0.0
 11
40.0
 21
221.0
 31
0.0
  0
LINE
  5
112
100
AcDbEntity
100
AcDbLine
  8
cuts
 62
256
370
-1
  6
ByLayer
 10
30.0
 20
290.0
 30
0.0
 11
15.0
 21
290.0
 31
0.0
  0
LINE
  5
113
100
AcDbEntity
100
AcDbLine
  8
cuts
 62
256
370
-1
  6
ByLayer
 10
20.0
 20
275.0
 30
0.0
 11
26.0
 21
275.0
 31
0.0
  0
LINE
  5
114
100
AcDbEntity
100
AcDbLine
  8
cuts
 62
256
370
-1
  6
ByLayer
 10
26.0
 20
275.0
 30
0.0
 11
26.0
 21
221.0
 31
0.0
  0
LINE
  5
115
100
AcDbEntity
100
AcDbLine
  8
cuts
 62
256
370
-1
  6
ByLayer
 10
40.0
 20
221.0
 30
0.0
 11
40.0
 21
300.0
 31
0.0
  0
LINE
  5
116
100
AcDbEntity
100
AcDbLine
  8
cuts
 62
256
370
-1
  6
ByLayer
 10
140.0
 20
395.0
 30
0.0
 11
140.0
 21
305.0
 31
0.0
  0
LINE
  5
117
100
AcDbEntity
100
AcDbLine
  8
cuts
 62
256
370
-1
  6
ByLayer
 10
8.0
 20
221.0
 30
0.0
 11
13.0
 21
221.0
 31
0.0
  0
LINE
  5
118
100
AcDbEntity
100
AcDbLine
  8
cuts
 62
256
370
-1
  6
ByLayer
 10
13.0
 20
221.0
 30
0.0
 11
13.0
 21
219.0
 31
0.0
  0
LINE
  5
119
100
AcDbEntity
100
AcDbLine
  8
cuts
 62
256
370
-1
  6
ByLayer
 10
13.0
 20
219.0
 30
0.0
 11
17.0
 21
219.0
 31
0.0
  0
LINE
  5
11A
100
AcDbEntity
100
AcDbLine
  8
cuts
 62
256
370
-1
  6
ByLayer
 10
17.0
 20
219.0
 30
0.0
 11
17.0
 21
221.0
 31
0.0
  0
LINE
  5
11B
100
AcDbEntity
100
AcDbLine
  8
cuts
 62
256
370
-1
  6
ByLayer
 10
17.0
 20
221.0
 30
0.0
 11
22.0
 21
221.0
 31
0.0
  0
LINE
  5
11C
100
AcDbEntity
100
AcDbLine
  8
cuts
 62
256
370
-1
  6
ByLayer
 10
20.0
 20
280.0
 30
0.0
 11
20.0
 21
270.0
 31
0.0
  0
LINE
  5
11D
100
AcDbEntity
100
AcDbLine
  8
cuts
 62
256
370
-1
  6
ByLayer
 10
22.0
 20
270.0
 30
0.0
 11
22.0
 21
221.0
 31
0.0
  0
LINE
  5
11E
100
AcDbEntity
100
AcDbLine
  8
cuts
 62
256
370
-1
  6
ByLayer
 10
8.0
 20
221.0
 30
0.0
 11
8.0
 21
270.0
 31
0.0
  0
LINE
  5
11F
100
AcDbEntity
100
AcDbLine
  8
cuts
 62
256
370
-1
  6
ByLayer
 10
8.0
 20
270.0
 30
0.0
 11
15.0
 21
270.0
 31
0.0
  0
LINE
  5
120
100
AcDbEntity
100
AcDbLine
  8
cuts
 62
256
370
-1
  6
ByLayer
 10
20.0
 20
270.0
 30
0.0
 11
26.0
 21
270.0
 31
0.0
  0
LINE
  5
121
100
AcDbEntity
100
AcDbLine
  8
cuts
 62
256
370
-1
  6
ByLayer
 10
8.0
 20
226.0
 30
0.0
 11
13.0
 21
226.0
 31
0.0
  0
LINE
  5
122
100
AcDbEntity
100
AcDbLine
  8
cuts
 62
256
370
-1
  6
ByLayer
 10
13.0
 20
226.0
 30
0.0
 11
13.0
 21
242.0
 31
0.0
  0
LINE
  5
123
100
AcDbEntity
100
AcDbLine
  8
cuts
 62
256
370
-1
  6
ByLayer
 10
13.0
 20
242.0
 30
0.0
 11
17.0
 21
242.0
 31
0.0
  0
LINE
  5
124
100
AcDbEntity
100
AcDbLine
  8
cuts
 62
256
370
-1
  6
ByLayer
 10
17.0
 20
242.0
 30
0.0
 11
17.0
 21
226.0
 31
0.0
  0
LINE
  5
125
100
AcDbEntity
100
AcDbLine
  8
cuts
 62
256
370
-1
  6
ByLayer
 10
17.0
 20
226.0
 30
0.0
 11
22.0
 21
226.0
 31
0.0
  0
LINE
  5
126
100
AcDbEntity
100
AcDbLine
  8
cuts
 62
256
370
-1
  6
ByLayer
 10
26.0
 20
226.0
 30
0.0
 11
31.0
 21
226.0
 31
0.0
  0
LINE
  5
127
100
AcDbEntity
100
AcDbLine
  8
cuts
 62
256
370
-1
  6
ByLayer
 10
31.0
 20
226.0
 30
0.0
 11
31.0
 21
242.0
 31
0.0
  0
LINE
  5
128
100
AcDbEntity
100
AcDbLine
  8
cuts
 62
256
370
-1
  6
ByLayer
 10
31.0
 20
242.0
 30
0.0
 11
35.0
 21
242.0
 31
0.0
  0
LINE
  5
129
100
AcDbEntity
100
AcDbLine
  8
cuts
 62
256
370
-1
  6
ByLayer
 10
35.0
 20
242.0
 30
0.0
 11
35.0
 21
226.0
 31
0.0
  0
LINE
  5
12A
100
AcDbEntity
100
AcDbLine
  8
cuts
 62
256
370
-1
  6
ByLayer
 10
35.0
 20
226.0
 30
0.0
 11
40.0
 21
226.0
 31
0.0
  0
LINE
  5
12B
100
AcDbEntity
100
AcDbLine
  8
cuts
 62
256
370
-1
  6
ByLayer
 10
10.0
 20
123.0
 30
0.0
 11
14.0
 21
123.0
 31
0.0
  0
LINE
  5
12C
100
AcDbEntity
100
AcDbLine
  8
cuts
 62
256
370
-1
  6
ByLayer
 10
151.0
 20
260.0
 30
0.0
 11
151.0
 21
250.0
 31
0.0
  0
LINE
  5
12D
100
AcDbEntity
100
AcDbLine
  8
cuts
 62
256
370
-1
  6
ByLayer
 10
159.0
 20
250.0
 30
0.0
 11
159.0
 21
260.0
 31
0.0
  0
LINE
  5
12E
100
AcDbEntity
100
AcDbLine
  8
cuts
 62
256
370
-1
  6
ByLayer
 10
151.0
 20
250.0
 30
0.0
 11
159.0
 21
250.0
 31
0.0
  0
LINE
  5
12F
100
AcDbEntity
100
AcDbLine
  8
cuts
 62
256
370
-1
  6
ByLayer
 10
159.0
 20
260.0
 30
0.0
 11
151.0
 21
260.0
 31
0.0
  0
LINE
  5
130
100
AcDbEntity
100
AcDbLine
  8
cuts
 62
256
370
-1
  6
ByLayer
 10
14.0
 20
123.0
 30
0.0
 11
14.0
 21
119.0
 31
0.0
  0
LINE
  5
131
100
AcDbEntity
100
AcDbLine
  8
cuts
 62
256
370
-1
  6
ByLayer
 10
14.0
 20
119.0
 30
0.0
 11
10.0
 21
119.0
 31
0.0
  0
LINE
  5
132
100
AcDbEntity
100
AcDbLine
  8
cuts
 62
256
370
-1
  6
ByLayer
 10
10.0
 20
119.0
 30
0.0
 11
10.0
 21
123.0
 31
0.0
  0
LINE
  5
133
100
AcDbEntity
100
AcDbLine
  8
patterns
 62
3
370
-3
  6
CONTINUOUS
 10
5.0
 20
305.0
 30
0.0
 11
5.0
 21
395.0
 31
0.0
  0
LINE
  5
134
100
AcDbEntity
100
AcDbLine
  8
patterns
 62
3
370
-3
  6
CONTINUOUS
 10
15.0
 20
391.0
 30
0.0
 11
15.0
 21
395.0
 31
0.0
  0
LINE
  5
135
100
AcDbEntity
100
AcDbLine
  8
patterns
 62
3
370
-3
  6
CONTINUOUS
 10
15.0
 20
395.0
 30
0.0
 11
15.0
 21
385.0
 31
0.0
  0
LINE
  5
136
100
AcDbEntity
100
AcDbLine
  8
patterns
 62
3
370
-3
  6
CONTINUOUS
 10
15.0
 20
385.0
 30
0.0
 11
25.0
 21
385.0
 31
0.0
  0
LINE
  5
137
100
AcDbEntity
100
AcDbLine
  8
patterns
 62
3
370
-3
  6
CONTINUOUS
 10
25.0
 20
385.0
 30
0.0
 11
25.0
 21
375.0
 31
0.0
  0
LINE
  5
138
100
AcDbEntity
100
AcDbLine
  8
patterns
 62
3
370
-3
  6
CONTINUOUS
 10
25.0
 20
375.0
 30
0.0
 11
35.0
 21
375.0
 31
0.0
  0
LINE
  5
139
100
AcDbEntity
100
AcDbLine
  8
patterns
 62
3
370
-3
  6
CONTINUOUS
 10
35.0
 20
375.0
 30
0.0
 11
35.0
 21
365.0
 31
0.0
  0
LINE
  5
13A
100
AcDbEntity
100
AcDbLine
  8
patterns
 62
3
370
-3
  6
CONTINUOUS
 10
35.0
 20
365.0
 30
0.0
 11
45.0
 21
365.0
 31
0.0
  0
LINE
  5
13B
100
AcDbEntity
100
AcDbLine
  8
patterns
 62
3
370
-3
  6
CONTINUOUS
 10
45.0
 20
365.0
 30
0.0
 11
45.0
 21
355.0
 31
0.0
  0
LINE
  5
13C
100
AcDbEntity
100
AcDbLine
  8
patterns
 62
3
370
-3
  6
CONTINUOUS
 10
45.0
 20
355.0
 30
0.0
 11
55.0
 21
355.0
 31
0.0
  0
LINE
  5
13D
100
AcDbEntity
100
AcDbLine
  8
patterns
 62
3
370
-3
  6
CONTINUOUS
 10
55.0
 20
355.0
 30
0.0
 11
55.0
 21
345.0
 31
0.0
  0
LINE
  5
13E
100
AcDbEntity
100
AcDbLine
  8
patterns
 62
3
370
-3
  6
CONTINUOUS
 10
55.0
 20
345.0
 30
0.0
 11
65.0
 21
345.0
 31
0.0
  0
LINE
  5
13F
100
AcDbEntity
100
AcDbLine
  8
patterns
 62
3
370
-3
  6
CONTINUOUS
 10
65.0
 20
345.0
 30
0.0
 11
65.0
 21
335.0
 31
0.0
  0
LINE
  5
140
100
AcDbEntity
100
AcDbLine
  8
patterns
 62
3
370
-3
  6
CONTINUOUS
 10
65.0
 20
335.0
 30
0.0
 11
75.0
 21
335.0
 31
0.0
  0
LINE
  5
141
100
AcDbEntity
100
AcDbLine
  8
patterns
 62
3
370
-3
  6
CONTINUOUS
 10
75.0
 20
335.0
 30
0.0
 11
75.0
 21
325.0
 31
0.0
  0
LINE
  5
142
100
AcDbEntity
100
AcDbLine
  8
patterns
 62
3
370
-3
  6
CONTINUOUS
 10
75.0
 20
325.0
 30
0.0
 11
85.0
 21
325.0
 31
0.0
  0
LINE
  5
143
100
AcDbEntity
100
AcDbLine
  8
patterns
 62
3
370
-3
  6
CONTINUOUS
 10
85.0
 20
325.0
 30
0.0
 11
85.0
 21
315.0
 31
0.0
  0
LINE
  5
144
100
AcDbEntity
100
AcDbLine
  8
patterns
 62
3
370
-3
  6
CONTINUOUS
 10
85.0
 20
315.0
 30
0.0
 11
95.0
 21
315.0
 31
0.0
  0
LINE
  5
145
100
AcDbEntity
100
AcDbLine
  8
patterns
 62
3
370
-3
  6
CONTINUOUS
 10
95.0
 20
315.0
 30
0.0
 11
95.0
 21
305.0
 31
0.0
  0
LINE
  5
146
100
AcDbEntity
100
AcDbLine
  8
patterns
 62
3
370
-3
  6
CONTINUOUS
 10
35.0
 20
391.0
 30
0.0
 11
35.0
 21
395.0
 31
0.0
  0
LINE
  5
147
100
AcDbEntity
100
AcDbLine
  8
patterns
 62
3
370
-3
  6
CONTINUOUS
 10
35.0
 20
395.0
 30
0.0
 11
35.0
 21
385.0
 31
0.0
  0
LINE
  5
148
100
AcDbEntity
100
AcDbLine
  8
patterns
 62
3
370
-3
  6
CONTINUOUS
 10
35.0
 20
385.0
 30
0.0
 11
45.0
 21
385.0
 31
0.0
  0
LINE
  5
149
100
AcDbEntity
100
AcDbLine
  8
patterns
 62
3
370
-3
  6
CONTINUOUS
 10
45.0
 20
385.0
 30
0.0
 11
45.0
 21
375.0
 31
0.0
  0
LINE
  5
14A
100
AcDbEntity
100
AcDbLine
  8
patterns
 62
3
370
-3
  6
CONTINUOUS
 10
45.0
 20
375.0
 30
0.0
 11
55.0
 21
375.0
 31
0.0
  0
LINE
  5
14B
100
AcDbEntity
100
AcDbLine
  8
patterns
 62
3
370
-3
  6
CONTINUOUS
 10
55.0
 20
375.0
 30
0.0
 11
55.0
 21
365.0
 31
0.0
  0
LINE
  5
14C
100
AcDbEntity
100
AcDbLine
  8
patterns
 62
3
370
-3
  6
CONTINUOUS
 10
55.0
 20
365.0
 30
0.0
 11
65.0
 21
365.0
 31
0.0
  0
LINE
  5
14D
100
AcDbEntity
100
AcDbLine
  8
patterns
 62
3
370
-3
  6
CONTINUOUS
 10
65.0
 20
365.0
 30
0.0
 11
65.0
 21
355.0
 31
0.0
  0
LINE
  5
14E
100
AcDbEntity
100
AcDbLine
  8
patterns
 62
3
370
-3
  6
CONTINUOUS
 10
65.0
 20
355.0
 30
0.0
 11
75.0
 21
355.0
 31
0.0
  0
LINE
  5
14F
100
AcDbEntity
100
AcDbLine
  8
patterns
 62
3
370
-3
  6
CONTINUOUS
 10
75.0
 20
355.0
 30
0.0
 11
75.0
 21
345.0
 31
0.0
  0
LINE
  5
150
100
AcDbEntity
100
AcDbLine
  8
patterns
 62
3
370
-3
  6
CONTINUOUS
 10
75.0
 20
345.0
 30
0.0
 11
85.0
 21
345.0
 31
0.0
  0
LINE
  5
151
100
AcDbEntity
100
AcDbLine
  8
patterns
 62
3
370
-3
  6
CONTINUOUS
 10
85.0
 20
345.0
 30
0.0
 11
85.0
 21
335.0
 31
0.0
  0
LINE
  5
152
100
AcDbEntity
100
AcDbLine
  8
patterns
 62
3
370
-3
  6
CONTINUOUS
 10
85.0
 20
335.0
 30
0.0
 11
95.0
 21
335.0
 31
0.0
  0
LINE
  5
153
100
AcDbEntity
100
AcDbLine
  8
patterns
 62
3
370
-3
  6
CONTINUOUS
 10
95.0
 20
335.0
 30
0.0
 11
95.0
 21
325.0
 31
0.0
  0
LINE
  5
154
100
AcDbEntity
100
AcDbLine
  8
patterns
 62
3
370
-3
  6
CONTINUOUS
 10
95.0
 20
325.0
 30
0.0
 11
105.0
 21
325.0
 31
0.0
  0
LINE
  5
155
100
AcDbEntity
100
AcDbLine
  8
patterns
 62
3
370
-3
  6
CONTINUOUS
 10
105.0
 20
325.0
 30
0.0
 11
105.0
 21
315.0
 31
0.0
  0
LINE
  5
156
100
AcDbEntity
100
AcDbLine
  8
patterns
 62
3
370
-3
  6
CONTINUOUS
 10
105.0
 20
315.0
 30
0.0
 11
115.0
 21
315.0
 31
0.0
  0
LINE
  5
157
100
AcDbEntity
100
AcDbLine
  8
patterns
 62
3
370
-3
  6
CONTINUOUS
 10
115.0
 20
315.0
 30
0.0
 11
115.0
 21
305.0
 31
0.0
  0
LINE
  5
158
100
AcDbEntity
100
AcDbLine
  8
patterns
 62
3
370
-3
  6
CONTINUOUS
 10
5.0
 20
375.0
 30
0.0
 11
15.0
 21
375.0
 31
0.0
  0
LINE
  5
159
100
AcDbEntity
100
AcDbLine
  8
patterns
 62
3
370
-3
  6
CONTINUOUS
 10
15.0
 20
375.0
 30
0.0
 11
15.0
 21
365.0
 31
0.0
  0
LINE
  5
15A
100
AcDbEntity
100
AcDbLine
  8
patterns
 62
3
370
-3
  6
CONTINUOUS
 10
15.0
 20
365.0
 30
0.0
 11
25.0
 21
365.0
 31
0.0
  0
LINE
  5
15B
100
AcDbEntity
100
AcDbLine
  8
patterns
 62
3
370
-3
  6
CONTINUOUS
 10
25.0
 20
365.0
 30
0.0
 11
25.0
 21
355.0
 31
0.0
  0
LINE
  5
15C
100
AcDbEntity
100
AcDbLine
  8
patterns
 62
3
370
-3
  6
CONTINUOUS
 10
25.0
 20
355.0
 30
0.0
 11
35.0
 21
355.0
 31
0.0
  0
LINE
  5
15D
100
AcDbEntity
100
AcDbLine
  8
patterns
 62
3
370
-3
  6
CONTINUOUS
 10
35.0
 20
355.0
 30
0.0
 11
35.0
 21
345.0
 31
0.0
  0
LINE
  5
15E
100
AcDbEntity
100
AcDbLine
  8
patterns
 62
3
370
-3
  6
CONTINUOUS
 10
35.0
 20
345.0
 30
0.0
 11
45.0
 21
345.0
 31
0.0
  0
LINE
  5
15F
100
AcDbEntity
100
AcDbLine
  8
patterns
 62
3
370
-3
  6
CONTINUOUS
 10
45.0
 20
345.0
 30
0.0
 11
45.0
 21
335.0
 31
0.0
  0
LINE
  5
160
100
AcDbEntity
100
AcDbLine
  8
patterns
 62
3
370
-3
  6
CONTINUOUS
 10
45.0
 20
335.0
 30
0.0
 11
55.0
 21
335.0
 31
0.0
  0
LINE
  5
161
100
AcDbEntity
100
AcDbLine
  8
patterns
 62
3
370
-3
  6
CONTINUOUS
 10
55.0
 20
335.0
 30
0.0
 11
55.0
 21
325.0
 31
0.0
  0
LINE
  5
162
100
AcDbEntity
100
AcDbLine
  8
patterns
 62
3
370
-3
  6
CONTINUOUS
 10
55.0
 20
325.0
 30
0.0
 11
65.0
 21
325.0
 31
0.0
  0
LINE
  5
163
100
AcDbEntity
100
AcDbLine
  8
patterns
 62
3
370
-3
  6
CONTINUOUS
 10
65.0
 20
325.0
 30
0.0
 11
65.0
 21
315.0
 31
0.0
  0
LINE
  5
164
100
AcDbEntity
100
AcDbLine
  8
patterns
 62
3
370
-3
  6
CONTINUOUS
 10
65.0
 20
315.0
 30
0.0
 11
75.0
 21
315.0
 31
0.0
  0
LINE
  5
165
100
AcDbEntity
100
AcDbLine
  8
patterns
 62
3
370
-3
  6
CONTINUOUS
 10
75.0
 20
315.0
 30
0.0
 11
75.0
 21
305.0
 31
0.0
  0
LINE
  5
166
100
AcDbEntity
100
AcDbLine
  8
patterns
 62
3
370
-3
  6
CONTINUOUS
 10
5.0
 20
355.0
 30
0.0
 11
15.0
 21
355.0
 31
0.0
  0
LINE
  5
167
100
AcDbEntity
100
AcDbLine
  8
patterns
 62
3
370
-3
  6
CONTINUOUS
 10
15.0
 20
355.0
 30
0.0
 11
15.0
 21
345.0
 31
0.0
  0
LINE
  5
168
100
AcDbEntity
100
AcDbLine
  8
patterns
 62
3
370
-3
  6
CONTINUOUS
 10
15.0
 20
345.0
 30
0.0
 11
25.0
 21
345.0
 31
0.0
  0
LINE
  5
169
100
AcDbEntity
100
AcDbLine
  8
patterns
 62
3
370
-3
  6
CONTINUOUS
 10
25.0
 20
345.0
 30
0.0
 11
25.0
 21
335.0
 31
0.0
  0
LINE
  5
16A
100
AcDbEntity
100
AcDbLine
  8
patterns
 62
3
370
-3
  6
CONTINUOUS
 10
25.0
 20
335.0
 30
0.0
 11
35.0
 21
335.0
 31
0.0
  0
LINE
  5
16B
100
AcDbEntity
100
AcDbLine
  8
patterns
 62
3
370
-3
  6
CONTINUOUS
 10
35.0
 20
335.0
 30
0.0
 11
35.0
 21
325.0
 31
0.0
  0
LINE
  5
16C
100
AcDbEntity
100
AcDbLine
  8
patterns
 62
3
370
-3
  6
CONTINUOUS
 10
35.0
 20
325.0
 30
0.0
 11
45.0
 21
325.0
 31
0.0
  0
LINE
  5
16D
100
AcDbEntity
100
AcDbLine
  8
patterns
 62
3
370
-3
  6
CONTINUOUS
 10
45.0
 20
325.0
 30
0.0
 11
45.0
 21
315.0
 31
0.0
  0
LINE
  5
16E
100
AcDbEntity
100
AcDbLine
  8
patterns
 62
3
370
-3
  6
CONTINUOUS
 10
45.0
 20
315.0
 30
0.0
 11
55.0
 21
315.0
 31
0.0
  0
LINE
  5
16F
100
AcDbEntity
100
AcDbLine
  8
patterns
 62
3
370
-3
  6
CONTINUOUS
 10
55.0
 20
315.0
 30
0.0
 11
55.0
 21
305.0
 31
0.0
  0
LINE
  5
170
100
AcDbEntity
100
AcDbLine
  8
patterns
 62
3
370
-3
  6
CONTINUOUS
 10
95.0
 20
395.0
 30
0.0
 11
95.0
 21
385.0
 31
0.0
  0
LINE
  5
171
100
AcDbEntity
100
AcDbLine
  8
patterns
 62
3
370
-3
  6
CONTINUOUS
 10
95.0
 20
385.0
 30
0.0
 11
105.0
 21
385.0
 31
0.0
  0
LINE
  5
172
100
AcDbEntity
100
AcDbLine
  8
patterns
 62
3
370
-3
  6
CONTINUOUS
 10
105.0
 20
385.0
 30
0.0
 11
105.0
 21
375.0
 31
0.0
  0
LINE
  5
173
100
AcDbEntity
100
AcDbLine
  8
patterns
 62
3
370
-3
  6
CONTINUOUS
 10
105.0
 20
375.0
 30
0.0
 11
115.0
 21
375.0
 31
0.0
  0
LINE
  5
174
100
AcDbEntity
100
AcDbLine
  8
patterns
 62
3
370
-3
  6
CONTINUOUS
 10
115.0
 20
375.0
 30
0.0
 11
115.0
 21
365.0
 31
0.0
  0
LINE
  5
175
100
AcDbEntity
100
AcDbLine
  8
patterns
 62
3
370
-3
  6
CONTINUOUS
 10
115.0
 20
365.0
 30
0.0
 11
125.0
 21
365.0
 31
0.0
  0
LINE
  5
176
100
AcDbEntity
100
AcDbLine
  8
patterns
 62
3
370
-3
  6
CONTINUOUS
 10
125.0
 20
365.0
 30
0.0
 11
125.0
 21
355.0
 31
0.0
  0
LINE
  5
177
100
AcDbEntity
100
AcDbLine
  8
patterns
 62
3
370
-3
  6
CONTINUOUS
 10
125.0
 20
355.0
 30
0.0
 11
135.0
 21
355.0
 31
0.0
  0
CIRCLE
  5
178
100
AcDbEntity
100
AcDbCircle
  8
patterns
 62
3
370
-3
  6
CONTINUOUS
 10
230.0
 20
330.0
 30
0.0
 40
5.0
  0
LINE
  5
179
100
AcDbEntity
100
AcDbLine
  8
patterns
 62
3
370
-3
  6
CONTINUOUS
 10
5.0
 20
395.0
 30
0.0
 11
135.0
 21
395.0
 31
0.0
  0
LINE
  5
17A
100
AcDbEntity
100
AcDbLine
  8
patterns
 62
3
370
-3
  6
CONTINUOUS
 10
135.0
 20
305.0
 30
0.0
 11
5.0
 21
305.0
 31
0.0
  0
LINE
  5
17B
100
AcDbEntity
100
AcDbLine
  8
patterns
 62
3
370
-3
  6
CONTINUOUS
 10
135.0
 20
395.0
 30
0.0
 11
135.0
 21
305.0
 31
0.0
  0
LINE
  5
17C
100
AcDbEntity
100
AcDbLine
  8
patterns
 62
3
370
-3
  6
CONTINUOUS
 10
145.0
 20
305.0
 30
0.0
 11
145.0
 21
395.0
 31
0.0
  0
LINE
  5
17D
100
AcDbEntity
100
AcDbLine
  8
patterns
 62
3
370
-3
  6
CONTINUOUS
 10
155.0
 20
391.0
 30
0.0
 11
155.0
 21
395.0
 31
0.0
  0
LINE
  5
17E
100
AcDbEntity
100
AcDbLine
  8
patterns
 62
3
370
-3
  6
CONTINUOUS
 10
155.0
 20
395.0
 30
0.0
 11
155.0
 21
385.0
 31
0.0
  0
LINE
  5
17F
100
AcDbEntity
100
AcDbLine
  8
patterns
 62
3
370
-3
  6
CONTINUOUS
 10
155.0
 20
385.0
 30
0.0
 11
165.0
 21
385.0
 31
0.0
  0
LINE
  5
180
100
AcDbEntity
100
AcDbLine
  8
patterns
 62
3
370
-3
  6
CONTINUOUS
 10
165.0
 20
385.0
 30
0.0
 11
165.0
 21
375.0
 31
0.0
  0
LINE
  5
181
100
AcDbEntity
100
AcDbLine
  8
patterns
 62
3
370
-3
  6
CONTINUOUS
 10
165.0
 20
375.0
 30
0.0
 11
175.0
 21
375.0
 31
0.0
  0
LINE
  5
182
100
AcDbEntity
100
AcDbLine
  8
patterns
 62
3
370
-3
  6
CONTINUOUS
 10
175.0
 20
375.0
 30
0.0
 11
175.0
 21
365.0
 31
0.0
  0
LINE
  5
183
100
AcDbEntity
100
AcDbLine
  8
patterns
 62
3
370
-3
  6
CONTINUOUS
 10
175.0
 20
365.0
 30
0.0
 11
185.0
 21
365.0
 31
0.0
  0
LINE
  5
184
100
AcDbEntity
100
AcDbLine
  8
patterns
 62
3
370
-3
  6
CONTINUOUS
 10
185.0
 20
365.0
 30
0.0
 11
185.0
 21
355.0
 31
0.0
  0
LINE
  5
185
100
AcDbEntity
100
AcDbLine
  8
patterns
 62
3
370
-3
  6
CONTINUOUS
 10
185.0
 20
355.0
 30
0.0
 11
195.0
 21
355.0
 31
0.0
  0
LINE
  5
186
100
AcDbEntity
100
AcDbLine
  8
patterns
 62
3
370
-3
  6
CONTINUOUS
 10
195.0
 20
355.0
 30
0.0
 11
195.0
 21
345.0
 31
0.0
  0
LINE
  5
187
100
AcDbEntity
100
AcDbLine
  8
patterns
 62
3
370
-3
  6
CONTINUOUS
 10
195.0
 20
345.0
 30
0.0
 11
205.0
 21
345.0
 31
0.0
  0
LINE
  5
188
100
AcDbEntity
100
AcDbLine
  8
patterns
 62
3
370
-3
  6
CONTINUOUS
 10
205.0
 20
345.0
 30
0.0
 11
205.0
 21
335.0
 31
0.0
  0
LINE
  5
189
100
AcDbEntity
100
AcDbLine
  8
patterns
 62
3
370
-3
  6
CONTINUOUS
 10
205.0
 20
335.0
 30
0.0
 11
215.0
 21
335.0
 31
0.0
  0
LINE
  5
18A
100
AcDbEntity
100
AcDbLine
  8
patterns
 62
3
370
-3
  6
CONTINUOUS
 10
215.0
 20
335.0
 30
0.0
 11
215.0
 21
325.0
 31
0.0
  0
LINE
  5
18B
100
AcDbEntity
100
AcDbLine
  8
patterns
 62
3
370
-3
  6
CONTINUOUS
 10
215.0
 20
325.0
 30
0.0
 11
225.0
 21
325.0
 31
0.0
  0
LINE
  5
18C
100
AcDbEntity
100
AcDbLine
  8
patterns
 62
3
370
-3
  6
CONTINUOUS
 10
225.0
 20
325.0
 30
0.0
 11
225.0
 21
315.0
 31
0.0
  0
LINE
  5
18D
100
AcDbEntity
100
AcDbLine
  8
patterns
 62
3
370
-3
  6
CONTINUOUS
 10
225.0
 20
315.0
 30
0.0
 11
235.0
 21
315.0
 31
0.0
  0
LINE
  5
18E
100
AcDbEntity
100
AcDbLine
  8
patterns
 62
3
370
-3
  6
CONTINUOUS
 10
235.0
 20
315.0
 30
0.0
 11
235.0
 21
305.0
 31
0.0
  0
LINE
  5
18F
100
AcDbEntity
100
AcDbLine
  8
patterns
 62
3
370
-3
  6
CONTINUOUS
 10
175.0
 20
391.0
 30
0.0
 11
175.0
 21
395.0
 31
0.0
  0
LINE
  5
190
100
AcDbEntity
100
AcDbLine
  8
patterns
 62
3
370
-3
  6
CONTINUOUS
 10
175.0
 20
395.0
 30
0.0
 11
175.0
 21
385.0
 31
0.0
  0
LINE
  5
191
100
AcDbEntity
100
AcDbLine
  8
patterns
 62
3
370
-3
  6
CONTINUOUS
 10
175.0
 20
385.0
 30
0.0
 11
185.0
 21
385.0
 31
0.0
  0
LINE
  5
192
100
AcDbEntity
100
AcDbLine
  8
patterns
 62
3
370
-3
  6
CONTINUOUS
 10
185.0
 20
385.0
 30
0.0
 11
185.0
 21
375.0
 31
0.0
  0
LINE
  5
193
100
AcDbEntity
100
AcDbLine
  8
patterns
 62
3
370
-3
  6
CONTINUOUS
 10
185.0
 20
375.0
 30
0.0
 11
195.0
 21
375.0
 31
0.0
  0
LINE
  5
194
100
AcDbEntity
100
AcDbLine
  8
patterns
 62
3
370
-3
  6
CONTINUOUS
 10
195.0
 20
375.0
 30
0.0
 11
195.0
 21
365.0
 31
0.0
  0
LINE
  5
195
100
AcDbEntity
100
AcDbLine
  8
patterns
 62
3
370
-3
  6
CONTINUOUS
 10
195.0
 20
365.0
 30
0.0
 11
205.0
 21
365.0
 31
0.0
  0
LINE
  5
196
100
AcDbEntity
100
AcDbLine
  8
patterns
 62
3
370
-3
  6
CONTINUOUS
 10
205.0
 20
365.0
 30
0.0
 11
205.0
 21
355.0
 31
0.0
  0
LINE
  5
197
100
AcDbEntity
100
AcDbLine
  8
patterns
 62
3
370
-3
  6
CONTINUOUS
 10
205.0
 20
355.0
 30
0.0
 11
215.0
 21
355.0
 31
0.0
  0
LINE
  5
198
100
AcDbEntity
100
AcDbLine
  8
patterns
 62
3
370
-3
  6
CONTINUOUS
 10
215.0
 20
355.0
 30
0.0
 11
215.0
 21
345.0
 31
0.0
  0
LINE
  5
199
100
AcDbEntity
100
AcDbLine
  8
patterns
 62
3
370
-3
  6
CONTINUOUS
 10
215.0
 20
345.0
 30
0.0
 11
225.0
 21
345.0
 31
0.0
  0
LINE
  5
19A
100
AcDbEntity
100
AcDbLine
  8
patterns
 62
3
370
-3
  6
CONTINUOUS
 10
225.0
 20
345.0
 30
0.0
 11
225.0
 21
335.0
 31
0.0
  0
LINE
  5
19B
100
AcDbEntity
100
AcDbLine
  8
patterns
 62
3
370
-3
  6
CONTINUOUS
 10
225.0
 20
335.0
 30
0.0
 11
235.0
 21
335.0
 31
0.0
  0
LINE
  5
19C
100
AcDbEntity
100
AcDbLine
  8
patterns
 62
3
370
-3
  6
CONTINUOUS
 10
235.0
 20
335.0
 30
0.0
 11
235.0
 21
325.0
 31
0.0
  0
LINE
  5
19D
100
AcDbEntity
100
AcDbLine
  8
patterns
 62
3
370
-3
  6
CONTINUOUS
 10
235.0
 20
325.0
 30
0.0
 11
245.0
 21
325.0
 31
0.0
  0
LINE
  5
19E
100
AcDbEntity
100
AcDbLine
  8
patterns
 62
3
370
-3
  6
CONTINUOUS
 10
245.0
 20
325.0
 30
0.0
 11
245.0
 21
315.0
 31
0.0
  0
LINE
  5
19F
100
AcDbEntity
100
AcDbLine
  8
patterns
 62
3
370
-3
  6
CONTINUOUS
 10
245.0
 20
315.0
 30
0.0
 11
255.0
 21
315.0
 31
0.0
  0
LINE
  5
1A0
100
AcDbEntity
100
AcDbLine
  8
patterns
 62
3
370
-3
  6
CONTINUOUS
 10
255.0
 20
315.0
 30
0.0
 11
255.0
 21
305.0
 31
0.0
  0
LINE
  5
1A1
100
AcDbEntity
100
AcDbLine
  8
patterns
 62
3
370
-3
  6
CONTINUOUS
 10
145.0
 20
335.0
 30
0.0
 11
155.0
 21
335.0
 31
0.0
  0
LINE
  5
1A2
100
AcDbEntity
100
AcDbLine
  8
patterns
 62
3
370
-3
  6
CONTINUOUS
 10
155.0
 20
335.0
 30
0.0
 11
155.0
 21
325.0
 31
0.0
  0
LINE
  5
1A3
100
AcDbEntity
100
AcDbLine
  8
patterns
 62
3
370
-3
  6
CONTINUOUS
 10
155.0
 20
325.0
 30
0.0
 11
165.0
 21
325.0
 31
0.0
  0
LINE
  5
1A4
100
AcDbEntity
100
AcDbLine
  8
patterns
 62
3
370
-3
  6
CONTINUOUS
 10
165.0
 20
325.0
 30
0.0
 11
165.0
 21
315.0
 31
0.0
  0
LINE
  5
1A5
100
AcDbEntity
100
AcDbLine
  8
patterns
 62
3
370
-3
  6
CONTINUOUS
 10
165.0
 20
315.0
 30
0.0
 11
175.0
 21
315.0
 31
0.0
  0
LINE
  5
1A6
100
AcDbEntity
100
AcDbLine
  8
patterns
 62
3
370
-3
  6
CONTINUOUS
 10
175.0
 20
315.0
 30
0.0
 11
175.0
 21
305.0
 31
0.0
  0
LINE
  5
1A7
100
AcDbEntity
100
AcDbLine
  8
patterns
 62
3
370
-3
  6
CONTINUOUS
 10
215.0
 20
385.0
 30
0.0
 11
225.0
 21
385.0
 31
0.0
  0
LINE
  5
1A8
100
AcDbEntity
100
AcDbLine
  8
patterns
 62
3
370
-3
  6
CONTINUOUS
 10
225.0
 20
385.0
 30
0.0
 11
225.0
 21
375.0
 31
0.0
  0
LINE
  5
1A9
100
AcDbEntity
100
AcDbLine
  8
patterns
 62
3
370
-3
  6
CONTINUOUS
 10
225.0
 20
375.0
 30
0.0
 11
235.0
 21
375.0
 31
0.0
  0
LINE
  5
1AA
100
AcDbEntity
100
AcDbLine
  8
patterns
 62
3
370
-3
  6
CONTINUOUS
 10
235.0
 20
375.0
 30
0.0
 11
235.0
 21
365.0
 31
0.0
  0
LINE
  5
1AB
100
AcDbEntity
100
AcDbLine
  8
patterns
 62
3
370
-3
  6
CONTINUOUS
 10
235.0
 20
365.0
 30
0.0
 11
245.0
 21
365.0
 31
0.0
  0
LINE
  5
1AC
100
AcDbEntity
100
AcDbLine
  8
patterns
 62
3
370
-3
  6
CONTINUOUS
 10
245.0
 20
365.0
 30
0.0
 11
245.0
 21
355.0
 31
0.0
  0
LINE
  5
1AD
100
AcDbEntity
100
AcDbLine
  8
patterns
 62
3
370
-3
  6
CONTINUOUS
 10
245.0
 20
355.0
 30
0.0
 11
255.0
 21
355.0
 31
0.0
  0
LINE
  5
1AE
100
AcDbEntity
100
AcDbLine
  8
patterns
 62
3
370
-3
  6
CONTINUOUS
 10
255.0
 20
355.0
 30
0.0
 11
255.0
 21
345.0
 31
0.0
  0
LINE
  5
1AF
100
AcDbEntity
100
AcDbLine
  8
patterns
 62
3
370
-3
  6
CONTINUOUS
 10
255.0
 20
345.0
 30
0.0
 11
265.0
 21
345.0
 31
0.0
  0
LINE
  5
1B0
100
AcDbEntity
100
AcDbLine
  8
patterns
 62
3
370
-3
  6
CONTINUOUS
 10
265.0
 20
345.0
 30
0.0
 11
265.0
 21
335.0
 31
0.0
  0
LINE
  5
1B1
100
AcDbEntity
100
AcDbLine
  8
patterns
 62
3
370
-3
  6
CONTINUOUS
 10
265.0
 20
335.0
 30
0.0
 11
275.0
 21
335.0
 31
0.0
  0
LINE
  5
1B2
100
AcDbEntity
100
AcDbLine
  8
patterns
 62
3
370
-3
  6
CONTINUOUS
 10
215.0
 20
385.0
 30
0.0
 11
215.0
 21
395.0
 31
0.0
  0
LINE
  5
1B3
100
AcDbEntity
100
AcDbLine
  8
patterns
 62
3
370
-3
  6
CONTINUOUS
 10
235.0
 20
395.0
 30
0.0
 11
235.0
 21
385.0
 31
0.0
  0
LINE
  5
1B4
100
AcDbEntity
100
AcDbLine
  8
patterns
 62
3
370
-3
  6
CONTINUOUS
 10
235.0
 20
385.0
 30
0.0
 11
245.0
 21
385.0
 31
0.0
  0
LINE
  5
1B5
100
AcDbEntity
100
AcDbLine
  8
patterns
 62
3
370
-3
  6
CONTINUOUS
 10
245.0
 20
385.0
 30
0.0
 11
245.0
 21
375.0
 31
0.0
  0
LINE
  5
1B6
100
AcDbEntity
100
AcDbLine
  8
patterns
 62
3
370
-3
  6
CONTINUOUS
 10
245.0
 20
375.0
 30
0.0
 11
255.0
 21
375.0
 31
0.0
  0
LINE
  5
1B7
100
AcDbEntity
100
AcDbLine
  8
patterns
 62
3
370
-3
  6
CONTINUOUS
 10
255.0
 20
375.0
 30
0.0
 11
255.0
 21
365.0
 31
0.0
  0
LINE
  5
1B8
100
AcDbEntity
100
AcDbLine
  8
patterns
 62
3
370
-3
  6
CONTINUOUS
 10
255.0
 20
365.0
 30
0.0
 11
265.0
 21
365.0
 31
0.0
  0
LINE
  5
1B9
100
AcDbEntity
100
AcDbLine
  8
patterns
 62
3
370
-3
  6
CONTINUOUS
 10
265.0
 20
365.0
 30
0.0
 11
265.0
 21
355.0
 31
0.0
  0
LINE
  5
1BA
100
AcDbEntity
100
AcDbLine
  8
patterns
 62
3
370
-3
  6
CONTINUOUS
 10
265.0
 20
355.0
 30
0.0
 11
275.0
 21
355.0
 31
0.0
  0
LINE
  5
1BB
100
AcDbEntity
100
AcDbLine
  8
patterns
 62
3
370
-3
  6
CONTINUOUS
 10
145.0
 20
395.0
 30
0.0
 11
275.0
 21
395.0
 31
0.0
  0
LINE
  5
1BC
100
AcDbEntity
100
AcDbLine
  8
patterns
 62
3
370
-3
  6
CONTINUOUS
 10
275.0
 20
305.0
 30
0.0
 11
145.0
 21
305.0
 31
0.0
  0
LINE
  5
1BD
100
AcDbEntity
100
AcDbLine
  8
patterns
 62
3
370
-3
  6
CONTINUOUS
 10
275.0
 20
395.0
 30
0.0
 11
275.0
 21
305.0
 31
0.0
  0
LINE
  5
1BE
100
AcDbEntity
100
AcDbLine
  8
patterns
 62
3
370
-3
  6
CONTINUOUS
 10
150.0
 20
220.0
 30
0.0
 11
150.0
 21
216.0
 31
0.0
  0
LINE
  5
1BF
100
AcDbEntity
100
AcDbLine
  8
patterns
 62
3
370
-3
  6
CONTINUOUS
 10
150.0
 20
220.0
 30
0.0
 11
152.0
 21
220.0
 31
0.0
  0
LINE
  5
1C0
100
AcDbEntity
100
AcDbLine
  8
patterns
 62
3
370
-3
  6
CONTINUOUS
 10
152.0
 20
220.0
 30
0.0
 11
152.0
 21
216.0
 31
0.0
  0
LINE
  5
1C1
100
AcDbEntity
100
AcDbLine
  8
patterns
 62
3
370
-3
  6
CONTINUOUS
 10
153.0
 20
216.0
 30
0.0
 11
153.0
 21
220.0
 31
0.0
  0
LINE
  5
1C2
100
AcDbEntity
100
AcDbLine
  8
patterns
 62
3
370
-3
  6
CONTINUOUS
 10
153.0
 20
220.0
 30
0.0
 11
155.0
 21
220.0
 31
0.0
  0
LINE
  5
1C3
100
AcDbEntity
100
AcDbLine
  8
patterns
 62
3
370
-3
  6
CONTINUOUS
 10
155.0
 20
220.0
 30
0.0
 11
155.0
 21
216.0
 31
0.0
  0
LINE
  5
1C4
100
AcDbEntity
100
AcDbLine
  8
patterns
 62
3
370
-3
  6
CONTINUOUS
 10
153.0
 20
218.0
 30
0.0
 11
155.0
 21
218.0
 31
0.0
  0
LINE
  5
1C5
100
AcDbEntity
100
AcDbLine
  8
patterns
 62
3
370
-3
  6
CONTINUOUS
 10
156.0
 20
220.0
 30
0.0
 11
158.0
 21
220.0
 31
0.0
  0
LINE
  5
1C6
100
AcDbEntity
100
AcDbLine
  8
patterns
 62
3
370
-3
  6
CONTINUOUS
 10
157.0
 20
220.0
 30
0.0
 11
157.0
 21
216.0
 31
0.0
  0
LINE
  5
1C7
100
AcDbEntity
100
AcDbLine
  8
patterns
 62
3
370
-3
  6
CONTINUOUS
 10
159.0
 20
220.0
 30
0.0
 11
161.0
 21
220.0
 31
0.0
  0
LINE
  5
1C8
100
AcDbEntity
100
AcDbLine
  8
patterns
 62
3
370
-3
  6
CONTINUOUS
 10
160.0
 20
220.0
 30
0.0
 11
160.0
 21
216.0
 31
0.0
  0
LINE
  5
1C9
100
AcDbEntity
100
AcDbLine
  8
patterns
 62
3
370
-3
  6
CONTINUOUS
 10
151.0
 20
220.0
 30
0.0
 11
151.0
 21
216.0
 31
0.0
  0
LINE
  5
1CA
100
AcDbEntity
100
AcDbLine
  8
patterns
 62
3
370
-3
  6
CONTINUOUS
 10
150.0
 20
214.0
 30
0.0
 11
150.0
 21
211.0
 31
0.0
  0
LINE
  5
1CB
100
AcDbEntity
100
AcDbLine
  8
patterns
 62
3
370
-3
  6
CONTINUOUS
 10
150.0
 20
211.0
 30
0.0
 11
151.0
 21
210.0
 31
0.0
  0
LINE
  5
1CC
100
AcDbEntity
100
AcDbLine
  8
patterns
 62
3
370
-3
  6
CONTINUOUS
 10
151.0
 20
210.0
 30
0.0
 11
152.0
 21
211.0
 31
0.0
  0
LINE
  5
1CD
100
AcDbEntity
100
AcDbLine
  8
patterns
 62
3
370
-3
  6
CONTINUOUS
 10
152.0
 20
211.0
 30
0.0
 11
152.0
 21
214.0
 31
0.0
  0
LINE
  5
1CE
100
AcDbEntity
100
AcDbLine
  8
patterns
 62
3
370
-3
  6
CONTINUOUS
 10
155.0
 20
214.0
 30
0.0
 11
153.0
 21
214.0
 31
0.0
  0
LINE
  5
1CF
100
AcDbEntity
100
AcDbLine
  8
patterns
 62
3
370
-3
  6
CONTINUOUS
 10
153.0
 20
214.0
 30
0.0
 11
153.0
 21
210.0
 31
0.0
  0
LINE
  5
1D0
100
AcDbEntity
100
AcDbLine
  8
patterns
 62
3
370
-3
  6
CONTINUOUS
 10
153.0
 20
210.0
 30
0.0
 11
155.0
 21
210.0
 31
0.0
  0
LINE
  5
1D1
100
AcDbEntity
100
AcDbLine
  8
patterns
 62
3
370
-3
  6
CONTINUOUS
 10
155.0
 20
212.0
 30
0.0
 11
153.0
 21
212.0
 31
0.0
  0
LINE
  5
1D2
100
AcDbEntity
100
AcDbLine
  8
patterns
 62
3
370
-3
  6
CONTINUOUS
 10
156.0
 20
210.0
 30
0.0
 11
156.0
 21
214.0
 31
0.0
  0
LINE
  5
1D3
100
AcDbEntity
100
AcDbLine
  8
patterns
 62
3
370
-3
  6
CONTINUOUS
 10
156.0
 20
214.0
 30
0.0
 11
158.0
 21
212.0
 31
0.0
  0
LINE
  5
1D4
100
AcDbEntity
100
AcDbLine
  8
patterns
 62
3
370
-3
  6
CONTINUOUS
 10
158.0
 20
214.0
 30
0.0
 11
158.0
 21
210.0
 31
0.0
  0
LINE
  5
1D5
100
AcDbEntity
100
AcDbLine
  8
patterns
 62
3
370
-3
  6
CONTINUOUS
 10
159.0
 20
210.0
 30
0.0
 11
159.0
 21
214.0
 31
0.0
  0
LINE
  5
1D6
100
AcDbEntity
100
AcDbLine
  8
patterns
 62
3
370
-3
  6
CONTINUOUS
 10
159.0
 20
214.0
 30
0.0
 11
161.0
 21
212.0
 31
0.0
  0
LINE
  5
1D7
100
AcDbEntity
100
AcDbLine
  8
patterns
 62
3
370
-3
  6
CONTINUOUS
 10
161.0
 20
214.0
 30
0.0
 11
161.0
 21
210.0
 31
0.0
  0
LINE
  5
1D8
100
AcDbEntity
100
AcDbLine
  8
patterns
 62
3
370
-3
  6
CONTINUOUS
 10
162.0
 20
210.0
 30
0.0
 11
164.0
 21
210.0
 31
0.0
  0
LINE
  5
1D9
100
AcDbEntity
100
AcDbLine
  8
patterns
 62
3
370
-3
  6
CONTINUOUS
 10
165.0
 20
210.0
 30
0.0
 11
165.0
 21
214.0
 31
0.0
  0
LINE
  5
1DA
100
AcDbEntity
100
AcDbLine
  8
patterns
 62
3
370
-3
  6
CONTINUOUS
 10
165.0
 20
214.0
 30
0.0
 11
167.0
 21
212.0
 31
0.0
  0
LINE
  5
1DB
100
AcDbEntity
100
AcDbLine
  8
patterns
 62
3
370
-3
  6
CONTINUOUS
 10
167.0
 20
214.0
 30
0.0
 11
167.0
 21
210.0
 31
0.0
  0
LINE
  5
1DC
100
AcDbEntity
100
AcDbLine
  8
patterns
 62
3
370
-3
  6
CONTINUOUS
 10
170.0
 20
210.0
 30
0.0
 11
168.0
 21
210.0
 31
0.0
  0
LINE
  5
1DD
100
AcDbEntity
100
AcDbLine
  8
patterns
 62
3
370
-3
  6
CONTINUOUS
 10
168.0
 20
210.0
 30
0.0
 11
168.0
 21
214.0
 31
0.0
  0
LINE
  5
1DE
100
AcDbEntity
100
AcDbLine
  8
patterns
 62
3
370
-3
  6
CONTINUOUS
 10
168.0
 20
214.0
 30
0.0
 11
170.0
 21
214.0
 31
0.0
  0
LINE
  5
1DF
100
AcDbEntity
100
AcDbLine
  8
patterns
 62
3
370
-3
  6
CONTINUOUS
 10
168.0
 20
212.0
 30
0.0
 11
170.0
 21
212.0
 31
0.0
  0
LINE
  5
1E0
100
AcDbEntity
100
AcDbLine
  8
patterns
 62
3
370
-3
  6
CONTINUOUS
 10
171.0
 20
214.0
 30
0.0
 11
173.0
 21
214.0
 31
0.0
  0
LINE
  5
1E1
100
AcDbEntity
100
AcDbLine
  8
patterns
 62
3
370
-3
  6
CONTINUOUS
 10
172.0
 20
214.0
 30
0.0
 11
172.0
 21
210.0
 31
0.0
  0
LINE
  5
1E2
100
AcDbEntity
100
AcDbLine
  8
patterns
 62
3
370
-3
  6
ByLayer
 10
130.0
 20
200.0
 30
0.0
 11
130.0
 21
100.0
 31
0.0
  0
LINE
  5
1E3
100
AcDbEntity
100
AcDbLine
  8
patterns
 62
3
370
-3
  6
ByLayer
 10
155.0
 20
275.0
 30
0.0
 11
160.0
 21
280.0
 31
0.0
  0
LINE
  5
1E4
100
AcDbEntity
100
AcDbLine
  8
patterns
 62
3
370
-3
  6
ByLayer
 10
155.0
 20
280.0
 30
0.0
 11
160.0
 21
275.0
 31
0.0
  0
LINE
  5
1E5
100
AcDbEntity
100
AcDbLine
  8
cuts
 62
256
370
-1
  6
ByLayer
 10
12.0
 20
252.5510108842061641
 30
0.0
 11
18.0
 21
252.5510108842061641
 31
0.0
  0
LINE
  5
1E6
100
AcDbEntity
100
AcDbLine
  8
cuts
 62
256
370
-1
  6
ByLayer
 10
18.0
 20
252.5510108842061641
 30
0.0
 11
18.0
 21
265.5510108842061641
 31
0.0
  0
LINE
  5
1E7
100
AcDbEntity
100
AcDbLine
  8
cuts
 62
256
370
-1
  6
ByLayer
 10
12.0
 20
265.5510108842061641
 30
0.0
 11
12.0
 21
252.5510108842061641
 31
0.0
  0
LINE
  5
1E8
100
AcDbEntity
100
AcDbLine
  8
cuts
 62
256
370
-1
  6
ByLayer
 10
18.0
 20
265.5510108842061641
 30
0.0
 11
12.0
 21
265.5510108842061641
 31
0.0
  0
LINE
  5
1E9
100
AcDbEntity
100
AcDbLine
  8
cuts
 62
256
370
-1
  6
ByLayer
 10
128.0
 20
293.0
 30
0.0
 11
132.0
 21
293.0
 31
0.0
  0
LINE
  5
1EA
100
AcDbEntity
100
AcDbLine
  8
cuts
 62
256
370
-1
  6
ByLayer
 10
132.0
 20
293.0
 30
0.0
 11
132.0
 21
283.0
 31
0.0
  0
LINE
  5
1EB
100
AcDbEntity
100
AcDbLine
  8
cuts
 62
256
370
-1
  6
ByLayer
 10
132.0
 20
283.0
 30
0.0
 11
128.0
 21
283.0
 31
0.0
  0
LINE
  5
1EC
100
AcDbEntity
100
AcDbLine
  8
cuts
 62
256
370
-1
  6
ByLayer
 10
128.0
 20
283.0
 30
0.0
 11
128.0
 21
293.0
 31
0.0
  0
LINE
  5
1ED
100
AcDbEntity
100
AcDbLine
  8
cuts
 62
256
370
-1
  6
ByLayer
 10
128.0
 20
207.0
 30
0.0
 11
132.0
 21
207.0
 31
0.0
  0
LINE
  5
1EE
100
AcDbEntity
100
AcDbLine
  8
cuts
 62
256
370
-1
  6
ByLayer
 10
132.0
 20
207.0
 30
0.0
 11
132.0
 21
217.0
 31
0.0
  0
LINE
  5
1EF
100
AcDbEntity
100
AcDbLine
  8
cuts
 62
256
370
-1
  6
ByLayer
 10
132.0
 20
217.0
 30
0.0
 11
128.0
 21
217.0
 31
0.0
  0
LINE
  5
1F0
100
AcDbEntity
100
AcDbLine
  8
cuts
 62
256
370
-1
  6
ByLayer
 10
128.0
 20
217.0
 30
0.0
 11
128.0
 21
207.0
 31
0.0
  0
LINE
  5
1F1
100
AcDbEntity
100
AcDbLine
  8
patterns
 62
3
370
-3
  6
ByLayer
 10
150.0
 20
225.0
 30
0.0
 11
155.0
 21
230.0
 31
0.0
  0
LINE
  5
1F2
100
AcDbEntity
100
AcDbLine
  8
patterns
 62
3
370
-3
  6
ByLayer
 10
150.0
 20
230.0
 30
0.0
 11
155.0
 21
225.0
 31
0.0
  0
LWPOLYLINE
  5
1F3
  8
etch
 62
5
370
-1
  6
ByLayer
100
AcDbEntity
100
AcDbPolyline
 90
5
 70
0
 10
150.0
 20
123.0
 10
154.0
 20
123.0
 10
154.0
 20
119.0
 10
150.0
 20
119.0
 10
150.0
 20
123.0
  0
LWPOLYLINE
  5
1F4
  8
etch
 62
5
370
-1
  6
ByLayer
100
AcDbEntity
100
AcDbPolyline
 90
5
 70
0
 10
15.0
 20
80.0
 10
15.0
 20
70.0
 10
20.0
 20
70.0
 10
20.0
 20
80.0
 10
15.0
 20
80.0
  0
LWPOLYLINE
  5
1F5
  8
etch
 62
5
370
-1
  6
ByLayer
100
AcDbEntity
100
AcDbPolyline
 90
5
 70
0
 10
13.0
 20
19.0
 10
13.0
 20
42.0
 10
17.0
 20
42.0
 10
17.0
 20
19.0
 10
13.0
 20
19.0
  0
LWPOLYLINE
  5
1F6
  8
etch
 62
5
370
-1
  6
ByLayer
100
AcDbEntity
100
AcDbPolyline
 90
5
 70
0
 10
31.0
 20
19.0
 10
31.0
 20
42.0
 10
35.0
 20
42.0
 10
35.0
 20
19.0
 10
31.0
 20
19.0
  0
LWPOLYLINE
  5
1F7
  8
etch
 62
5
370
-1
  6
ByLayer
100
AcDbEntity
100
AcDbPolyline
 90
9
 70
0
 10
150.0
 20
190.0
 10
180.0
 20
190.0
 10
180.0
 20
125.0
 10
150.0
 20
125.0
 10
150.0
 20
145.0
 10
165.0
 20
145.0
 10
165.0
 20
165.0
 10
150.0
 20
165.0
 10
150.0
 20
190.0
  0
ENDSEC
  0
SECTION
  2
OBJECTS
  0
DICTIONARY
  5
C
100
AcDbDictionary
280
0
281
1
  3
ACAD_GROUP
350
D
  3
ACAD_LAYOUT
350
1A
  3
ACAD_MLINESTYLE
350
17
  3
ACAD_PLOTSETTINGS
350
19
  3
ACAD_PLOTSTYLENAME
350
E
  3
AcDbVariableDictionary
350
1F8
  0
DICTIONARY
  5
D
100
AcDbDictionary
280
0
281
1
  0
ACDBDICTIONARYWDFLT
  5
E
100
AcDbDictionary
281
1
  3
Normal
350
F
100
AcDbDictionaryWithDefault
340
F
  0
ACDBPLACEHOLDER
  5
F
  0
DICTIONARY
  5
17
100
AcDbDictionary
280
0
281
1
  3
Standard
350
18
  0
MLINESTYLE
  5
18
100
AcDbMlineStyle
  2
STANDARD
 70
0
  3

 62
256
 51
90.0
 52
90.0
 71
2
 49
0.5
 62
256
  6
BYLAYER
 49
-0.5
 62
256
  6
BYLAYER
  0
DICTIONARY
  5
19
100
AcDbDictionary
280
0
281
1
  0
DICTIONARY
  5
1A
100
AcDbDictionary
281
1
  3
Layout1
350
1E
  3
Layout2
350
26
  3
Model
350
22
  0
LAYOUT
  5
1E
100
AcDbPlotSettings
  1

  2
C:\Program Files\AutoCAD 2002\plotters\DWF ePlot (optimized for plotting).pc3
  4

  6

 40
0.0
 41
0.0
 42
0.0
 43
0.0
 44
0.0
 45
0.0
 46
0.0
 47
0.0
 48
0.0
 49
0.0
140
0.0
141
0.0
142
1.0
143
1.0
 70
688
 72
0
 73
0
 74
5
  7

 75
16
147
1.0
148
0.0
149
0.0
100
AcDbLayout
  1
Layout1
 70
1
 71
1
 10
0.0
 20
0.0
 11
420.0
 21
297.0
 12
0.0
 22
0.0
 32
0.0
 14
100000000000000000000.0
 24
100000000000000000000.0
 34
100000000000000000000.0
 15
-100000000000000000000.0
 25
-100000000000000000000.0
 35
-100000000000000000000.0
146
0.0
 13
0.0
 23
0.0
 33
0.0
 16
1.0
 26
0.0
 36
0.0
 17
0.0
 27
1.0
 37
0.0
 76
0
330
1B
  0
LAYOUT
  5
22
100
AcDbPlotSettings
  1

  2
C:\Program Files\AutoCAD 2002\plotters\DWF ePlot (optimized for plotting).pc3
  4

  6

 40
0.0
 41
0.0
 42
0.0
 43
0.0
 44
0.0
 45
0.0
 46
0.0
 47
0.0
 48
0.0
 49
0.0
140
0.0
141
0.0
142
1.0
143
1.0
 70
1712
 72
0
 73
0
 74
0
  7

 75
0
147
1.0
148
0.0
149
0.0
100
AcDbLayout
  1
Model
 70
1
 71
0
 10
0.0
 20
0.0
 11
12.0
 21
9.0
 12
0.0
 22
0.0
 32
0.0
 14
0.0
 24
0.0
 34
0.0
 15
0.0
 25
0.0
 35
0.0
146
0.0
 13
0.0
 23
0.0
 33
0.0
 16
1.0
 26
0.0
 36
0.0
 17
0.0
 27
1.0
 37
0.0
 76
0
330
1F
  0
LAYOUT
  5
26
100
AcDbPlotSettings
  1

  2
C:\Program Files\AutoCAD 2002\plotters\DWF ePlot (optimized for plotting).pc3
  4

  6

 40
0.0
 41
0.0
 42
0.0
 43
0.0
 44
0.0
 45
0.0
 46
0.0
 47
0.0
 48
0.0
 49
0.0
140
0.0
141
0.0
142
1.0
143
1.0
 70
688
 72
0
 73
0
 74
5
  7

 75
16
147
1.0
148
0.0
149
0.0
100
AcDbLayout
  1
Layout2
 70
1
 71
2
 10
0.0
 20
0.0
 11
12.0
 21
9.0
 12
0.0
 22
0.0
 32
0.0
 14
0.0
 24
0.0
 34
0.0
 15
0.0
 25
0.0
 35
0.0
146
0.0
 13
0.0
 23
0.0
 33
0.0
 16
1.0
 26
0.0
 36
0.0
 17
0.0
 27
1.0
 37
0.0
 76
0
330
23
  0
DICTIONARY
  5
1F8
100
AcDbDictionary
281
1
  3
DIMASSOC
350
1FA
  3
HIDETEXT
350
1F9
  0
DICTIONARYVAR
  5
1F9
100
DictionaryVariables
280
0
  1
2
  0
DICTIONARYVAR
  5
1FA
100
DictionaryVariables
280
0
  1
1
  0
ENDSEC
  0
EOF
