  0
SECTION
  2
HEADER
  9
$ACADVER
  1
AC1024
  9
$ACADMAINTVER
 70
     6
  9
$DWGCODEPAGE
  3
ASCII
  9
$INSBASE
 10
0.0
 20
0.0
 30
0.0
  9
$EXTMIN
 10
1.000000000000000E+20
 20
1.000000000000000E+20
 30
1.000000000000000E+20
  9
$EXTMAX
 10
-1.000000000000000E+20
 20
-1.000000000000000E+20
 30
-1.000000000000000E+20
  9
$LIMMIN
 10
0.0
 20
0.0
  9
$LIMMAX
 10
12.0
 20
9.0
  9
$ORTHOMODE
 70
     0
  9
$REGENMODE
 70
     1
  9
$FILLMODE
 70
     1
  9
$QTEXTMODE
 70
     0
  9
$MIRRTEXT
 70
     1
  9
$LTSCALE
 40
1.0
  9
$ATTMODE
 70
     1
  9
$TEXTSIZE
 40
2.5
  9
$TRACEWID
 40
0.05
  9
$TEXTSTYLE
  7
Standard
  9
$CLAYER
  8
0
  9
$CELTYPE
  6
ByLayer
  9
$CECOLOR
 62
   178
  9
$CELTSCALE
 40
1.0
  9
$DISPSILH
 70
     0
  9
$DIMSCALE
 40
1.0
  9
$DIMASZ
 40
2.5
  9
$DIMEXO
 40
0.625
  9
$DIMDLI
 40
0.38
  9
$DIMRND
 40
0.0
  9
$DIMDLE
 40
0.0
  9
$DIMEXE
 40
1.25
  9
$DIMTP
 40
0.0
  9
$DIMTM
 40
0.0
  9
$DIMTXT
 40
2.5
  9
$DIMCEN
 40
0.09
  9
$DIMTSZ
 40
0.0
  9
$DIMTOL
 70
     0
  9
$DIMLIM
 70
     0
  9
$DIMTIH
 70
     1
  9
$DIMTOH
 70
     1
  9
$DIMSE1
 70
     0
  9
$DIMSE2
 70
     0
  9
$DIMTAD
 70
     0
  9
$DIMZIN
 70
     8
  9
$DIMBLK
  1

  9
$DIMASO
 70
     1
  9
$DIMSHO
 70
     1
  9
$DIMPOST
  1

  9
$DIMAPOST
  1

  9
$DIMALT
 70
     0
  9
$DIMALTD
 70
     2
  9
$DIMALTF
 40
25.4
  9
$DIMLFAC
 40
1.0
  9
$DIMTOFL
 70
     0
  9
$DIMTVP
 40
0.0
  9
$DIMTIX
 70
     0
  9
$DIMSOXD
 70
     0
  9
$DIMSAH
 70
     0
  9
$DIMBLK1
  1

  9
$DIMBLK2
  1

  9
$DIMSTYLE
  2
Standard
  9
$DIMCLRD
 70
   178
  9
$DIMCLRE
 70
   178
  9
$DIMCLRT
 70
   178
  9
$DIMTFAC
 40
1.0
  9
$DIMGAP
 40
0.625
  9
$DIMJUST
 70
     0
  9
$DIMSD1
 70
     0
  9
$DIMSD2
 70
     0
  9
$DIMTOLJ
 70
     1
  9
$DIMTZIN
 70
     0
  9
$DIMALTZ
 70
     0
  9
$DIMALTTZ
 70
     0
  9
$DIMUPT
 70
     0
  9
$DIMDEC
 70
     4
  9
$DIMTDEC
 70
     4
  9
$DIMALTU
 70
     2
  9
$DIMALTTD
 70
     2
  9
$DIMTXSTY
  7
Standard
  9
$DIMAUNIT
 70
     0
  9
$DIMADEC
 70
     2
  9
$DIMALTRND
 40
0.0
  9
$DIMAZIN
 70
     3
  9
$DIMDSEP
 70
    46
  9
$DIMATFIT
 70
     3
  9
$DIMFRAC
 70
     0
  9
$DIMLDRBLK
  1

  9
$DIMLUNIT
 70
     2
  9
$DIMLWD
 70
    -2
  9
$DIMLWE
 70
    -2
  9
$DIMTMOVE
 70
     0
  9
$DIMFXL
 40
1.0
  9
$DIMFXLON
 70
     0
  9
$DIMJOGANG
 40
0.7853981633974483
  9
$DIMTFILL
 70
     0
  9
$DIMTFILLCLR
 70
     0
  9
$DIMARCSYM
 70
     0
  9
$DIMLTYPE
  6

  9
$DIMLTEX1
  6

  9
$DIMLTEX2
  6

  9
$DIMTXTDIRECTION
 70
     0
  9
$LUNITS
 70
     2
  9
$LUPREC
 70
     4
  9
$SKETCHINC
 40
0.1
  9
$FILLETRAD
 40
0.5
  9
$AUNITS
 70
     0
  9
$AUPREC
 70
     2
  9
$MENU
  1
.
  9
$ELEVATION
 40
0.0
  9
$PELEVATION
 40
0.0
  9
$THICKNESS
 40
0.0
  9
$LIMCHECK
 70
     0
  9
$CHAMFERA
 40
0.5
  9
$CHAMFERB
 40
0.5
  9
$CHAMFERC
 40
1.0
  9
$CHAMFERD
 40
0.0
  9
$SKPOLY
 70
     0
  9
$TDCREATE
 40
2456589.946620359
  9
$TDUCREATE
 40
2456589.94662037
  9
$TDUPDATE
 40
2456589.946620359
  9
$TDUUPDATE
 40
2456589.94662037
  9
$TDINDWG
 40
0.0000000116
  9
$TDUSRTIMER
 40
0.0000000116
  9
$USRTIMER
 70
     1
  9
$ANGBASE
 50
0.0
  9
$ANGDIR
 70
     0
  9
$PDMODE
 70
     0
  9
$PDSIZE
 40
0.0
  9
$PLINEWID
 40
0.0
  9
$SPLFRAME
 70
     0
  9
$SPLINETYPE
 70
     6
  9
$SPLINESEGS
 70
     8
  9
$HANDSEED
  5
253
  9
$SURFTAB1
 70
     6
  9
$SURFTAB2
 70
     6
  9
$SURFTYPE
 70
     6
  9
$SURFU
 70
     6
  9
$SURFV
 70
     6
  9
$UCSBASE
  2

  9
$UCSNAME
  2

  9
$UCSORG
 10
0.0
 20
0.0
 30
0.0
  9
$UCSXDIR
 10
1.0
 20
0.0
 30
0.0
  9
$UCSYDIR
 10
0.0
 20
1.0
 30
0.0
  9
$UCSORTHOREF
  2

  9
$UCSORTHOVIEW
 70
     0
  9
$UCSORGTOP
 10
0.0
 20
0.0
 30
0.0
  9
$UCSORGBOTTOM
 10
0.0
 20
0.0
 30
0.0
  9
$UCSORGLEFT
 10
0.0
 20
0.0
 30
0.0
  9
$UCSORGRIGHT
 10
0.0
 20
0.0
 30
0.0
  9
$UCSORGFRONT
 10
0.0
 20
0.0
 30
0.0
  9
$UCSORGBACK
 10
0.0
 20
0.0
 30
0.0
  9
$PUCSBASE
  2

  9
$PUCSNAME
  2

  9
$PUCSORG
 10
0.0
 20
0.0
 30
0.0
  9
$PUCSXDIR
 10
1.0
 20
0.0
 30
0.0
  9
$PUCSYDIR
 10
0.0
 20
1.0
 30
0.0
  9
$PUCSORTHOREF
  2

  9
$PUCSORTHOVIEW
 70
     0
  9
$PUCSORGTOP
 10
0.0
 20
0.0
 30
0.0
  9
$PUCSORGBOTTOM
 10
0.0
 20
0.0
 30
0.0
  9
$PUCSORGLEFT
 10
0.0
 20
0.0
 30
0.0
  9
$PUCSORGRIGHT
 10
0.0
 20
0.0
 30
0.0
  9
$PUCSORGFRONT
 10
0.0
 20
0.0
 30
0.0
  9
$PUCSORGBACK
 10
0.0
 20
0.0
 30
0.0
  9
$USERI1
 70
     0
  9
$USERI2
 70
     0
  9
$USERI3
 70
     0
  9
$USERI4
 70
     0
  9
$USERI5
 70
     0
  9
$USERR1
 40
0.0
  9
$USERR2
 40
0.0
  9
$USERR3
 40
0.0
  9
$USERR4
 40
0.0
  9
$USERR5
 40
0.0
  9
$WORLDVIEW
 70
     1
  9
$SHADEDGE
 70
     3
  9
$SHADEDIF
 70
    70
  9
$TILEMODE
 70
     1
  9
$MAXACTVP
 70
    64
  9
$PINSBASE
 10
0.0
 20
0.0
 30
0.0
  9
$PLIMCHECK
 70
     0
  9
$PEXTMIN
 10
1.000000000000000E+20
 20
1.000000000000000E+20
 30
1.000000000000000E+20
  9
$PEXTMAX
 10
-1.000000000000000E+20
 20
-1.000000000000000E+20
 30
-1.000000000000000E+20
  9
$PLIMMIN
 10
0.0
 20
0.0
  9
$PLIMMAX
 10
210.0
 20
297.0
  9
$UNITMODE
 70
     0
  9
$VISRETAIN
 70
     1
  9
$PLINEGEN
 70
     0
  9
$PSLTSCALE
 70
     1
  9
$TREEDEPTH
 70
  3020
  9
$CMLSTYLE
  2
Standard
  9
$CMLJUST
 70
     0
  9
$CMLSCALE
 40
1.0
  9
$PROXYGRAPHICS
 70
     1
  9
$MEASUREMENT
 70
     1
  9
$CELWEIGHT
370
    -1
  9
$ENDCAPS
280
     0
  9
$JOINSTYLE
280
     0
  9
$LWDISPLAY
290
     0
  9
$INSUNITS
 70
     4
  9
$HYPERLINKBASE
  1

  9
$STYLESHEET
  1

  9
$XEDIT
290
     1
  9
$CEPSNTYPE
380
     0
  9
$PSTYLEMODE
290
     1
  9
$FINGERPRINTGUID
  2
{2CA2B2CF-16A4-C3CB-C07D-74D77ECD2DC4}
  9
$VERSIONGUID
  2
{FAEB1C32-E019-11D5-929B-00C0DF256EC4}
  9
$EXTNAMES
290
     1
  9
$PSVPSCALE
 40
0.0
  9
$OLESTARTUP
290
     0
  9
$SORTENTS
280
   127
  9
$INDEXCTL
280
     0
  9
$HIDETEXT
280
     1
  9
$XCLIPFRAME
280
     2
  9
$HALOGAP
280
     0
  9
$OBSCOLOR
 70
   257
  9
$OBSLTYPE
280
     0
  9
$INTERSECTIONDISPLAY
280
     0
  9
$INTERSECTIONCOLOR
 70
   257
  9
$DIMASSOC
280
     2
  9
$PROJECTNAME
  1

  9
$CAMERADISPLAY
290
     0
  9
$LENSLENGTH
 40
50.0
  9
$CAMERAHEIGHT
 40
0.0
  9
$STEPSPERSEC
 40
2.0
  9
$STEPSIZE
 40
6.0
  9
$3DDWFPREC
 40
2.0
  9
$PSOLWIDTH
 40
0.25
  9
$PSOLHEIGHT
 40
4.0
  9
$LOFTANG1
 40
1.570796326794897
  9
$LOFTANG2
 40
1.570796326794897
  9
$LOFTMAG1
 40
0.0
  9
$LOFTMAG2
 40
0.0
  9
$LOFTPARAM
 70
     7
  9
$LOFTNORMALS
280
     1
  9
$LATITUDE
 40
37.795
  9
$LONGITUDE
 40
-122.394
  9
$NORTHDIRECTION
 40
0.0
  9
$TIMEZONE
 70
 -8000
  9
$LIGHTGLYPHDISPLAY
280
     1
  9
$TILEMODELIGHTSYNCH
280
     1
  9
$SOLIDHIST
280
     1
  9
$SHOWHIST
280
     1
  9
$DWFFRAME
280
     2
  9
$DGNFRAME
280
     2
  9
$REALWORLDSCALE
290
     1
  9
$INTERFERECOLOR
 62
   256
  9
$CSHADOW
280
     0
  9
$SHADOWPLANELOCATION
 40
0.0
  0
ENDSEC
  0
SECTION
  2
CLASSES
  0
CLASS
  1
ACDBDICTIONARYWDFLT
  2
AcDbDictionaryWithDefault
  3
ObjectDBX Classes
 90
        0
 91
        4
280
     0
281
     0
  0
CLASS
  1
VISUALSTYLE
  2
AcDbVisualStyle
  3
ObjectDBX Classes
 90
     4095
 91
        4
280
     0
281
     0
  0
CLASS
  1
MATERIAL
  2
AcDbMaterial
  3
ObjectDBX Classes
 90
     1153
 91
        4
280
     0
281
     0
  0
ENDSEC
  0
SECTION
  2
TABLES
  0
TABLE
  2
VPORT
  5
1EF
330
0
100
AcDbSymbolTable
 70
     1
  0
VPORT
  5
20F
330
1EF
100
AcDbSymbolTableRecord
100
AcDbViewportTableRecord
  2
*Active
 70
     0
 10
0.0
 20
0.0
 11
1.0
 21
1.0
 12
10.42990654205607
 22
4.5
 13
0.0
 23
0.0
 14
0.5
 24
0.5
 15
0.5
 25
0.5
 16
0.0
 26
0.0
 36
1.0
 17
0.0
 27
0.0
 37
0.0
 40
9.0
 41
1.972972972850329
 42
50.0
 43
0.0
 44
0.0
 50
0.0
 51
0.0
 71
     0
 72
   100
 73
     1
 74
     3
 75
     0
 76
     0
 77
     0
 78
     0
281
     0
 65
     1
110
0.0
120
0.0
130
0.0
111
1.0
121
0.0
131
0.0
112
0.0
122
1.0
132
0.0
 79
     0
146
0.0
 60
     3
 61
     5
292
     1
282
     1
141
0.0
142
0.0
 63
   250
  0
ENDTAB
  0
TABLE
  2
LTYPE
  5
1EC
330
0
100
AcDbSymbolTable
 70
    19
  0
LTYPE
  5
1FA
330
1EC
100
AcDbSymbolTableRecord
100
AcDbLinetypeTableRecord
  2
ByBlock
 70
     0
  3

 72
    65
 73
     0
 40
0.0
  0
LTYPE
  5
1FB
330
1EC
100
AcDbSymbolTableRecord
100
AcDbLinetypeTableRecord
  2
ByLayer
 70
     0
  3

 72
    65
 73
     0
 40
0.0
  0
LTYPE
  5
1FC
330
1EC
100
AcDbSymbolTableRecord
100
AcDbLinetypeTableRecord
  2
Continuous
 70
     0
  3
Solid line
 72
    65
 73
     0
 40
0.0
  0
LTYPE
  5
23C
330
1EC
100
AcDbSymbolTableRecord
100
AcDbLinetypeTableRecord
  2
BORDER
 70
     0
  3

 72
    65
 73
     6
 40
42.0
 49
12.0
 74
     0
 49
-6.0
 74
     0
 49
12.0
 74
     0
 49
-5.95
 74
     0
 49
0.1
 74
     0
 49
-5.95
 74
     0
  0
LTYPE
  5
23D
330
1EC
100
AcDbSymbolTableRecord
100
AcDbLinetypeTableRecord
  2
BORDER2
 70
     0
  3

 72
    65
 73
     6
 40
21.0
 49
6.0
 74
     0
 49
-3.0
 74
     0
 49
6.0
 74
     0
 49
-2.95
 74
     0
 49
0.1
 74
     0
 49
-2.95
 74
     0
  0
LTYPE
  5
23E
330
1EC
100
AcDbSymbolTableRecord
100
AcDbLinetypeTableRecord
  2
BORDERX2
 70
     0
  3

 72
    65
 73
     6
 40
84.0
 49
24.0
 74
     0
 49
-12.0
 74
     0
 49
24.0
 74
     0
 49
-11.95
 74
     0
 49
0.1
 74
     0
 49
-11.95
 74
     0
  0
LTYPE
  5
23F
330
1EC
100
AcDbSymbolTableRecord
100
AcDbLinetypeTableRecord
  2
CENTER
 70
     0
  3

 72
    65
 73
     4
 40
50.0
 49
32.0
 74
     0
 49
-6.0
 74
     0
 49
6.0
 74
     0
 49
-6.0
 74
     0
  0
LTYPE
  5
240
330
1EC
100
AcDbSymbolTableRecord
100
AcDbLinetypeTableRecord
  2
CENTER2
 70
     0
  3

 72
    65
 73
     4
 40
25.0
 49
16.0
 74
     0
 49
-3.0
 74
     0
 49
3.0
 74
     0
 49
-3.0
 74
     0
  0
LTYPE
  5
241
330
1EC
100
AcDbSymbolTableRecord
100
AcDbLinetypeTableRecord
  2
CENTERX2
 70
     0
  3

 72
    65
 73
     4
 40
100.0
 49
64.0
 74
     0
 49
-12.0
 74
     0
 49
12.0
 74
     0
 49
-12.0
 74
     0
  0
LTYPE
  5
242
330
1EC
100
AcDbSymbolTableRecord
100
AcDbLinetypeTableRecord
  2
DASHDOT
 70
     0
  3

 72
    65
 73
     4
 40
24.0
 49
12.0
 74
     0
 49
-5.95
 74
     0
 49
0.1
 74
     0
 49
-5.95
 74
     0
  0
LTYPE
  5
243
330
1EC
100
AcDbSymbolTableRecord
100
AcDbLinetypeTableRecord
  2
DASHDOT2
 70
     0
  3

 72
    65
 73
     4
 40
12.0
 49
6.0
 74
     0
 49
-2.95
 74
     0
 49
0.1
 74
     0
 49
-2.95
 74
     0
  0
LTYPE
  5
244
330
1EC
100
AcDbSymbolTableRecord
100
AcDbLinetypeTableRecord
  2
DASHDOTX2
 70
     0
  3

 72
    65
 73
     4
 40
48.0
 49
24.0
 74
     0
 49
-11.95
 74
     0
 49
0.1
 74
     0
 49
-11.95
 74
     0
  0
LTYPE
  5
245
330
1EC
100
AcDbSymbolTableRecord
100
AcDbLinetypeTableRecord
  2
DASHED
 70
     0
  3

 72
    65
 73
     2
 40
18.0
 49
12.0
 74
     0
 49
-6.0
 74
     0
  0
LTYPE
  5
246
330
1EC
100
AcDbSymbolTableRecord
100
AcDbLinetypeTableRecord
  2
DASHED2
 70
     0
  3

 72
    65
 73
     2
 40
9.0
 49
6.0
 74
     0
 49
-3.0
 74
     0
  0
LTYPE
  5
247
330
1EC
100
AcDbSymbolTableRecord
100
AcDbLinetypeTableRecord
  2
DASHEDX2
 70
     0
  3

 72
    65
 73
     2
 40
36.0
 49
24.0
 74
     0
 49
-12.0
 74
     0
  0
LTYPE
  5
248
330
1EC
100
AcDbSymbolTableRecord
100
AcDbLinetypeTableRecord
  2
DIVIDE
 70
     0
  3

 72
    65
 73
     6
 40
30.0
 49
12.0
 74
     0
 49
-5.9
 74
     0
 49
0.15
 74
     0
 49
-5.9
 74
     0
 49
0.15
 74
     0
 49
-5.9
 74
     0
  0
LTYPE
  5
249
330
1EC
100
AcDbSymbolTableRecord
100
AcDbLinetypeTableRecord
  2
DIVIDE2
 70
     0
  3

 72
    65
 73
     6
 40
15.0
 49
6.0
 74
     0
 49
-2.9
 74
     0
 49
0.15
 74
     0
 49
-2.9
 74
     0
 49
0.15
 74
     0
 49
-2.9
 74
     0
  0
LTYPE
  5
24A
330
1EC
100
AcDbSymbolTableRecord
100
AcDbLinetypeTableRecord
  2
DIVIDEX2
 70
     0
  3

 72
    65
 73
     6
 40
60.0
 49
24.0
 74
     0
 49
-11.9
 74
     0
 49
0.15
 74
     0
 49
-11.9
 74
     0
 49
0.15
 74
     0
 49
-11.9
 74
     0
  0
LTYPE
  5
24B
330
1EC
100
AcDbSymbolTableRecord
100
AcDbLinetypeTableRecord
  2
DOT
 70
     0
  3

 72
    65
 73
     2
 40
6.3
 49
0.1
 74
     0
 49
-6.2
 74
     0
  0
LTYPE
  5
24C
330
1EC
100
AcDbSymbolTableRecord
100
AcDbLinetypeTableRecord
  2
DOT2
 70
     0
  3

 72
    65
 73
     2
 40
3.2
 49
0.1
 74
     0
 49
-3.1
 74
     0
  0
LTYPE
  5
24D
330
1EC
100
AcDbSymbolTableRecord
100
AcDbLinetypeTableRecord
  2
DOTX2
 70
     0
  3

 72
    65
 73
     2
 40
12.5
 49
0.1
 74
     0
 49
-12.4
 74
     0
  0
ENDTAB
  0
TABLE
  2
LAYER
  5
1E9
330
0
100
AcDbSymbolTable
 70
     4
  0
LAYER
  5
1F7
330
1E9
100
AcDbSymbolTableRecord
100
AcDbLayerTableRecord
  2
0
 70
     0
 62
     7
420
 16777215
  6
Continuous
370
     0
390
1F6
347
224
  0
LAYER
  5
24E
330
1E9
100
AcDbSymbolTableRecord
100
AcDbLayerTableRecord
  2
cuts
 70
     0
 62
     7
420
 16777215
  6
Continuous
370
     0
390
1F6
347
224
  0
LAYER
  5
24F
330
1E9
100
AcDbSymbolTableRecord
100
AcDbLayerTableRecord
  2
patterns
 70
     0
 62
     3
420
    65280
  6
Continuous
370
     0
390
1F6
347
224
  0
LAYER
  5
250
330
1E9
100
AcDbSymbolTableRecord
100
AcDbLayerTableRecord
  2
etch
 70
     0
 62
     5
420
      255
  6
Continuous
370
     5
390
1F6
347
224
  0
ENDTAB
  0
TABLE
  2
STYLE
  5
1EA
330
0
100
AcDbSymbolTable
 70
     1
  0
STYLE
  5
1F8
330
1EA
100
AcDbSymbolTableRecord
100
AcDbTextStyleTableRecord
  2
Standard
 70
     0
 40
0.0
 41
1.0
 50
0.0
 71
     0
 42
2.5
  3
txt
  4

  0
ENDTAB
  0
TABLE
  2
VIEW
  5
1ED
330
0
100
AcDbSymbolTable
 70
     0
  0
ENDTAB
  0
TABLE
  2
UCS
  5
1EE
330
0
100
AcDbSymbolTable
 70
     0
  0
ENDTAB
  0
TABLE
  2
APPID
  5
1F0
330
0
100
AcDbSymbolTable
 70
     2
  0
APPID
  5
1F9
330
1F0
100
AcDbSymbolTableRecord
100
AcDbRegAppTableRecord
  2
ACAD
 70
     0
  0
APPID
  5
225
330
1F0
100
AcDbSymbolTableRecord
100
AcDbRegAppTableRecord
  2
QCAD
 70
     0
  0
ENDTAB
  0
TABLE
  2
DIMSTYLE
  5
1F1
330
0
100
AcDbSymbolTable
 70
     2
100
AcDbDimStyleTable
  0
DIMSTYLE
105
20D
330
1F1
100
AcDbSymbolTableRecord
100
AcDbDimStyleTableRecord
  2
Standard
 70
     0
178
     0
340
1F8
  0
DIMSTYLE
105
23B
330
1F1
100
AcDbSymbolTableRecord
100
AcDbDimStyleTableRecord
  2
QCADDimStyle
 70
     0
 41
2.5
 42
0.625
 44
1.25
 73
     0
 77
     1
140
2.5
147
0.625
178
     0
340
1F8
  0
ENDTAB
  0
TABLE
  2
BLOCK_RECORD
  5
1E8
330
0
100
AcDbSymbolTable
 70
     1
  0
BLOCK_RECORD
  5
205
330
1E8
100
AcDbSymbolTableRecord
100
AcDbBlockTableRecord
  2
*Model_Space
340
208
 70
     0
280
     1
281
     0
  0
BLOCK_RECORD
  5
201
330
1E8
100
AcDbSymbolTableRecord
100
AcDbBlockTableRecord
  2
*Paper_Space
340
204
 70
     0
280
     1
281
     0
  0
BLOCK_RECORD
  5
209
330
1E8
100
AcDbSymbolTableRecord
100
AcDbBlockTableRecord
  2
*Paper_Space0
340
20C
 70
     0
280
     1
281
     0
  0
ENDTAB
  0
ENDSEC
  0
SECTION
  2
BLOCKS
  0
BLOCK
  5
206
330
205
100
AcDbEntity
  8
0
100
AcDbBlockBegin
  2
*Model_Space
 70
     0
 10
0.0
 20
0.0
 30
0.0
  3
*Model_Space
  1

  0
ENDBLK
  5
207
330
205
100
AcDbEntity
  8
0
100
AcDbBlockEnd
  0
BLOCK
  5
202
330
201
100
AcDbEntity
 67
     1
  8
0
100
AcDbBlockBegin
  2
*Paper_Space
 70
     0
 10
0.0
 20
0.0
 30
0.0
  3
*Paper_Space
  1

  0
ENDBLK
  5
203
330
201
100
AcDbEntity
 67
     1
  8
0
100
AcDbBlockEnd
  0
BLOCK
  5
20A
330
209
100
AcDbEntity
  8
0
100
AcDbBlockBegin
  2
*Paper_Space0
 70
     0
 10
0.0
 20
0.0
 30
0.0
  3
*Paper_Space0
  1

  0
ENDBLK
  5
20B
330
209
100
AcDbEntity
  8
0
100
AcDbBlockEnd
  0
ENDSEC
  0
SECTION
  2
ENTITIES
  0
LWPOLYLINE
  5
46
330
205
100
AcDbEntity
  8
etch
 62
     3
420
    65280
100
AcDbPolyline
 90
        3
 70
     0
 43
0.0
 10
54.0
 20
7.0
 10
54.0
 20
4.0
 10
50.0
 20
4.0
  0
LWPOLYLINE
  5
47
330
205
100
AcDbEntity
  8
etch
 62
     3
420
    65280
100
AcDbPolyline
 90
        6
 70
     0
 43
0.0
 10
54.0
 20
109.0
 10
54.0
 20
112.0
 10
52.0
 20
112.0
 10
52.0
 20
109.0
 10
50.0
 20
109.0
 10
50.0
 20
112.0
  0
LINE
  5
48
330
205
100
AcDbEntity
  8
patterns
 62
     3
420
    65280
370
    -3
100
AcDbLine
 10
15.0
 20
180.0
 30
0.0
 11
20.0
 21
185.0
 31
0.0
  0
LINE
  5
49
330
205
100
AcDbEntity
  8
patterns
 62
     3
420
    65280
370
    -3
100
AcDbLine
 10
15.0
 20
185.0
 30
0.0
 11
20.0
 21
180.0
 31
0.0
  0
CIRCLE
  5
4A
330
205
100
AcDbEntity
  8
patterns
 62
     3
420
    65280
100
AcDbCircle
 10
12.5
 20
117.5
 30
0.0
 40
2.5
  0
LWPOLYLINE
  5
4B
330
205
100
AcDbEntity
  8
etch
 62
     3
420
    65280
100
AcDbPolyline
 90
        4
 70
     0
 43
0.0
 10
54.0
 20
217.0
 10
54.0
 20
214.0
 10
50.0
 20
214.0
 10
50.0
 20
217.0
  0
LWPOLYLINE
  5
4C
330
205
100
AcDbEntity
  8
etch
 62
     3
420
    65280
100
AcDbPolyline
 90
        2
 70
     0
 43
0.0
 10
52.0
 20
217.0
 10
52.0
 20
214.0
  0
LINE
  5
4D
330
205
100
AcDbEntity
  8
patterns
  6
Continuous
 62
     3
420
    65280
370
    -3
100
AcDbLine
 10
5.0
 20
320.0
 30
0.0
 11
5.0
 21
410.0
 31
0.0
  0
LINE
  5
4E
330
205
100
AcDbEntity
  8
patterns
  6
Continuous
 62
     3
420
    65280
370
    -3
100
AcDbLine
 10
15.0
 20
406.0
 30
0.0
 11
15.0
 21
410.0
 31
0.0
  0
LINE
  5
4F
330
205
100
AcDbEntity
  8
patterns
  6
Continuous
 62
     3
420
    65280
370
    -3
100
AcDbLine
 10
15.0
 20
410.0
 30
0.0
 11
15.0
 21
400.0
 31
0.0
  0
LINE
  5
50
330
205
100
AcDbEntity
  8
patterns
  6
Continuous
 62
     3
420
    65280
370
    -3
100
AcDbLine
 10
15.0
 20
400.0
 30
0.0
 11
25.0
 21
400.0
 31
0.0
  0
LINE
  5
51
330
205
100
AcDbEntity
  8
patterns
  6
Continuous
 62
     3
420
    65280
370
    -3
100
AcDbLine
 10
25.0
 20
400.0
 30
0.0
 11
25.0
 21
390.0
 31
0.0
  0
LINE
  5
52
330
205
100
AcDbEntity
  8
patterns
  6
Continuous
 62
     3
420
    65280
370
    -3
100
AcDbLine
 10
25.0
 20
390.0
 30
0.0
 11
35.0
 21
390.0
 31
0.0
  0
LINE
  5
53
330
205
100
AcDbEntity
  8
patterns
  6
Continuous
 62
     3
420
    65280
370
    -3
100
AcDbLine
 10
35.0
 20
390.0
 30
0.0
 11
35.0
 21
380.0
 31
0.0
  0
LINE
  5
54
330
205
100
AcDbEntity
  8
patterns
  6
Continuous
 62
     3
420
    65280
370
    -3
100
AcDbLine
 10
35.0
 20
380.0
 30
0.0
 11
45.0
 21
380.0
 31
0.0
  0
LINE
  5
55
330
205
100
AcDbEntity
  8
patterns
  6
Continuous
 62
     3
420
    65280
370
    -3
100
AcDbLine
 10
45.0
 20
380.0
 30
0.0
 11
45.0
 21
370.0
 31
0.0
  0
LINE
  5
56
330
205
100
AcDbEntity
  8
patterns
  6
Continuous
 62
     3
420
    65280
370
    -3
100
AcDbLine
 10
45.0
 20
370.0
 30
0.0
 11
55.0
 21
370.0
 31
0.0
  0
LINE
  5
57
330
205
100
AcDbEntity
  8
patterns
  6
Continuous
 62
     3
420
    65280
370
    -3
100
AcDbLine
 10
55.0
 20
370.0
 30
0.0
 11
55.0
 21
360.0
 31
0.0
  0
LINE
  5
58
330
205
100
AcDbEntity
  8
patterns
  6
Continuous
 62
     3
420
    65280
370
    -3
100
AcDbLine
 10
55.0
 20
360.0
 30
0.0
 11
65.0
 21
360.0
 31
0.0
  0
LINE
  5
59
330
205
100
AcDbEntity
  8
patterns
  6
Continuous
 62
     3
420
    65280
370
    -3
100
AcDbLine
 10
65.0
 20
360.0
 30
0.0
 11
65.0
 21
350.0
 31
0.0
  0
LINE
  5
5A
330
205
100
AcDbEntity
  8
patterns
  6
Continuous
 62
     3
420
    65280
370
    -3
100
AcDbLine
 10
65.0
 20
350.0
 30
0.0
 11
75.0
 21
350.0
 31
0.0
  0
LINE
  5
5B
330
205
100
AcDbEntity
  8
patterns
  6
Continuous
 62
     3
420
    65280
370
    -3
100
AcDbLine
 10
75.0
 20
350.0
 30
0.0
 11
75.0
 21
340.0
 31
0.0
  0
LINE
  5
5C
330
205
100
AcDbEntity
  8
patterns
  6
Continuous
 62
     3
420
    65280
370
    -3
100
AcDbLine
 10
75.0
 20
340.0
 30
0.0
 11
85.0
 21
340.0
 31
0.0
  0
LINE
  5
5D
330
205
100
AcDbEntity
  8
patterns
  6
Continuous
 62
     3
420
    65280
370
    -3
100
AcDbLine
 10
85.0
 20
340.0
 30
0.0
 11
85.0
 21
330.0
 31
0.0
  0
LINE
  5
5E
330
205
100
AcDbEntity
  8
patterns
  6
Continuous
 62
     3
420
    65280
370
    -3
100
AcDbLine
 10
85.0
 20
330.0
 30
0.0
 11
95.0
 21
330.0
 31
0.0
  0
LINE
  5
5F
330
205
100
AcDbEntity
  8
patterns
  6
Continuous
 62
     3
420
    65280
370
    -3
100
AcDbLine
 10
95.0
 20
330.0
 30
0.0
 11
95.0
 21
320.0
 31
0.0
  0
LINE
  5
60
330
205
100
AcDbEntity
  8
patterns
  6
Continuous
 62
     3
420
    65280
370
    -3
100
AcDbLine
 10
35.0
 20
406.0
 30
0.0
 11
35.0
 21
410.0
 31
0.0
  0
LINE
  5
61
330
205
100
AcDbEntity
  8
patterns
  6
Continuous
 62
     3
420
    65280
370
    -3
100
AcDbLine
 10
35.0
 20
410.0
 30
0.0
 11
35.0
 21
400.0
 31
0.0
  0
LINE
  5
62
330
205
100
AcDbEntity
  8
patterns
  6
Continuous
 62
     3
420
    65280
370
    -3
100
AcDbLine
 10
35.0
 20
400.0
 30
0.0
 11
45.0
 21
400.0
 31
0.0
  0
LINE
  5
63
330
205
100
AcDbEntity
  8
patterns
  6
Continuous
 62
     3
420
    65280
370
    -3
100
AcDbLine
 10
45.0
 20
400.0
 30
0.0
 11
45.0
 21
390.0
 31
0.0
  0
LINE
  5
64
330
205
100
AcDbEntity
  8
patterns
  6
Continuous
 62
     3
420
    65280
370
    -3
100
AcDbLine
 10
45.0
 20
390.0
 30
0.0
 11
55.0
 21
390.0
 31
0.0
  0
LINE
  5
65
330
205
100
AcDbEntity
  8
patterns
  6
Continuous
 62
     3
420
    65280
370
    -3
100
AcDbLine
 10
55.0
 20
390.0
 30
0.0
 11
55.0
 21
380.0
 31
0.0
  0
LINE
  5
66
330
205
100
AcDbEntity
  8
patterns
  6
Continuous
 62
     3
420
    65280
370
    -3
100
AcDbLine
 10
55.0
 20
380.0
 30
0.0
 11
65.0
 21
380.0
 31
0.0
  0
LINE
  5
67
330
205
100
AcDbEntity
  8
patterns
  6
Continuous
 62
     3
420
    65280
370
    -3
100
AcDbLine
 10
65.0
 20
380.0
 30
0.0
 11
65.0
 21
370.0
 31
0.0
  0
LINE
  5
68
330
205
100
AcDbEntity
  8
patterns
  6
Continuous
 62
     3
420
    65280
370
    -3
100
AcDbLine
 10
65.0
 20
370.0
 30
0.0
 11
75.0
 21
370.0
 31
0.0
  0
LINE
  5
69
330
205
100
AcDbEntity
  8
patterns
  6
Continuous
 62
     3
420
    65280
370
    -3
100
AcDbLine
 10
75.0
 20
370.0
 30
0.0
 11
75.0
 21
360.0
 31
0.0
  0
LINE
  5
6A
330
205
100
AcDbEntity
  8
patterns
  6
Continuous
 62
     3
420
    65280
370
    -3
100
AcDbLine
 10
75.0
 20
360.0
 30
0.0
 11
85.0
 21
360.0
 31
0.0
  0
LINE
  5
6B
330
205
100
AcDbEntity
  8
patterns
  6
Continuous
 62
     3
420
    65280
370
    -3
100
AcDbLine
 10
85.0
 20
360.0
 30
0.0
 11
85.0
 21
350.0
 31
0.0
  0
LINE
  5
6C
330
205
100
AcDbEntity
  8
patterns
  6
Continuous
 62
     3
420
    65280
370
    -3
100
AcDbLine
 10
85.0
 20
350.0
 30
0.0
 11
95.0
 21
350.0
 31
0.0
  0
LINE
  5
6D
330
205
100
AcDbEntity
  8
patterns
  6
Continuous
 62
     3
420
    65280
370
    -3
100
AcDbLine
 10
95.0
 20
350.0
 30
0.0
 11
95.0
 21
340.0
 31
0.0
  0
LINE
  5
6E
330
205
100
AcDbEntity
  8
patterns
  6
Continuous
 62
     3
420
    65280
370
    -3
100
AcDbLine
 10
95.0
 20
340.0
 30
0.0
 11
105.0
 21
340.0
 31
0.0
  0
LINE
  5
6F
330
205
100
AcDbEntity
  8
patterns
  6
Continuous
 62
     3
420
    65280
370
    -3
100
AcDbLine
 10
105.0
 20
340.0
 30
0.0
 11
105.0
 21
330.0
 31
0.0
  0
LINE
  5
70
330
205
100
AcDbEntity
  8
patterns
  6
Continuous
 62
     3
420
    65280
370
    -3
100
AcDbLine
 10
105.0
 20
330.0
 30
0.0
 11
115.0
 21
330.0
 31
0.0
  0
LINE
  5
71
330
205
100
AcDbEntity
  8
patterns
  6
Continuous
 62
     3
420
    65280
370
    -3
100
AcDbLine
 10
115.0
 20
330.0
 30
0.0
 11
115.0
 21
320.0
 31
0.0
  0
LINE
  5
72
330
205
100
AcDbEntity
  8
patterns
  6
Continuous
 62
     3
420
    65280
370
    -3
100
AcDbLine
 10
5.0
 20
390.0
 30
0.0
 11
15.0
 21
390.0
 31
0.0
  0
LINE
  5
73
330
205
100
AcDbEntity
  8
patterns
  6
Continuous
 62
     3
420
    65280
370
    -3
100
AcDbLine
 10
15.0
 20
390.0
 30
0.0
 11
15.0
 21
380.0
 31
0.0
  0
LINE
  5
74
330
205
100
AcDbEntity
  8
patterns
  6
Continuous
 62
     3
420
    65280
370
    -3
100
AcDbLine
 10
15.0
 20
380.0
 30
0.0
 11
25.0
 21
380.0
 31
0.0
  0
LINE
  5
75
330
205
100
AcDbEntity
  8
patterns
  6
Continuous
 62
     3
420
    65280
370
    -3
100
AcDbLine
 10
25.0
 20
380.0
 30
0.0
 11
25.0
 21
370.0
 31
0.0
  0
LINE
  5
76
330
205
100
AcDbEntity
  8
patterns
  6
Continuous
 62
     3
420
    65280
370
    -3
100
AcDbLine
 10
25.0
 20
370.0
 30
0.0
 11
35.0
 21
370.0
 31
0.0
  0
LINE
  5
77
330
205
100
AcDbEntity
  8
patterns
  6
Continuous
 62
     3
420
    65280
370
    -3
100
AcDbLine
 10
35.0
 20
370.0
 30
0.0
 11
35.0
 21
360.0
 31
0.0
  0
LINE
  5
78
330
205
100
AcDbEntity
  8
patterns
  6
Continuous
 62
     3
420
    65280
370
    -3
100
AcDbLine
 10
35.0
 20
360.0
 30
0.0
 11
45.0
 21
360.0
 31
0.0
  0
LINE
  5
79
330
205
100
AcDbEntity
  8
patterns
  6
Continuous
 62
     3
420
    65280
370
    -3
100
AcDbLine
 10
45.0
 20
360.0
 30
0.0
 11
45.0
 21
350.0
 31
0.0
  0
LINE
  5
7A
330
205
100
AcDbEntity
  8
patterns
  6
Continuous
 62
     3
420
    65280
370
    -3
100
AcDbLine
 10
45.0
 20
350.0
 30
0.0
 11
55.0
 21
350.0
 31
0.0
  0
LINE
  5
7B
330
205
100
AcDbEntity
  8
patterns
  6
Continuous
 62
     3
420
    65280
370
    -3
100
AcDbLine
 10
55.0
 20
350.0
 30
0.0
 11
55.0
 21
340.0
 31
0.0
  0
LINE
  5
7C
330
205
100
AcDbEntity
  8
patterns
  6
Continuous
 62
     3
420
    65280
370
    -3
100
AcDbLine
 10
55.0
 20
340.0
 30
0.0
 11
65.0
 21
340.0
 31
0.0
  0
LINE
  5
7D
330
205
100
AcDbEntity
  8
patterns
  6
Continuous
 62
     3
420
    65280
370
    -3
100
AcDbLine
 10
65.0
 20
340.0
 30
0.0
 11
65.0
 21
330.0
 31
0.0
  0
LINE
  5
7E
330
205
100
AcDbEntity
  8
patterns
  6
Continuous
 62
     3
420
    65280
370
    -3
100
AcDbLine
 10
65.0
 20
330.0
 30
0.0
 11
75.0
 21
330.0
 31
0.0
  0
LINE
  5
7F
330
205
100
AcDbEntity
  8
patterns
  6
Continuous
 62
     3
420
    65280
370
    -3
100
AcDbLine
 10
75.0
 20
330.0
 30
0.0
 11
75.0
 21
320.0
 31
0.0
  0
LINE
  5
80
330
205
100
AcDbEntity
  8
patterns
  6
Continuous
 62
     3
420
    65280
370
    -3
100
AcDbLine
 10
5.0
 20
370.0
 30
0.0
 11
15.0
 21
370.0
 31
0.0
  0
LINE
  5
81
330
205
100
AcDbEntity
  8
patterns
  6
Continuous
 62
     3
420
    65280
370
    -3
100
AcDbLine
 10
15.0
 20
370.0
 30
0.0
 11
15.0
 21
360.0
 31
0.0
  0
LINE
  5
82
330
205
100
AcDbEntity
  8
patterns
  6
Continuous
 62
     3
420
    65280
370
    -3
100
AcDbLine
 10
15.0
 20
360.0
 30
0.0
 11
25.0
 21
360.0
 31
0.0
  0
LINE
  5
83
330
205
100
AcDbEntity
  8
patterns
  6
Continuous
 62
     3
420
    65280
370
    -3
100
AcDbLine
 10
25.0
 20
360.0
 30
0.0
 11
25.0
 21
350.0
 31
0.0
  0
LINE
  5
84
330
205
100
AcDbEntity
  8
patterns
  6
Continuous
 62
     3
420
    65280
370
    -3
100
AcDbLine
 10
25.0
 20
350.0
 30
0.0
 11
35.0
 21
350.0
 31
0.0
  0
LINE
  5
85
330
205
100
AcDbEntity
  8
patterns
  6
Continuous
 62
     3
420
    65280
370
    -3
100
AcDbLine
 10
35.0
 20
350.0
 30
0.0
 11
35.0
 21
340.0
 31
0.0
  0
LINE
  5
86
330
205
100
AcDbEntity
  8
patterns
  6
Continuous
 62
     3
420
    65280
370
    -3
100
AcDbLine
 10
35.0
 20
340.0
 30
0.0
 11
45.0
 21
340.0
 31
0.0
  0
LINE
  5
87
330
205
100
AcDbEntity
  8
patterns
  6
Continuous
 62
     3
420
    65280
370
    -3
100
AcDbLine
 10
45.0
 20
340.0
 30
0.0
 11
45.0
 21
330.0
 31
0.0
  0
LINE
  5
88
330
205
100
AcDbEntity
  8
patterns
  6
Continuous
 62
     3
420
    65280
370
    -3
100
AcDbLine
 10
45.0
 20
330.0
 30
0.0
 11
55.0
 21
330.0
 31
0.0
  0
LINE
  5
89
330
205
100
AcDbEntity
  8
patterns
  6
Continuous
 62
     3
420
    65280
370
    -3
100
AcDbLine
 10
55.0
 20
330.0
 30
0.0
 11
55.0
 21
320.0
 31
0.0
  0
LINE
  5
8A
330
205
100
AcDbEntity
  8
patterns
  6
Continuous
 62
     3
420
    65280
370
    -3
100
AcDbLine
 10
95.0
 20
410.0
 30
0.0
 11
95.0
 21
400.0
 31
0.0
  0
LINE
  5
8B
330
205
100
AcDbEntity
  8
patterns
  6
Continuous
 62
     3
420
    65280
370
    -3
100
AcDbLine
 10
95.0
 20
400.0
 30
0.0
 11
105.0
 21
400.0
 31
0.0
  0
LINE
  5
8C
330
205
100
AcDbEntity
  8
patterns
  6
Continuous
 62
     3
420
    65280
370
    -3
100
AcDbLine
 10
105.0
 20
400.0
 30
0.0
 11
105.0
 21
390.0
 31
0.0
  0
LINE
  5
8D
330
205
100
AcDbEntity
  8
patterns
  6
Continuous
 62
     3
420
    65280
370
    -3
100
AcDbLine
 10
105.0
 20
390.0
 30
0.0
 11
115.0
 21
390.0
 31
0.0
  0
LINE
  5
8E
330
205
100
AcDbEntity
  8
patterns
  6
Continuous
 62
     3
420
    65280
370
    -3
100
AcDbLine
 10
115.0
 20
390.0
 30
0.0
 11
115.0
 21
380.0
 31
0.0
  0
LINE
  5
8F
330
205
100
AcDbEntity
  8
patterns
  6
Continuous
 62
     3
420
    65280
370
    -3
100
AcDbLine
 10
115.0
 20
380.0
 30
0.0
 11
125.0
 21
380.0
 31
0.0
  0
LINE
  5
90
330
205
100
AcDbEntity
  8
patterns
  6
Continuous
 62
     3
420
    65280
370
    -3
100
AcDbLine
 10
125.0
 20
380.0
 30
0.0
 11
125.0
 21
370.0
 31
0.0
  0
LINE
  5
91
330
205
100
AcDbEntity
  8
patterns
  6
Continuous
 62
     3
420
    65280
370
    -3
100
AcDbLine
 10
125.0
 20
370.0
 30
0.0
 11
135.0
 21
370.0
 31
0.0
  0
LINE
  5
92
330
205
100
AcDbEntity
  8
patterns
  6
Continuous
 62
     3
420
    65280
370
    -3
100
AcDbLine
 10
5.0
 20
410.0
 30
0.0
 11
135.0
 21
410.0
 31
0.0
  0
LINE
  5
93
330
205
100
AcDbEntity
  8
patterns
  6
Continuous
 62
     3
420
    65280
370
    -3
100
AcDbLine
 10
135.0
 20
320.0
 30
0.0
 11
5.0
 21
320.0
 31
0.0
  0
LINE
  5
94
330
205
100
AcDbEntity
  8
patterns
  6
Continuous
 62
     3
420
    65280
370
    -3
100
AcDbLine
 10
135.0
 20
410.0
 30
0.0
 11
135.0
 21
320.0
 31
0.0
  0
LWPOLYLINE
  5
95
330
205
100
AcDbEntity
  8
etch
 62
     5
420
      255
100
AcDbPolyline
 90
        5
 70
     0
 43
0.0
 10
160.0
 20
80.0
 10
160.0
 20
70.0
 10
165.0
 20
70.0
 10
165.0
 20
80.0
 10
160.0
 20
80.0
  0
LWPOLYLINE
  5
96
330
205
100
AcDbEntity
  8
etch
 62
     5
420
      255
100
AcDbPolyline
 90
        5
 70
     0
 43
0.0
 10
158.0
 20
19.0
 10
158.0
 20
42.0
 10
162.0
 20
42.0
 10
162.0
 20
19.0
 10
158.0
 20
19.0
  0
LWPOLYLINE
  5
97
330
205
100
AcDbEntity
  8
etch
 62
     5
420
      255
100
AcDbPolyline
 90
        5
 70
     0
 43
0.0
 10
176.0
 20
19.0
 10
176.0
 20
42.0
 10
180.0
 20
42.0
 10
180.0
 20
19.0
 10
176.0
 20
19.0
  0
LWPOLYLINE
  5
98
330
205
100
AcDbEntity
  8
etch
 62
     3
420
    65280
100
AcDbPolyline
 90
        6
 70
     0
 43
0.0
 10
199.0
 20
7.0
 10
199.0
 20
4.0
 10
197.0
 20
4.0
 10
197.0
 20
7.0
 10
195.0
 20
7.0
 10
195.0
 20
4.0
  0
LWPOLYLINE
  5
99
330
205
100
AcDbEntity
  8
etch
 62
     5
420
      255
100
AcDbPolyline
 90
        9
 70
     0
 43
0.0
 10
155.0
 20
195.0
 10
185.0
 20
195.0
 10
185.0
 20
115.0
 10
155.0
 20
115.0
 10
155.0
 20
150.0
 10
170.0
 20
150.0
 10
170.0
 20
170.0
 10
155.0
 20
170.0
 10
155.0
 20
195.0
  0
LWPOLYLINE
  5
9A
330
205
100
AcDbEntity
  8
etch
 62
     5
420
      255
100
AcDbPolyline
 90
        5
 70
     0
 43
0.0
 10
155.0
 20
113.0
 10
159.0
 20
113.0
 10
159.0
 20
109.0
 10
155.0
 20
109.0
 10
155.0
 20
113.0
  0
LWPOLYLINE
  5
9B
330
205
100
AcDbEntity
  8
etch
 62
     5
420
      255
100
AcDbPolyline
 90
        5
 70
     0
 43
0.0
 10
153.0
 20
115.0
 10
153.0
 20
119.0
 10
149.0
 20
119.0
 10
149.0
 20
115.0
 10
153.0
 20
115.0
  0
LWPOLYLINE
  5
9C
330
205
100
AcDbEntity
  8
etch
 62
     3
420
    65280
100
AcDbPolyline
 90
        3
 70
     0
 43
0.0
 10
199.0
 20
112.0
 10
197.0
 20
112.0
 10
197.0
 20
109.0
  0
LWPOLYLINE
  5
9D
330
205
100
AcDbEntity
  8
etch
 62
     3
420
    65280
100
AcDbPolyline
 90
        2
 70
     0
 43
0.0
 10
199.0
 20
109.0
 10
195.0
 20
109.0
  0
LINE
  5
9E
330
205
100
AcDbEntity
  8
patterns
 62
     3
420
    65280
370
    -3
100
AcDbLine
 10
160.0
 20
285.0
 30
0.0
 11
165.0
 21
290.0
 31
0.0
  0
LINE
  5
9F
330
205
100
AcDbEntity
  8
patterns
 62
     3
420
    65280
370
    -3
100
AcDbLine
 10
160.0
 20
290.0
 30
0.0
 11
165.0
 21
285.0
 31
0.0
  0
LINE
  5
A0
330
205
100
AcDbEntity
  8
patterns
 62
     3
420
    65280
100
AcDbLine
 10
188.0
 20
306.0
 30
0.0
 11
192.0
 21
306.0
 31
0.0
  0
LINE
  5
A1
330
205
100
AcDbEntity
  8
patterns
 62
     3
420
    65280
100
AcDbLine
 10
192.0
 20
306.0
 30
0.0
 11
192.0
 21
303.0
 31
0.0
  0
LINE
  5
A2
330
205
100
AcDbEntity
  8
patterns
 62
     3
420
    65280
100
AcDbLine
 10
188.0
 20
298.0
 30
0.0
 11
188.0
 21
295.0
 31
0.0
  0
LINE
  5
A3
330
205
100
AcDbEntity
  8
patterns
 62
     3
420
    65280
100
AcDbLine
 10
188.0
 20
294.0
 30
0.0
 11
188.0
 21
291.0
 31
0.0
  0
LINE
  5
A4
330
205
100
AcDbEntity
  8
patterns
 62
     3
420
    65280
100
AcDbLine
 10
188.0
 20
286.0
 30
0.0
 11
188.0
 21
283.0
 31
0.0
  0
LINE
  5
A5
330
205
100
AcDbEntity
  8
patterns
 62
     3
420
    65280
100
AcDbLine
 10
188.0
 20
282.0
 30
0.0
 11
188.0
 21
279.0
 31
0.0
  0
LINE
  5
A6
330
205
100
AcDbEntity
  8
patterns
 62
     3
420
    65280
100
AcDbLine
 10
188.0
 20
278.0
 30
0.0
 11
188.0
 21
275.0
 31
0.0
  0
LINE
  5
A7
330
205
100
AcDbEntity
  8
patterns
 62
     3
420
    65280
100
AcDbLine
 10
188.0
 20
274.0
 30
0.0
 11
188.0
 21
271.0
 31
0.0
  0
LINE
  5
A8
330
205
100
AcDbEntity
  8
patterns
 62
     3
420
    65280
100
AcDbLine
 10
187.9999999999999
 20
266.0
 30
0.0
 11
187.9999999999999
 21
263.0
 31
0.0
  0
LINE
  5
A9
330
205
100
AcDbEntity
  8
patterns
 62
     3
420
    65280
100
AcDbLine
 10
188.0
 20
259.0
 30
0.0
 11
188.0
 21
262.0
 31
0.0
  0
LINE
  5
AA
330
205
100
AcDbEntity
  8
patterns
 62
     3
420
    65280
100
AcDbLine
 10
187.9999999999999
 20
254.0
 30
0.0
 11
188.0
 21
253.0
 31
0.0
  0
LINE
  5
AB
330
205
100
AcDbEntity
  8
patterns
 62
     3
420
    65280
100
AcDbLine
 10
188.0000000000001
 20
252.0
 30
0.0
 11
188.0000000000001
 21
249.0
 31
0.0
  0
LINE
  5
AC
330
205
100
AcDbEntity
  8
patterns
 62
     3
420
    65280
100
AcDbLine
 10
188.0
 20
245.0
 30
0.0
 11
188.0
 21
248.0
 31
0.0
  0
LINE
  5
AD
330
205
100
AcDbEntity
  8
patterns
 62
     3
420
    65280
100
AcDbLine
 10
188.0
 20
244.0
 30
0.0
 11
188.0
 21
243.0
 31
0.0
  0
LINE
  5
AE
330
205
100
AcDbEntity
  8
patterns
 62
     3
420
    65280
100
AcDbLine
 10
187.9999999999999
 20
242.0
 30
0.0
 11
188.0000000000001
 21
239.0
 31
0.0
  0
LINE
  5
AF
330
205
100
AcDbEntity
  8
patterns
 62
     3
420
    65280
100
AcDbLine
 10
188.0
 20
270.0
 30
0.0
 11
188.0
 21
267.0
 31
0.0
  0
LINE
  5
B0
330
205
100
AcDbEntity
  8
patterns
 62
     3
420
    65280
100
AcDbLine
 10
189.5
 20
263.5
 30
0.0
 11
189.5
 21
263.5
 31
0.0
  0
LINE
  5
B1
330
205
100
AcDbEntity
  8
patterns
 62
     3
420
    65280
100
AcDbLine
 10
192.0
 20
303.0
 30
0.0
 11
188.0
 21
303.0
 31
0.0
  0
LINE
  5
B2
330
205
100
AcDbEntity
  8
patterns
 62
     3
420
    65280
100
AcDbLine
 10
188.0
 20
302.0
 30
0.0
 11
192.0
 21
302.0
 31
0.0
  0
LINE
  5
B3
330
205
100
AcDbEntity
  8
patterns
 62
     3
420
    65280
100
AcDbLine
 10
192.0
 20
302.0
 30
0.0
 11
192.0
 21
299.0
 31
0.0
  0
LINE
  5
B4
330
205
100
AcDbEntity
  8
patterns
 62
     3
420
    65280
100
AcDbLine
 10
192.0
 20
299.0
 30
0.0
 11
188.0
 21
299.0
 31
0.0
  0
LINE
  5
B5
330
205
100
AcDbEntity
  8
patterns
 62
     3
420
    65280
100
AcDbLine
 10
192.0
 20
298.0
 30
0.0
 11
192.0
 21
295.0
 31
0.0
  0
LINE
  5
B6
330
205
100
AcDbEntity
  8
patterns
 62
     3
420
    65280
100
AcDbLine
 10
192.0
 20
295.0
 30
0.0
 11
188.0
 21
298.0
 31
0.0
  0
LINE
  5
B7
330
205
100
AcDbEntity
  8
patterns
 62
     3
420
    65280
100
AcDbLine
 10
192.0
 20
291.0
 30
0.0
 11
192.0
 21
294.0
 31
0.0
  0
LINE
  5
B8
330
205
100
AcDbEntity
  8
patterns
 62
     3
420
    65280
100
AcDbLine
 10
192.0
 20
294.0
 30
0.0
 11
188.0
 21
294.0
 31
0.0
  0
LINE
  5
B9
330
205
100
AcDbEntity
  8
patterns
 62
     3
420
    65280
100
AcDbLine
 10
188.0
 20
290.0
 30
0.0
 11
192.0
 21
290.0
 31
0.0
  0
LINE
  5
BA
330
205
100
AcDbEntity
  8
patterns
 62
     3
420
    65280
100
AcDbLine
 10
192.0
 20
290.0
 30
0.0
 11
192.0
 21
287.0
 31
0.0
  0
LINE
  5
BB
330
205
100
AcDbEntity
  8
patterns
 62
     3
420
    65280
100
AcDbLine
 10
192.0
 20
286.0
 30
0.0
 11
188.0
 21
286.0
 31
0.0
  0
LINE
  5
BC
330
205
100
AcDbEntity
  8
patterns
 62
     3
420
    65280
100
AcDbLine
 10
188.0
 20
283.0
 30
0.0
 11
192.0
 21
283.0
 31
0.0
  0
LINE
  5
BD
330
205
100
AcDbEntity
  8
patterns
 62
     3
420
    65280
100
AcDbLine
 10
192.0
 20
282.0
 30
0.0
 11
192.0
 21
279.0
 31
0.0
  0
LINE
  5
BE
330
205
100
AcDbEntity
  8
patterns
 62
     3
420
    65280
100
AcDbLine
 10
192.0
 20
279.0
 30
0.0
 11
188.0
 21
282.0
 31
0.0
  0
LINE
  5
BF
330
205
100
AcDbEntity
  8
patterns
 62
     3
420
    65280
100
AcDbLine
 10
192.0
 20
278.0
 30
0.0
 11
192.0
 21
275.0
 31
0.0
  0
LINE
  5
C0
330
205
100
AcDbEntity
  8
patterns
 62
     3
420
    65280
100
AcDbLine
 10
192.0
 20
275.0
 30
0.0
 11
188.0
 21
278.0
 31
0.0
  0
LINE
  5
C1
330
205
100
AcDbEntity
  8
patterns
 62
     3
420
    65280
100
AcDbLine
 10
192.0
 20
274.0
 30
0.0
 11
188.0
 21
274.0
 31
0.0
  0
LINE
  5
C2
330
205
100
AcDbEntity
  8
patterns
 62
     3
420
    65280
100
AcDbLine
 10
192.0
 20
304.5
 30
0.0
 11
188.0
 21
304.5
 31
0.0
  0
LINE
  5
C3
330
205
100
AcDbEntity
  8
patterns
 62
     3
420
    65280
100
AcDbLine
 10
192.0
 20
263.0
 30
0.0
 11
192.0
 21
266.0
 31
0.0
  0
LINE
  5
C4
330
205
100
AcDbEntity
  8
patterns
 62
     3
420
    65280
100
AcDbLine
 10
192.0
 20
266.0
 30
0.0
 11
187.9999999999999
 21
266.0
 31
0.0
  0
LINE
  5
C5
330
205
100
AcDbEntity
  8
patterns
 62
     3
420
    65280
100
AcDbLine
 10
188.0
 20
262.0
 30
0.0
 11
192.0
 21
262.0
 31
0.0
  0
LINE
  5
C6
330
205
100
AcDbEntity
  8
patterns
 62
     3
420
    65280
100
AcDbLine
 10
192.0
 20
262.0
 30
0.0
 11
192.0
 21
259.0
 31
0.0
  0
LINE
  5
C7
330
205
100
AcDbEntity
  8
patterns
 62
     3
420
    65280
100
AcDbLine
 10
192.0
 20
259.0
 30
0.0
 11
188.0
 21
259.0
 31
0.0
  0
LINE
  5
C8
330
205
100
AcDbEntity
  8
patterns
 62
     3
420
    65280
100
AcDbLine
 10
188.0
 20
258.0
 30
0.0
 11
192.0
 21
255.0
 31
0.0
  0
LINE
  5
C9
330
205
100
AcDbEntity
  8
patterns
 62
     3
420
    65280
100
AcDbLine
 10
192.0
 20
258.0
 30
0.0
 11
187.9999999999999
 21
255.0
 31
0.0
  0
LINE
  5
CA
330
205
100
AcDbEntity
  8
patterns
 62
     3
420
    65280
100
AcDbLine
 10
192.0
 20
249.0
 30
0.0
 11
192.0
 21
252.0
 31
0.0
  0
LINE
  5
CB
330
205
100
AcDbEntity
  8
patterns
 62
     3
420
    65280
100
AcDbLine
 10
192.0
 20
252.0
 30
0.0
 11
188.0000000000001
 21
252.0
 31
0.0
  0
LINE
  5
CC
330
205
100
AcDbEntity
  8
patterns
 62
     3
420
    65280
100
AcDbLine
 10
188.0
 20
248.0
 30
0.0
 11
192.0
 21
248.0
 31
0.0
  0
LINE
  5
CD
330
205
100
AcDbEntity
  8
patterns
 62
     3
420
    65280
100
AcDbLine
 10
192.0
 20
248.0
 30
0.0
 11
192.0
 21
245.0
 31
0.0
  0
LINE
  5
CE
330
205
100
AcDbEntity
  8
patterns
 62
     3
420
    65280
100
AcDbLine
 10
192.0
 20
245.0
 30
0.0
 11
188.0
 21
245.0
 31
0.0
  0
LINE
  5
CF
330
205
100
AcDbEntity
  8
patterns
 62
     3
420
    65280
100
AcDbLine
 10
192.0
 20
242.0
 30
0.0
 11
187.9999999999999
 21
242.0
 31
0.0
  0
LINE
  5
D0
330
205
100
AcDbEntity
  8
patterns
 62
     3
420
    65280
100
AcDbLine
 10
188.0000000000001
 20
239.0
 30
0.0
 11
192.0
 21
239.0
 31
0.0
  0
LINE
  5
D1
330
205
100
AcDbEntity
  8
patterns
 62
     3
420
    65280
100
AcDbLine
 10
192.0
 20
238.0
 30
0.0
 11
187.9999999999999
 21
238.0
 31
0.0
  0
LINE
  5
D2
330
205
100
AcDbEntity
  8
patterns
 62
     3
420
    65280
100
AcDbLine
 10
192.0
 20
267.0
 30
0.0
 11
192.0
 21
270.0
 31
0.0
  0
LINE
  5
D3
330
205
100
AcDbEntity
  8
patterns
 62
     3
420
    65280
100
AcDbLine
 10
192.0
 20
270.0
 30
0.0
 11
188.0
 21
270.0
 31
0.0
  0
LINE
  5
D4
330
205
100
AcDbEntity
  8
patterns
 62
     3
420
    65280
100
AcDbLine
 10
188.0
 20
234.0
 30
0.0
 11
192.0
 21
231.0
 31
0.0
  0
LINE
  5
D5
330
205
100
AcDbEntity
  8
patterns
 62
     3
420
    65280
100
AcDbLine
 10
190.0
 20
238.0
 30
0.0
 11
188.0
 21
235.0
 31
0.0
  0
LINE
  5
D6
330
205
100
AcDbEntity
  8
patterns
 62
     3
420
    65280
100
AcDbLine
 10
190.0
 20
238.0
 30
0.0
 11
192.0
 21
235.0
 31
0.0
  0
LINE
  5
D7
330
205
100
AcDbEntity
  8
patterns
 62
     3
420
    65280
100
AcDbLine
 10
188.0
 20
263.0
 30
0.0
 11
189.0
 21
263.0
 31
0.0
  0
LINE
  5
D8
330
205
100
AcDbEntity
  8
patterns
 62
     3
420
    65280
100
AcDbLine
 10
189.0
 20
263.0
 30
0.0
 11
190.0
 21
264.0
 31
0.0
  0
LINE
  5
D9
330
205
100
AcDbEntity
  8
patterns
 62
     3
420
    65280
100
AcDbLine
 10
190.0
 20
264.0
 30
0.0
 11
191.0
 21
263.0
 31
0.0
  0
LINE
  5
DA
330
205
100
AcDbEntity
  8
patterns
 62
     3
420
    65280
100
AcDbLine
 10
191.0
 20
263.0
 30
0.0
 11
192.0
 21
263.0
 31
0.0
  0
LINE
  5
DB
330
205
100
AcDbEntity
  8
patterns
 62
     3
420
    65280
100
AcDbLine
 10
190.0
 20
264.0
 30
0.0
 11
190.0
 21
266.0
 31
0.0
  0
LINE
  5
DC
330
205
100
AcDbEntity
  8
patterns
 62
     3
420
    65280
100
AcDbLine
 10
190.0
 20
267.0
 30
0.0
 11
190.0
 21
270.0
 31
0.0
  0
LINE
  5
DD
330
205
100
AcDbEntity
  8
patterns
 62
     3
420
    65280
100
AcDbLine
 10
190.0
 20
294.0
 30
0.0
 11
190.0
 21
291.0
 31
0.0
  0
LINE
  5
DE
330
205
100
AcDbEntity
  8
patterns
 62
     3
420
    65280
100
AcDbLine
 10
190.0
 20
290.0
 30
0.0
 11
190.0
 21
287.0
 31
0.0
  0
LINE
  5
DF
330
205
100
AcDbEntity
  8
patterns
 62
     3
420
    65280
100
AcDbLine
 10
190.0
 20
287.0
 30
0.0
 11
192.0
 21
287.0
 31
0.0
  0
LINE
  5
E0
330
205
100
AcDbEntity
  8
patterns
 62
     3
420
    65280
100
AcDbLine
 10
190.0
 20
302.0
 30
0.0
 11
190.0
 21
299.0
 31
0.0
  0
CIRCLE
  5
E1
330
205
100
AcDbEntity
  8
patterns
 62
     3
420
    65280
100
AcDbCircle
 10
157.5
 20
222.5
 30
0.0
 40
2.5
  0
CIRCLE
  5
E2
330
205
100
AcDbEntity
  8
patterns
  6
Continuous
 62
     3
420
    65280
370
    -3
100
AcDbCircle
 10
235.0
 20
345.0
 30
0.0
 40
5.0
  0
LINE
  5
E3
330
205
100
AcDbEntity
  8
patterns
  6
Continuous
 62
     3
420
    65280
370
    -3
100
AcDbLine
 10
150.0
 20
320.0
 30
0.0
 11
150.0
 21
410.0
 31
0.0
  0
LINE
  5
E4
330
205
100
AcDbEntity
  8
patterns
  6
Continuous
 62
     3
420
    65280
370
    -3
100
AcDbLine
 10
160.0
 20
406.0
 30
0.0
 11
160.0
 21
410.0
 31
0.0
  0
LINE
  5
E5
330
205
100
AcDbEntity
  8
patterns
  6
Continuous
 62
     3
420
    65280
370
    -3
100
AcDbLine
 10
160.0
 20
410.0
 30
0.0
 11
160.0
 21
400.0
 31
0.0
  0
LINE
  5
E6
330
205
100
AcDbEntity
  8
patterns
  6
Continuous
 62
     3
420
    65280
370
    -3
100
AcDbLine
 10
160.0
 20
400.0
 30
0.0
 11
170.0
 21
400.0
 31
0.0
  0
LINE
  5
E7
330
205
100
AcDbEntity
  8
patterns
  6
Continuous
 62
     3
420
    65280
370
    -3
100
AcDbLine
 10
170.0
 20
400.0
 30
0.0
 11
170.0
 21
390.0
 31
0.0
  0
LINE
  5
E8
330
205
100
AcDbEntity
  8
patterns
  6
Continuous
 62
     3
420
    65280
370
    -3
100
AcDbLine
 10
170.0
 20
390.0
 30
0.0
 11
180.0
 21
390.0
 31
0.0
  0
LINE
  5
E9
330
205
100
AcDbEntity
  8
patterns
  6
Continuous
 62
     3
420
    65280
370
    -3
100
AcDbLine
 10
180.0
 20
390.0
 30
0.0
 11
180.0
 21
380.0
 31
0.0
  0
LINE
  5
EA
330
205
100
AcDbEntity
  8
patterns
  6
Continuous
 62
     3
420
    65280
370
    -3
100
AcDbLine
 10
180.0
 20
380.0
 30
0.0
 11
190.0
 21
380.0
 31
0.0
  0
LINE
  5
EB
330
205
100
AcDbEntity
  8
patterns
  6
Continuous
 62
     3
420
    65280
370
    -3
100
AcDbLine
 10
190.0
 20
380.0
 30
0.0
 11
190.0
 21
370.0
 31
0.0
  0
LINE
  5
EC
330
205
100
AcDbEntity
  8
patterns
  6
Continuous
 62
     3
420
    65280
370
    -3
100
AcDbLine
 10
190.0
 20
370.0
 30
0.0
 11
200.0
 21
370.0
 31
0.0
  0
LINE
  5
ED
330
205
100
AcDbEntity
  8
patterns
  6
Continuous
 62
     3
420
    65280
370
    -3
100
AcDbLine
 10
200.0
 20
370.0
 30
0.0
 11
200.0
 21
360.0
 31
0.0
  0
LINE
  5
EE
330
205
100
AcDbEntity
  8
patterns
  6
Continuous
 62
     3
420
    65280
370
    -3
100
AcDbLine
 10
200.0
 20
360.0
 30
0.0
 11
210.0
 21
360.0
 31
0.0
  0
LINE
  5
EF
330
205
100
AcDbEntity
  8
patterns
  6
Continuous
 62
     3
420
    65280
370
    -3
100
AcDbLine
 10
210.0
 20
360.0
 30
0.0
 11
210.0
 21
350.0
 31
0.0
  0
LINE
  5
F0
330
205
100
AcDbEntity
  8
patterns
  6
Continuous
 62
     3
420
    65280
370
    -3
100
AcDbLine
 10
210.0
 20
350.0
 30
0.0
 11
220.0
 21
350.0
 31
0.0
  0
LINE
  5
F1
330
205
100
AcDbEntity
  8
patterns
  6
Continuous
 62
     3
420
    65280
370
    -3
100
AcDbLine
 10
220.0
 20
350.0
 30
0.0
 11
220.0
 21
340.0
 31
0.0
  0
LINE
  5
F2
330
205
100
AcDbEntity
  8
patterns
  6
Continuous
 62
     3
420
    65280
370
    -3
100
AcDbLine
 10
220.0
 20
340.0
 30
0.0
 11
230.0
 21
340.0
 31
0.0
  0
LINE
  5
F3
330
205
100
AcDbEntity
  8
patterns
  6
Continuous
 62
     3
420
    65280
370
    -3
100
AcDbLine
 10
230.0
 20
340.0
 30
0.0
 11
230.0
 21
330.0
 31
0.0
  0
LINE
  5
F4
330
205
100
AcDbEntity
  8
patterns
  6
Continuous
 62
     3
420
    65280
370
    -3
100
AcDbLine
 10
230.0
 20
330.0
 30
0.0
 11
240.0
 21
330.0
 31
0.0
  0
LINE
  5
F5
330
205
100
AcDbEntity
  8
patterns
  6
Continuous
 62
     3
420
    65280
370
    -3
100
AcDbLine
 10
240.0
 20
330.0
 30
0.0
 11
240.0
 21
320.0
 31
0.0
  0
LINE
  5
F6
330
205
100
AcDbEntity
  8
patterns
  6
Continuous
 62
     3
420
    65280
370
    -3
100
AcDbLine
 10
180.0
 20
406.0
 30
0.0
 11
180.0
 21
410.0
 31
0.0
  0
LINE
  5
F7
330
205
100
AcDbEntity
  8
patterns
  6
Continuous
 62
     3
420
    65280
370
    -3
100
AcDbLine
 10
180.0
 20
410.0
 30
0.0
 11
180.0
 21
400.0
 31
0.0
  0
LINE
  5
F8
330
205
100
AcDbEntity
  8
patterns
  6
Continuous
 62
     3
420
    65280
370
    -3
100
AcDbLine
 10
180.0
 20
400.0
 30
0.0
 11
190.0
 21
400.0
 31
0.0
  0
LINE
  5
F9
330
205
100
AcDbEntity
  8
patterns
  6
Continuous
 62
     3
420
    65280
370
    -3
100
AcDbLine
 10
190.0
 20
400.0
 30
0.0
 11
190.0
 21
390.0
 31
0.0
  0
LINE
  5
FA
330
205
100
AcDbEntity
  8
patterns
  6
Continuous
 62
     3
420
    65280
370
    -3
100
AcDbLine
 10
190.0
 20
390.0
 30
0.0
 11
200.0
 21
390.0
 31
0.0
  0
LINE
  5
FB
330
205
100
AcDbEntity
  8
patterns
  6
Continuous
 62
     3
420
    65280
370
    -3
100
AcDbLine
 10
200.0
 20
390.0
 30
0.0
 11
200.0
 21
380.0
 31
0.0
  0
LINE
  5
FC
330
205
100
AcDbEntity
  8
patterns
  6
Continuous
 62
     3
420
    65280
370
    -3
100
AcDbLine
 10
200.0
 20
380.0
 30
0.0
 11
210.0
 21
380.0
 31
0.0
  0
LINE
  5
FD
330
205
100
AcDbEntity
  8
patterns
  6
Continuous
 62
     3
420
    65280
370
    -3
100
AcDbLine
 10
210.0
 20
380.0
 30
0.0
 11
210.0
 21
370.0
 31
0.0
  0
LINE
  5
FE
330
205
100
AcDbEntity
  8
patterns
  6
Continuous
 62
     3
420
    65280
370
    -3
100
AcDbLine
 10
210.0
 20
370.0
 30
0.0
 11
220.0
 21
370.0
 31
0.0
  0
LINE
  5
FF
330
205
100
AcDbEntity
  8
patterns
  6
Continuous
 62
     3
420
    65280
370
    -3
100
AcDbLine
 10
220.0
 20
370.0
 30
0.0
 11
220.0
 21
360.0
 31
0.0
  0
LINE
  5
100
330
205
100
AcDbEntity
  8
patterns
  6
Continuous
 62
     3
420
    65280
370
    -3
100
AcDbLine
 10
220.0
 20
360.0
 30
0.0
 11
230.0
 21
360.0
 31
0.0
  0
LINE
  5
101
330
205
100
AcDbEntity
  8
patterns
  6
Continuous
 62
     3
420
    65280
370
    -3
100
AcDbLine
 10
230.0
 20
360.0
 30
0.0
 11
230.0
 21
350.0
 31
0.0
  0
LINE
  5
102
330
205
100
AcDbEntity
  8
patterns
  6
Continuous
 62
     3
420
    65280
370
    -3
100
AcDbLine
 10
230.0
 20
350.0
 30
0.0
 11
240.0
 21
350.0
 31
0.0
  0
LINE
  5
103
330
205
100
AcDbEntity
  8
patterns
  6
Continuous
 62
     3
420
    65280
370
    -3
100
AcDbLine
 10
240.0
 20
350.0
 30
0.0
 11
240.0
 21
340.0
 31
0.0
  0
LINE
  5
104
330
205
100
AcDbEntity
  8
patterns
  6
Continuous
 62
     3
420
    65280
370
    -3
100
AcDbLine
 10
240.0
 20
340.0
 30
0.0
 11
250.0
 21
340.0
 31
0.0
  0
LINE
  5
105
330
205
100
AcDbEntity
  8
patterns
  6
Continuous
 62
     3
420
    65280
370
    -3
100
AcDbLine
 10
250.0
 20
340.0
 30
0.0
 11
250.0
 21
330.0
 31
0.0
  0
LINE
  5
106
330
205
100
AcDbEntity
  8
patterns
  6
Continuous
 62
     3
420
    65280
370
    -3
100
AcDbLine
 10
250.0
 20
330.0
 30
0.0
 11
260.0
 21
330.0
 31
0.0
  0
LINE
  5
107
330
205
100
AcDbEntity
  8
patterns
  6
Continuous
 62
     3
420
    65280
370
    -3
100
AcDbLine
 10
260.0
 20
330.0
 30
0.0
 11
260.0
 21
320.0
 31
0.0
  0
LINE
  5
108
330
205
100
AcDbEntity
  8
patterns
  6
Continuous
 62
     3
420
    65280
370
    -3
100
AcDbLine
 10
150.0
 20
350.0
 30
0.0
 11
160.0
 21
350.0
 31
0.0
  0
LINE
  5
109
330
205
100
AcDbEntity
  8
patterns
  6
Continuous
 62
     3
420
    65280
370
    -3
100
AcDbLine
 10
160.0
 20
350.0
 30
0.0
 11
160.0
 21
340.0
 31
0.0
  0
LINE
  5
10A
330
205
100
AcDbEntity
  8
patterns
  6
Continuous
 62
     3
420
    65280
370
    -3
100
AcDbLine
 10
160.0
 20
340.0
 30
0.0
 11
170.0
 21
340.0
 31
0.0
  0
LINE
  5
10B
330
205
100
AcDbEntity
  8
patterns
  6
Continuous
 62
     3
420
    65280
370
    -3
100
AcDbLine
 10
170.0
 20
340.0
 30
0.0
 11
170.0
 21
330.0
 31
0.0
  0
LINE
  5
10C
330
205
100
AcDbEntity
  8
patterns
  6
Continuous
 62
     3
420
    65280
370
    -3
100
AcDbLine
 10
170.0
 20
330.0
 30
0.0
 11
180.0
 21
330.0
 31
0.0
  0
LINE
  5
10D
330
205
100
AcDbEntity
  8
patterns
  6
Continuous
 62
     3
420
    65280
370
    -3
100
AcDbLine
 10
180.0
 20
330.0
 30
0.0
 11
180.0
 21
320.0
 31
0.0
  0
LINE
  5
10E
330
205
100
AcDbEntity
  8
patterns
  6
Continuous
 62
     3
420
    65280
370
    -3
100
AcDbLine
 10
220.0
 20
400.0
 30
0.0
 11
230.0
 21
400.0
 31
0.0
  0
LINE
  5
10F
330
205
100
AcDbEntity
  8
patterns
  6
Continuous
 62
     3
420
    65280
370
    -3
100
AcDbLine
 10
230.0
 20
400.0
 30
0.0
 11
230.0
 21
390.0
 31
0.0
  0
LINE
  5
110
330
205
100
AcDbEntity
  8
patterns
  6
Continuous
 62
     3
420
    65280
370
    -3
100
AcDbLine
 10
230.0
 20
390.0
 30
0.0
 11
240.0
 21
390.0
 31
0.0
  0
LINE
  5
111
330
205
100
AcDbEntity
  8
patterns
  6
Continuous
 62
     3
420
    65280
370
    -3
100
AcDbLine
 10
240.0
 20
390.0
 30
0.0
 11
240.0
 21
380.0
 31
0.0
  0
LINE
  5
112
330
205
100
AcDbEntity
  8
patterns
  6
Continuous
 62
     3
420
    65280
370
    -3
100
AcDbLine
 10
240.0
 20
380.0
 30
0.0
 11
250.0
 21
380.0
 31
0.0
  0
LINE
  5
113
330
205
100
AcDbEntity
  8
patterns
  6
Continuous
 62
     3
420
    65280
370
    -3
100
AcDbLine
 10
250.0
 20
380.0
 30
0.0
 11
250.0
 21
370.0
 31
0.0
  0
LINE
  5
114
330
205
100
AcDbEntity
  8
patterns
  6
Continuous
 62
     3
420
    65280
370
    -3
100
AcDbLine
 10
250.0
 20
370.0
 30
0.0
 11
260.0
 21
370.0
 31
0.0
  0
LINE
  5
115
330
205
100
AcDbEntity
  8
patterns
  6
Continuous
 62
     3
420
    65280
370
    -3
100
AcDbLine
 10
260.0
 20
370.0
 30
0.0
 11
260.0
 21
360.0
 31
0.0
  0
LINE
  5
116
330
205
100
AcDbEntity
  8
patterns
  6
Continuous
 62
     3
420
    65280
370
    -3
100
AcDbLine
 10
260.0
 20
360.0
 30
0.0
 11
270.0
 21
360.0
 31
0.0
  0
LINE
  5
117
330
205
100
AcDbEntity
  8
patterns
  6
Continuous
 62
     3
420
    65280
370
    -3
100
AcDbLine
 10
270.0
 20
360.0
 30
0.0
 11
270.0
 21
350.0
 31
0.0
  0
LINE
  5
118
330
205
100
AcDbEntity
  8
patterns
  6
Continuous
 62
     3
420
    65280
370
    -3
100
AcDbLine
 10
270.0
 20
350.0
 30
0.0
 11
280.0
 21
350.0
 31
0.0
  0
LINE
  5
119
330
205
100
AcDbEntity
  8
patterns
  6
Continuous
 62
     3
420
    65280
370
    -3
100
AcDbLine
 10
220.0
 20
400.0
 30
0.0
 11
220.0
 21
410.0
 31
0.0
  0
LINE
  5
11A
330
205
100
AcDbEntity
  8
patterns
  6
Continuous
 62
     3
420
    65280
370
    -3
100
AcDbLine
 10
240.0
 20
410.0
 30
0.0
 11
240.0
 21
400.0
 31
0.0
  0
LINE
  5
11B
330
205
100
AcDbEntity
  8
patterns
  6
Continuous
 62
     3
420
    65280
370
    -3
100
AcDbLine
 10
240.0
 20
400.0
 30
0.0
 11
250.0
 21
400.0
 31
0.0
  0
LINE
  5
11C
330
205
100
AcDbEntity
  8
patterns
  6
Continuous
 62
     3
420
    65280
370
    -3
100
AcDbLine
 10
250.0
 20
400.0
 30
0.0
 11
250.0
 21
390.0
 31
0.0
  0
LINE
  5
11D
330
205
100
AcDbEntity
  8
patterns
  6
Continuous
 62
     3
420
    65280
370
    -3
100
AcDbLine
 10
250.0
 20
390.0
 30
0.0
 11
260.0
 21
390.0
 31
0.0
  0
LINE
  5
11E
330
205
100
AcDbEntity
  8
patterns
  6
Continuous
 62
     3
420
    65280
370
    -3
100
AcDbLine
 10
260.0
 20
390.0
 30
0.0
 11
260.0
 21
380.0
 31
0.0
  0
LINE
  5
11F
330
205
100
AcDbEntity
  8
patterns
  6
Continuous
 62
     3
420
    65280
370
    -3
100
AcDbLine
 10
260.0
 20
380.0
 30
0.0
 11
270.0
 21
380.0
 31
0.0
  0
LINE
  5
120
330
205
100
AcDbEntity
  8
patterns
  6
Continuous
 62
     3
420
    65280
370
    -3
100
AcDbLine
 10
270.0
 20
380.0
 30
0.0
 11
270.0
 21
370.0
 31
0.0
  0
LINE
  5
121
330
205
100
AcDbEntity
  8
patterns
  6
Continuous
 62
     3
420
    65280
370
    -3
100
AcDbLine
 10
270.0
 20
370.0
 30
0.0
 11
280.0
 21
370.0
 31
0.0
  0
LINE
  5
122
330
205
100
AcDbEntity
  8
patterns
  6
Continuous
 62
     3
420
    65280
370
    -3
100
AcDbLine
 10
150.0
 20
410.0
 30
0.0
 11
280.0
 21
410.0
 31
0.0
  0
LINE
  5
123
330
205
100
AcDbEntity
  8
patterns
  6
Continuous
 62
     3
420
    65280
370
    -3
100
AcDbLine
 10
280.0
 20
320.0
 30
0.0
 11
150.0
 21
320.0
 31
0.0
  0
LINE
  5
124
330
205
100
AcDbEntity
  8
patterns
  6
Continuous
 62
     3
420
    65280
370
    -3
100
AcDbLine
 10
280.0
 20
410.0
 30
0.0
 11
280.0
 21
320.0
 31
0.0
  0
LINE
  5
125
330
205
100
AcDbEntity
  8
cuts
 62
     7
420
 16777215
100
AcDbLine
 10
50.0
 20
90.0
 30
0.0
 11
50.0
 21
10.0
 31
0.0
  0
LINE
  5
126
330
205
100
AcDbEntity
  8
cuts
 62
     7
420
 16777215
100
AcDbLine
 10
5.0
 20
0.0
 30
0.0
 11
0.0
 21
5.0
 31
0.0
  0
LINE
  5
127
330
205
100
AcDbEntity
  8
cuts
 62
     7
420
 16777215
100
AcDbLine
 10
0.0
 20
95.0
 30
0.0
 11
0.0
 21
5.0
 31
0.0
  0
LINE
  5
128
330
205
100
AcDbEntity
  8
cuts
 62
     7
420
 16777215
100
AcDbLine
 10
0.0
 20
95.0
 30
0.0
 11
5.0
 21
100.0
 31
0.0
  0
LINE
  5
129
330
205
100
AcDbEntity
  8
cuts
 62
     7
420
 16777215
100
AcDbLine
 10
110.0
 20
10.0
 30
0.0
 11
110.0
 21
20.0
 31
0.0
  0
LINE
  5
12A
330
205
100
AcDbEntity
  8
cuts
 62
     7
420
 16777215
100
AcDbLine
 10
110.0
 20
80.0
 30
0.0
 11
110.0
 21
90.0
 31
0.0
  0
LINE
  5
12B
330
205
100
AcDbEntity
  8
cuts
 62
     7
420
 16777215
100
AcDbLine
 10
50.0
 20
10.0
 30
0.0
 11
110.0
 21
10.0
 31
0.0
  0
LINE
  5
12C
330
205
100
AcDbEntity
  8
cuts
 62
     7
420
 16777215
100
AcDbLine
 10
110.0
 20
90.0
 30
0.0
 11
50.0
 21
90.0
 31
0.0
  0
LINE
  5
12D
330
205
100
AcDbEntity
  8
cuts
 62
     7
420
 16777215
100
AcDbLine
 10
135.0
 20
100.0
 30
0.0
 11
140.0
 21
95.0
 31
0.0
  0
LINE
  5
12E
330
205
100
AcDbEntity
  8
cuts
 62
     7
420
 16777215
100
AcDbLine
 10
5.0
 20
0.0
 30
0.0
 11
135.0
 21
0.0
 31
0.0
  0
LINE
  5
12F
330
205
100
AcDbEntity
  8
cuts
 62
     7
420
 16777215
100
AcDbLine
 10
140.0
 20
95.0
 30
0.0
 11
140.0
 21
5.0
 31
0.0
  0
LINE
  5
130
330
205
100
AcDbEntity
  8
cuts
 62
     7
420
 16777215
100
AcDbLine
 10
135.0
 20
0.0
 30
0.0
 11
140.0
 21
5.0
 31
0.0
  0
LINE
  5
131
330
205
100
AcDbEntity
  8
cuts
 62
     7
420
 16777215
100
AcDbLine
 10
120.0
 20
20.0
 30
0.0
 11
120.0
 21
80.0
 31
0.0
  0
LINE
  5
132
330
205
100
AcDbEntity
  8
cuts
 62
     7
420
 16777215
100
AcDbLine
 10
110.0
 20
20.0
 30
0.0
 11
120.0
 21
20.0
 31
0.0
  0
LINE
  5
133
330
205
100
AcDbEntity
  8
cuts
 62
     7
420
 16777215
100
AcDbLine
 10
120.0
 20
80.0
 30
0.0
 11
110.0
 21
80.0
 31
0.0
  0
LINE
  5
134
330
205
100
AcDbEntity
  8
cuts
 62
     7
420
 16777215
100
AcDbLine
 10
50.0
 20
195.0
 30
0.0
 11
50.0
 21
115.0
 31
0.0
  0
LINE
  5
135
330
205
100
AcDbEntity
  8
cuts
 62
     7
420
 16777215
100
AcDbLine
 10
5.0
 20
205.0
 30
0.0
 11
0.0
 21
200.0
 31
0.0
  0
LINE
  5
136
330
205
100
AcDbEntity
  8
cuts
 62
     7
420
 16777215
100
AcDbLine
 10
0.0
 20
200.0
 30
0.0
 11
0.0
 21
110.0
 31
0.0
  0
LINE
  5
137
330
205
100
AcDbEntity
  8
cuts
 62
     7
420
 16777215
100
AcDbLine
 10
0.0
 20
110.0
 30
0.0
 11
5.0
 21
105.0
 31
0.0
  0
LINE
  5
138
330
205
100
AcDbEntity
  8
cuts
 62
     7
420
 16777215
100
AcDbLine
 10
110.0
 20
115.0
 30
0.0
 11
110.0
 21
125.0
 31
0.0
  0
LINE
  5
139
330
205
100
AcDbEntity
  8
cuts
 62
     7
420
 16777215
100
AcDbLine
 10
110.0
 20
185.0
 30
0.0
 11
110.0
 21
195.0
 31
0.0
  0
LINE
  5
13A
330
205
100
AcDbEntity
  8
cuts
 62
     7
420
 16777215
100
AcDbLine
 10
50.0
 20
115.0
 30
0.0
 11
110.0
 21
115.0
 31
0.0
  0
LINE
  5
13B
330
205
100
AcDbEntity
  8
cuts
 62
     7
420
 16777215
100
AcDbLine
 10
110.0
 20
195.0
 30
0.0
 11
50.0
 21
195.0
 31
0.0
  0
LINE
  5
13C
330
205
100
AcDbEntity
  8
cuts
 62
     7
420
 16777215
100
AcDbLine
 10
140.0
 20
110.0
 30
0.0
 11
135.0
 21
105.0
 31
0.0
  0
LINE
  5
13D
330
205
100
AcDbEntity
  8
cuts
 62
     7
420
 16777215
100
AcDbLine
 10
140.0
 20
110.0
 30
0.0
 11
140.0
 21
200.0
 31
0.0
  0
LINE
  5
13E
330
205
100
AcDbEntity
  8
cuts
 62
     7
420
 16777215
100
AcDbLine
 10
5.0
 20
105.0
 30
0.0
 11
135.0
 21
105.0
 31
0.0
  0
LINE
  5
13F
330
205
100
AcDbEntity
  8
cuts
 62
     7
420
 16777215
100
AcDbLine
 10
135.0
 20
205.0
 30
0.0
 11
140.0
 21
200.0
 31
0.0
  0
LINE
  5
140
330
205
100
AcDbEntity
  8
cuts
 62
     7
420
 16777215
100
AcDbLine
 10
110.0
 20
125.0
 30
0.0
 11
120.0
 21
125.0
 31
0.0
  0
LINE
  5
141
330
205
100
AcDbEntity
  8
cuts
 62
     7
420
 16777215
100
AcDbLine
 10
120.0
 20
125.0
 30
0.0
 11
120.0
 21
185.0
 31
0.0
  0
LINE
  5
142
330
205
100
AcDbEntity
  8
cuts
 62
     7
420
 16777215
100
AcDbLine
 10
120.0
 20
185.0
 30
0.0
 11
110.0
 21
185.0
 31
0.0
  0
LINE
  5
143
330
205
100
AcDbEntity
  8
cuts
 62
     7
420
 16777215
100
AcDbLine
 10
11.0
 20
165.0
 30
0.0
 11
11.0
 21
155.0
 31
0.0
  0
LINE
  5
144
330
205
100
AcDbEntity
  8
cuts
 62
     7
420
 16777215
100
AcDbLine
 10
19.0
 20
155.0
 30
0.0
 11
19.0
 21
165.0
 31
0.0
  0
LINE
  5
145
330
205
100
AcDbEntity
  8
cuts
 62
     7
420
 16777215
100
AcDbLine
 10
11.0
 20
155.0
 30
0.0
 11
19.0
 21
155.0
 31
0.0
  0
LINE
  5
146
330
205
100
AcDbEntity
  8
cuts
 62
     7
420
 16777215
100
AcDbLine
 10
19.0
 20
165.0
 30
0.0
 11
11.0
 21
165.0
 31
0.0
  0
LINE
  5
147
330
205
100
AcDbEntity
  8
cuts
 62
     7
420
 16777215
100
AcDbLine
 10
4.0
 20
119.0
 30
0.0
 11
8.0
 21
119.0
 31
0.0
  0
LINE
  5
148
330
205
100
AcDbEntity
  8
cuts
 62
     7
420
 16777215
100
AcDbLine
 10
8.0
 20
119.0
 30
0.0
 11
8.0
 21
115.0
 31
0.0
  0
LINE
  5
149
330
205
100
AcDbEntity
  8
cuts
 62
     7
420
 16777215
100
AcDbLine
 10
8.0
 20
115.0
 30
0.0
 11
4.0
 21
115.0
 31
0.0
  0
LINE
  5
14A
330
205
100
AcDbEntity
  8
cuts
 62
     7
420
 16777215
100
AcDbLine
 10
4.0
 20
115.0
 30
0.0
 11
4.0
 21
119.0
 31
0.0
  0
LINE
  5
14B
330
205
100
AcDbEntity
  8
cuts
 62
     7
420
 16777215
100
AcDbLine
 10
10.0
 20
113.0
 30
0.0
 11
14.0
 21
113.0
 31
0.0
  0
LINE
  5
14C
330
205
100
AcDbEntity
  8
cuts
 62
     7
420
 16777215
100
AcDbLine
 10
14.0
 20
113.0
 30
0.0
 11
14.0
 21
109.0
 31
0.0
  0
LINE
  5
14D
330
205
100
AcDbEntity
  8
cuts
 62
     7
420
 16777215
100
AcDbLine
 10
14.0
 20
109.0
 30
0.0
 11
10.0
 21
109.0
 31
0.0
  0
LINE
  5
14E
330
205
100
AcDbEntity
  8
cuts
 62
     7
420
 16777215
100
AcDbLine
 10
10.0
 20
109.0
 30
0.0
 11
10.0
 21
113.0
 31
0.0
  0
LINE
  5
14F
330
205
100
AcDbEntity
  8
cuts
 62
     7
420
 16777215
100
AcDbLine
 10
50.0
 20
300.0
 30
0.0
 11
50.0
 21
220.0
 31
0.0
  0
LINE
  5
150
330
205
100
AcDbEntity
  8
cuts
 62
     7
420
 16777215
100
AcDbLine
 10
0.0
 20
215.0
 30
0.0
 11
5.0
 21
210.0
 31
0.0
  0
LINE
  5
151
330
205
100
AcDbEntity
  8
cuts
 62
     7
420
 16777215
100
AcDbLine
 10
0.0
 20
305.0
 30
0.0
 11
5.0
 21
310.0
 31
0.0
  0
LINE
  5
152
330
205
100
AcDbEntity
  8
cuts
 62
     7
420
 16777215
100
AcDbLine
 10
110.0
 20
220.0
 30
0.0
 11
110.0
 21
230.0
 31
0.0
  0
LINE
  5
153
330
205
100
AcDbEntity
  8
cuts
 62
     7
420
 16777215
100
AcDbLine
 10
110.0
 20
290.0
 30
0.0
 11
110.0
 21
300.0
 31
0.0
  0
LINE
  5
154
330
205
100
AcDbEntity
  8
cuts
 62
     7
420
 16777215
100
AcDbLine
 10
50.0
 20
220.0
 30
0.0
 11
110.0
 21
220.0
 31
0.0
  0
LINE
  5
155
330
205
100
AcDbEntity
  8
cuts
 62
     7
420
 16777215
100
AcDbLine
 10
110.0
 20
300.0
 30
0.0
 11
50.0
 21
300.0
 31
0.0
  0
LINE
  5
156
330
205
100
AcDbEntity
  8
cuts
 62
     7
420
 16777215
100
AcDbLine
 10
135.0
 20
310.0
 30
0.0
 11
140.0
 21
305.0
 31
0.0
  0
LINE
  5
157
330
205
100
AcDbEntity
  8
cuts
 62
     7
420
 16777215
100
AcDbLine
 10
140.0
 20
305.0
 30
0.0
 11
140.0
 21
215.0
 31
0.0
  0
LINE
  5
158
330
205
100
AcDbEntity
  8
cuts
 62
     7
420
 16777215
100
AcDbLine
 10
135.0
 20
210.0
 30
0.0
 11
5.0
 21
210.0
 31
0.0
  0
LINE
  5
159
330
205
100
AcDbEntity
  8
cuts
 62
     7
420
 16777215
100
AcDbLine
 10
140.0
 20
215.0
 30
0.0
 11
135.0
 21
210.0
 31
0.0
  0
LINE
  5
15A
330
205
100
AcDbEntity
  8
cuts
 62
     7
420
 16777215
100
AcDbLine
 10
110.0
 20
230.0
 30
0.0
 11
120.0
 21
230.0
 31
0.0
  0
LINE
  5
15B
330
205
100
AcDbEntity
  8
cuts
 62
     7
420
 16777215
100
AcDbLine
 10
120.0
 20
230.0
 30
0.0
 11
120.0
 21
290.0
 31
0.0
  0
LINE
  5
15C
330
205
100
AcDbEntity
  8
cuts
 62
     7
420
 16777215
100
AcDbLine
 10
120.0
 20
290.0
 30
0.0
 11
110.0
 21
290.0
 31
0.0
  0
LINE
  5
15D
330
205
100
AcDbEntity
  8
cuts
 62
     7
420
 16777215
100
AcDbLine
 10
0.0
 20
305.0
 30
0.0
 11
0.0
 21
215.0
 31
0.0
  0
LINE
  5
15E
330
205
100
AcDbEntity
  8
cuts
 62
     7
420
 16777215
100
AcDbLine
 10
15.0
 20
290.0
 30
0.0
 11
20.0
 21
290.0
 31
0.0
  0
LINE
  5
15F
330
205
100
AcDbEntity
  8
cuts
 62
     7
420
 16777215
100
AcDbLine
 10
20.0
 20
285.0
 30
0.0
 11
15.0
 21
285.0
 31
0.0
  0
LINE
  5
160
330
205
100
AcDbEntity
  8
cuts
 62
     7
420
 16777215
100
AcDbLine
 10
15.0
 20
300.0
 30
0.0
 11
15.0
 21
280.0
 31
0.0
  0
LINE
  5
161
330
205
100
AcDbEntity
  8
cuts
 62
     7
420
 16777215
100
AcDbLine
 10
30.0
 20
310.0
 30
0.0
 11
30.0
 21
300.0
 31
0.0
  0
LINE
  5
162
330
205
100
AcDbEntity
  8
cuts
 62
     7
420
 16777215
100
AcDbLine
 10
25.0
 20
310.0
 30
0.0
 11
30.0
 21
305.0
 31
0.0
  0
LINE
  5
163
330
205
100
AcDbEntity
  8
cuts
 62
     7
420
 16777215
100
AcDbLine
 10
40.0
 20
305.0
 30
0.0
 11
45.0
 21
310.0
 31
0.0
  0
LINE
  5
164
330
205
100
AcDbEntity
  8
cuts
 62
     7
420
 16777215
100
AcDbLine
 10
26.0
 20
231.0
 30
0.0
 11
31.0
 21
231.0
 31
0.0
  0
LINE
  5
165
330
205
100
AcDbEntity
  8
cuts
 62
     7
420
 16777215
100
AcDbLine
 10
31.0
 20
231.0
 30
0.0
 11
31.0
 21
229.0
 31
0.0
  0
LINE
  5
166
330
205
100
AcDbEntity
  8
cuts
 62
     7
420
 16777215
100
AcDbLine
 10
31.0
 20
229.0
 30
0.0
 11
35.0
 21
229.0
 31
0.0
  0
LINE
  5
167
330
205
100
AcDbEntity
  8
cuts
 62
     7
420
 16777215
100
AcDbLine
 10
35.0
 20
229.0
 30
0.0
 11
35.0
 21
231.0
 31
0.0
  0
LINE
  5
168
330
205
100
AcDbEntity
  8
cuts
 62
     7
420
 16777215
100
AcDbLine
 10
35.0
 20
231.0
 30
0.0
 11
40.0
 21
231.0
 31
0.0
  0
LINE
  5
169
330
205
100
AcDbEntity
  8
cuts
 62
     7
420
 16777215
100
AcDbLine
 10
30.0
 20
300.0
 30
0.0
 11
15.0
 21
300.0
 31
0.0
  0
LINE
  5
16A
330
205
100
AcDbEntity
  8
cuts
 62
     7
420
 16777215
100
AcDbLine
 10
20.0
 20
285.0
 30
0.0
 11
26.0
 21
285.0
 31
0.0
  0
LINE
  5
16B
330
205
100
AcDbEntity
  8
cuts
 62
     7
420
 16777215
100
AcDbLine
 10
26.0
 20
285.0
 30
0.0
 11
26.0
 21
231.0
 31
0.0
  0
LINE
  5
16C
330
205
100
AcDbEntity
  8
cuts
 62
     7
420
 16777215
100
AcDbLine
 10
40.0
 20
231.0
 30
0.0
 11
40.0
 21
310.0
 31
0.0
  0
LINE
  5
16D
330
205
100
AcDbEntity
  8
cuts
 62
     7
420
 16777215
100
AcDbLine
 10
8.0
 20
231.0
 30
0.0
 11
13.0
 21
231.0
 31
0.0
  0
LINE
  5
16E
330
205
100
AcDbEntity
  8
cuts
 62
     7
420
 16777215
100
AcDbLine
 10
13.0
 20
231.0
 30
0.0
 11
13.0
 21
229.0
 31
0.0
  0
LINE
  5
16F
330
205
100
AcDbEntity
  8
cuts
 62
     7
420
 16777215
100
AcDbLine
 10
13.0
 20
229.0
 30
0.0
 11
17.0
 21
229.0
 31
0.0
  0
LINE
  5
170
330
205
100
AcDbEntity
  8
cuts
 62
     7
420
 16777215
100
AcDbLine
 10
17.0
 20
229.0
 30
0.0
 11
17.0
 21
231.0
 31
0.0
  0
LINE
  5
171
330
205
100
AcDbEntity
  8
cuts
 62
     7
420
 16777215
100
AcDbLine
 10
17.0
 20
231.0
 30
0.0
 11
22.0
 21
231.0
 31
0.0
  0
LINE
  5
172
330
205
100
AcDbEntity
  8
cuts
 62
     7
420
 16777215
100
AcDbLine
 10
20.0
 20
290.0
 30
0.0
 11
20.0
 21
280.0
 31
0.0
  0
LINE
  5
173
330
205
100
AcDbEntity
  8
cuts
 62
     7
420
 16777215
100
AcDbLine
 10
22.0
 20
280.0
 30
0.0
 11
22.0
 21
231.0
 31
0.0
  0
LINE
  5
174
330
205
100
AcDbEntity
  8
cuts
 62
     7
420
 16777215
100
AcDbLine
 10
8.0
 20
231.0
 30
0.0
 11
8.0
 21
280.0
 31
0.0
  0
LINE
  5
175
330
205
100
AcDbEntity
  8
cuts
 62
     7
420
 16777215
100
AcDbLine
 10
8.0
 20
280.0
 30
0.0
 11
15.0
 21
280.0
 31
0.0
  0
LINE
  5
176
330
205
100
AcDbEntity
  8
cuts
 62
     7
420
 16777215
100
AcDbLine
 10
20.0
 20
280.0
 30
0.0
 11
26.0
 21
280.0
 31
0.0
  0
LINE
  5
177
330
205
100
AcDbEntity
  8
cuts
 62
     7
420
 16777215
100
AcDbLine
 10
8.0
 20
236.0
 30
0.0
 11
13.0
 21
236.0
 31
0.0
  0
LINE
  5
178
330
205
100
AcDbEntity
  8
cuts
 62
     7
420
 16777215
100
AcDbLine
 10
13.0
 20
236.0
 30
0.0
 11
13.0
 21
252.0
 31
0.0
  0
LINE
  5
179
330
205
100
AcDbEntity
  8
cuts
 62
     7
420
 16777215
100
AcDbLine
 10
13.0
 20
252.0
 30
0.0
 11
17.0
 21
252.0
 31
0.0
  0
LINE
  5
17A
330
205
100
AcDbEntity
  8
cuts
 62
     7
420
 16777215
100
AcDbLine
 10
17.0
 20
252.0
 30
0.0
 11
17.0
 21
236.0
 31
0.0
  0
LINE
  5
17B
330
205
100
AcDbEntity
  8
cuts
 62
     7
420
 16777215
100
AcDbLine
 10
17.0
 20
236.0
 30
0.0
 11
22.0
 21
236.0
 31
0.0
  0
LINE
  5
17C
330
205
100
AcDbEntity
  8
cuts
 62
     7
420
 16777215
100
AcDbLine
 10
26.0
 20
236.0
 30
0.0
 11
31.0
 21
236.0
 31
0.0
  0
LINE
  5
17D
330
205
100
AcDbEntity
  8
cuts
 62
     7
420
 16777215
100
AcDbLine
 10
31.0
 20
236.0
 30
0.0
 11
31.0
 21
252.0
 31
0.0
  0
LINE
  5
17E
330
205
100
AcDbEntity
  8
cuts
 62
     7
420
 16777215
100
AcDbLine
 10
31.0
 20
252.0
 30
0.0
 11
35.0
 21
252.0
 31
0.0
  0
LINE
  5
17F
330
205
100
AcDbEntity
  8
cuts
 62
     7
420
 16777215
100
AcDbLine
 10
35.0
 20
252.0
 30
0.0
 11
35.0
 21
236.0
 31
0.0
  0
LINE
  5
180
330
205
100
AcDbEntity
  8
cuts
 62
     7
420
 16777215
100
AcDbLine
 10
35.0
 20
236.0
 30
0.0
 11
40.0
 21
236.0
 31
0.0
  0
LINE
  5
181
330
205
100
AcDbEntity
  8
cuts
 62
     7
420
 16777215
100
AcDbLine
 10
12.0
 20
262.5510108842062
 30
0.0
 11
18.0
 21
262.5510108842062
 31
0.0
  0
LINE
  5
182
330
205
100
AcDbEntity
  8
cuts
 62
     7
420
 16777215
100
AcDbLine
 10
18.0
 20
262.5510108842062
 30
0.0
 11
18.0
 21
275.5510108842062
 31
0.0
  0
LINE
  5
183
330
205
100
AcDbEntity
  8
cuts
 62
     7
420
 16777215
100
AcDbLine
 10
12.0
 20
275.5510108842062
 30
0.0
 11
12.0
 21
262.5510108842062
 31
0.0
  0
LINE
  5
184
330
205
100
AcDbEntity
  8
cuts
 62
     7
420
 16777215
100
AcDbLine
 10
18.0
 20
275.5510108842062
 30
0.0
 11
12.0
 21
275.5510108842062
 31
0.0
  0
LINE
  5
185
330
205
100
AcDbEntity
  8
cuts
 62
     7
420
 16777215
100
AcDbLine
 10
128.0
 20
303.0
 30
0.0
 11
132.0
 21
303.0
 31
0.0
  0
LINE
  5
186
330
205
100
AcDbEntity
  8
cuts
 62
     7
420
 16777215
100
AcDbLine
 10
132.0
 20
303.0
 30
0.0
 11
132.0
 21
293.0
 31
0.0
  0
LINE
  5
187
330
205
100
AcDbEntity
  8
cuts
 62
     7
420
 16777215
100
AcDbLine
 10
132.0
 20
293.0
 30
0.0
 11
128.0
 21
293.0
 31
0.0
  0
LINE
  5
188
330
205
100
AcDbEntity
  8
cuts
 62
     7
420
 16777215
100
AcDbLine
 10
128.0
 20
293.0
 30
0.0
 11
128.0
 21
303.0
 31
0.0
  0
LINE
  5
189
330
205
100
AcDbEntity
  8
cuts
 62
     7
420
 16777215
100
AcDbLine
 10
128.0
 20
217.0
 30
0.0
 11
132.0
 21
217.0
 31
0.0
  0
LINE
  5
18A
330
205
100
AcDbEntity
  8
cuts
 62
     7
420
 16777215
100
AcDbLine
 10
132.0
 20
217.0
 30
0.0
 11
132.0
 21
227.0
 31
0.0
  0
LINE
  5
18B
330
205
100
AcDbEntity
  8
cuts
 62
     7
420
 16777215
100
AcDbLine
 10
132.0
 20
227.0
 30
0.0
 11
128.0
 21
227.0
 31
0.0
  0
LINE
  5
18C
330
205
100
AcDbEntity
  8
cuts
 62
     7
420
 16777215
100
AcDbLine
 10
128.0
 20
227.0
 30
0.0
 11
128.0
 21
217.0
 31
0.0
  0
LINE
  5
18D
330
205
100
AcDbEntity
  8
cuts
 62
     7
420
 16777215
100
AcDbLine
 10
0.0
 20
410.0
 30
0.0
 11
5.0
 21
415.0
 31
0.0
  0
LINE
  5
18E
330
205
100
AcDbEntity
  8
cuts
 62
     7
420
 16777215
100
AcDbLine
 10
0.0
 20
410.0
 30
0.0
 11
0.0
 21
320.0
 31
0.0
  0
LINE
  5
18F
330
205
100
AcDbEntity
  8
cuts
 62
     7
420
 16777215
100
AcDbLine
 10
0.0
 20
320.0
 30
0.0
 11
5.0
 21
315.0
 31
0.0
  0
LINE
  5
190
330
205
100
AcDbEntity
  8
cuts
 62
     7
420
 16777215
100
AcDbLine
 10
135.0
 20
415.0
 30
0.0
 11
5.0
 21
415.0
 31
0.0
  0
LINE
  5
191
330
205
100
AcDbEntity
  8
cuts
 62
     7
420
 16777215
100
AcDbLine
 10
135.0
 20
415.0
 30
0.0
 11
140.0
 21
410.0
 31
0.0
  0
LINE
  5
192
330
205
100
AcDbEntity
  8
cuts
 62
     7
420
 16777215
100
AcDbLine
 10
135.0
 20
315.0
 30
0.0
 11
140.0
 21
320.0
 31
0.0
  0
LINE
  5
193
330
205
100
AcDbEntity
  8
cuts
 62
     7
420
 16777215
100
AcDbLine
 10
135.0
 20
315.0
 30
0.0
 11
5.0
 21
315.0
 31
0.0
  0
LINE
  5
194
330
205
100
AcDbEntity
  8
cuts
 62
     7
420
 16777215
100
AcDbLine
 10
140.0
 20
410.0
 30
0.0
 11
140.0
 21
320.0
 31
0.0
  0
LINE
  5
195
330
205
100
AcDbEntity
  8
cuts
 62
     7
420
 16777215
100
AcDbLine
 10
195.0
 20
90.0
 30
0.0
 11
195.0
 21
10.0
 31
0.0
  0
LINE
  5
196
330
205
100
AcDbEntity
  8
cuts
 62
     7
420
 16777215
100
AcDbLine
 10
145.0
 20
95.0
 30
0.0
 11
150.0
 21
100.0
 31
0.0
  0
LINE
  5
197
330
205
100
AcDbEntity
  8
cuts
 62
     7
420
 16777215
100
AcDbLine
 10
150.0
 20
0.0
 30
0.0
 11
145.0
 21
5.0
 31
0.0
  0
LINE
  5
198
330
205
100
AcDbEntity
  8
cuts
 62
     7
420
 16777215
100
AcDbLine
 10
195.0
 20
10.0
 30
0.0
 11
255.0
 21
10.0
 31
0.0
  0
LINE
  5
199
330
205
100
AcDbEntity
  8
cuts
 62
     7
420
 16777215
100
AcDbLine
 10
255.0
 20
90.0
 30
0.0
 11
195.0
 21
90.0
 31
0.0
  0
LINE
  5
19A
330
205
100
AcDbEntity
  8
cuts
 62
     7
420
 16777215
100
AcDbLine
 10
150.0
 20
0.0
 30
0.0
 11
280.0
 21
0.0
 31
0.0
  0
LINE
  5
19B
330
205
100
AcDbEntity
  8
cuts
 62
     7
420
 16777215
100
AcDbLine
 10
255.0
 20
10.0
 30
0.0
 11
255.0
 21
20.0
 31
0.0
  0
LINE
  5
19C
330
205
100
AcDbEntity
  8
cuts
 62
     7
420
 16777215
100
AcDbLine
 10
255.0
 20
80.0
 30
0.0
 11
255.0
 21
90.0
 31
0.0
  0
LINE
  5
19D
330
205
100
AcDbEntity
  8
cuts
 62
     7
420
 16777215
100
AcDbLine
 10
265.0
 20
80.0
 30
0.0
 11
255.0
 21
80.0
 31
0.0
  0
LINE
  5
19E
330
205
100
AcDbEntity
  8
cuts
 62
     7
420
 16777215
100
AcDbLine
 10
285.0
 20
5.0
 30
0.0
 11
285.0
 21
95.0
 31
0.0
  0
LINE
  5
19F
330
205
100
AcDbEntity
  8
cuts
 62
     7
420
 16777215
100
AcDbLine
 10
280.0
 20
100.0
 30
0.0
 11
285.0
 21
95.0
 31
0.0
  0
LINE
  5
1A0
330
205
100
AcDbEntity
  8
cuts
 62
     7
420
 16777215
100
AcDbLine
 10
285.0
 20
5.0
 30
0.0
 11
285.0
 21
5.0
 31
0.0
  0
LINE
  5
1A1
330
205
100
AcDbEntity
  8
cuts
 62
     7
420
 16777215
100
AcDbLine
 10
280.0
 20
0.0
 30
0.0
 11
285.0
 21
5.0
 31
0.0
  0
LINE
  5
1A2
330
205
100
AcDbEntity
  8
cuts
 62
     7
420
 16777215
100
AcDbLine
 10
265.0
 20
20.0
 30
0.0
 11
265.0
 21
80.0
 31
0.0
  0
LINE
  5
1A3
330
205
100
AcDbEntity
  8
cuts
 62
     7
420
 16777215
100
AcDbLine
 10
265.0
 20
80.0
 30
0.0
 11
255.0
 21
80.0
 31
0.0
  0
LINE
  5
1A4
330
205
100
AcDbEntity
  8
cuts
 62
     7
420
 16777215
100
AcDbLine
 10
255.0
 20
20.0
 30
0.0
 11
265.0
 21
20.0
 31
0.0
  0
LINE
  5
1A5
330
205
100
AcDbEntity
  8
cuts
 62
     7
420
 16777215
100
AcDbLine
 10
170.0
 20
100.0
 30
0.0
 11
175.0
 21
95.0
 31
0.0
  0
LINE
  5
1A6
330
205
100
AcDbEntity
  8
cuts
 62
     7
420
 16777215
100
AcDbLine
 10
185.0
 20
95.0
 30
0.0
 11
190.0
 21
100.0
 31
0.0
  0
LINE
  5
1A7
330
205
100
AcDbEntity
  8
cuts
 62
     7
420
 16777215
100
AcDbLine
 10
175.0
 20
95.0
 30
0.0
 11
185.0
 21
95.0
 31
0.0
  0
LINE
  5
1A8
330
205
100
AcDbEntity
  8
cuts
 62
     7
420
 16777215
100
AcDbLine
 10
157.0
 20
60.0
 30
0.0
 11
157.0
 21
50.0
 31
0.0
  0
LINE
  5
1A9
330
205
100
AcDbEntity
  8
cuts
 62
     7
420
 16777215
100
AcDbLine
 10
163.0
 20
50.0
 30
0.0
 11
163.0
 21
60.0
 31
0.0
  0
LINE
  5
1AA
330
205
100
AcDbEntity
  8
cuts
 62
     7
420
 16777215
100
AcDbLine
 10
157.0
 20
50.0
 30
0.0
 11
163.0
 21
50.0
 31
0.0
  0
LINE
  5
1AB
330
205
100
AcDbEntity
  8
cuts
 62
     7
420
 16777215
100
AcDbLine
 10
163.0
 20
60.0
 30
0.0
 11
157.0
 21
60.0
 31
0.0
  0
LINE
  5
1AC
330
205
100
AcDbEntity
  8
cuts
 62
     7
420
 16777215
100
AcDbLine
 10
195.0
 20
195.0
 30
0.0
 11
195.0
 21
115.0
 31
0.0
  0
LINE
  5
1AD
330
205
100
AcDbEntity
  8
cuts
 62
     7
420
 16777215
100
AcDbLine
 10
170.0
 20
205.0
 30
0.0
 11
175.0
 21
200.0
 31
0.0
  0
LINE
  5
1AE
330
205
100
AcDbEntity
  8
cuts
 62
     7
420
 16777215
100
AcDbLine
 10
185.0
 20
200.0
 30
0.0
 11
190.0
 21
205.0
 31
0.0
  0
LINE
  5
1AF
330
205
100
AcDbEntity
  8
cuts
 62
     7
420
 16777215
100
AcDbLine
 10
175.0
 20
200.0
 30
0.0
 11
185.0
 21
200.0
 31
0.0
  0
LINE
  5
1B0
330
205
100
AcDbEntity
  8
cuts
 62
     7
420
 16777215
100
AcDbLine
 10
156.0
 20
165.0
 30
0.0
 11
156.0
 21
155.0
 31
0.0
  0
LINE
  5
1B1
330
205
100
AcDbEntity
  8
cuts
 62
     7
420
 16777215
100
AcDbLine
 10
164.0
 20
155.0
 30
0.0
 11
164.0
 21
165.0
 31
0.0
  0
LINE
  5
1B2
330
205
100
AcDbEntity
  8
cuts
 62
     7
420
 16777215
100
AcDbLine
 10
156.0
 20
155.0
 30
0.0
 11
164.0
 21
155.0
 31
0.0
  0
LINE
  5
1B3
330
205
100
AcDbEntity
  8
cuts
 62
     7
420
 16777215
100
AcDbLine
 10
164.0
 20
165.0
 30
0.0
 11
156.0
 21
165.0
 31
0.0
  0
LINE
  5
1B4
330
205
100
AcDbEntity
  8
cuts
 62
     7
420
 16777215
100
AcDbLine
 10
145.0
 20
200.0
 30
0.0
 11
150.0
 21
205.0
 31
0.0
  0
LINE
  5
1B5
330
205
100
AcDbEntity
  8
cuts
 62
     7
420
 16777215
100
AcDbLine
 10
145.0
 20
110.0
 30
0.0
 11
150.0
 21
105.0
 31
0.0
  0
LINE
  5
1B6
330
205
100
AcDbEntity
  8
cuts
 62
     7
420
 16777215
100
AcDbLine
 10
165.0
 20
180.0
 30
0.0
 11
165.0
 21
185.0
 31
0.0
  0
LINE
  5
1B7
330
205
100
AcDbEntity
  8
cuts
 62
     7
420
 16777215
100
AcDbLine
 10
165.0
 20
185.0
 30
0.0
 11
160.0
 21
185.0
 31
0.0
  0
LINE
  5
1B8
330
205
100
AcDbEntity
  8
cuts
 62
     7
420
 16777215
100
AcDbLine
 10
160.0
 20
185.0
 30
0.0
 11
160.0
 21
180.0
 31
0.0
  0
LINE
  5
1B9
330
205
100
AcDbEntity
  8
cuts
 62
     7
420
 16777215
100
AcDbLine
 10
160.0
 20
180.0
 30
0.0
 11
165.0
 21
180.0
 31
0.0
  0
LINE
  5
1BA
330
205
100
AcDbEntity
  8
cuts
 62
     7
420
 16777215
100
AcDbLine
 10
195.0
 20
115.0
 30
0.0
 11
255.0
 21
115.0
 31
0.0
  0
LINE
  5
1BB
330
205
100
AcDbEntity
  8
cuts
 62
     7
420
 16777215
100
AcDbLine
 10
255.0
 20
115.0
 30
0.0
 11
255.0
 21
125.0
 31
0.0
  0
LINE
  5
1BC
330
205
100
AcDbEntity
  8
cuts
 62
     7
420
 16777215
100
AcDbLine
 10
255.0
 20
185.0
 30
0.0
 11
255.0
 21
195.0
 31
0.0
  0
LINE
  5
1BD
330
205
100
AcDbEntity
  8
cuts
 62
     7
420
 16777215
100
AcDbLine
 10
255.0
 20
195.0
 30
0.0
 11
195.0
 21
195.0
 31
0.0
  0
LINE
  5
1BE
330
205
100
AcDbEntity
  8
cuts
 62
     7
420
 16777215
100
AcDbLine
 10
285.0
 20
110.0
 30
0.0
 11
285.0
 21
200.0
 31
0.0
  0
LINE
  5
1BF
330
205
100
AcDbEntity
  8
cuts
 62
     7
420
 16777215
100
AcDbLine
 10
285.0
 20
200.0
 30
0.0
 11
280.0
 21
205.0
 31
0.0
  0
LINE
  5
1C0
330
205
100
AcDbEntity
  8
cuts
 62
     7
420
 16777215
100
AcDbLine
 10
150.0
 20
105.0
 30
0.0
 11
280.0
 21
105.0
 31
0.0
  0
LINE
  5
1C1
330
205
100
AcDbEntity
  8
cuts
 62
     7
420
 16777215
100
AcDbLine
 10
280.0
 20
105.0
 30
0.0
 11
285.0
 21
110.0
 31
0.0
  0
LINE
  5
1C2
330
205
100
AcDbEntity
  8
cuts
 62
     7
420
 16777215
100
AcDbLine
 10
255.0
 20
125.0
 30
0.0
 11
265.0
 21
125.0
 31
0.0
  0
LINE
  5
1C3
330
205
100
AcDbEntity
  8
cuts
 62
     7
420
 16777215
100
AcDbLine
 10
265.0
 20
125.0
 30
0.0
 11
265.0
 21
185.0
 31
0.0
  0
LINE
  5
1C4
330
205
100
AcDbEntity
  8
cuts
 62
     7
420
 16777215
100
AcDbLine
 10
265.0
 20
185.0
 30
0.0
 11
255.0
 21
185.0
 31
0.0
  0
LINE
  5
1C5
330
205
100
AcDbEntity
  8
cuts
 62
     7
420
 16777215
100
AcDbLine
 10
195.0
 20
220.0
 30
0.0
 11
195.0
 21
300.0
 31
0.0
  0
LINE
  5
1C6
330
205
100
AcDbEntity
  8
cuts
 62
     7
420
 16777215
100
AcDbLine
 10
145.0
 20
305.0
 30
0.0
 11
150.0
 21
310.0
 31
0.0
  0
LINE
  5
1C7
330
205
100
AcDbEntity
  8
cuts
 62
     7
420
 16777215
100
AcDbLine
 10
145.0
 20
215.0
 30
0.0
 11
150.0
 21
210.0
 31
0.0
  0
LINE
  5
1C8
330
205
100
AcDbEntity
  8
cuts
 62
     7
420
 16777215
100
AcDbLine
 10
255.0
 20
220.0
 30
0.0
 11
255.0
 21
230.0
 31
0.0
  0
LINE
  5
1C9
330
205
100
AcDbEntity
  8
cuts
 62
     7
420
 16777215
100
AcDbLine
 10
255.0
 20
290.0
 30
0.0
 11
255.0
 21
300.0
 31
0.0
  0
LINE
  5
1CA
330
205
100
AcDbEntity
  8
cuts
 62
     7
420
 16777215
100
AcDbLine
 10
195.0
 20
220.0
 30
0.0
 11
255.0
 21
220.0
 31
0.0
  0
LINE
  5
1CB
330
205
100
AcDbEntity
  8
cuts
 62
     7
420
 16777215
100
AcDbLine
 10
255.0
 20
300.0
 30
0.0
 11
195.0
 21
300.0
 31
0.0
  0
LINE
  5
1CC
330
205
100
AcDbEntity
  8
cuts
 62
     7
420
 16777215
100
AcDbLine
 10
255.0
 20
230.0
 30
0.0
 11
265.0
 21
230.0
 31
0.0
  0
LINE
  5
1CD
330
205
100
AcDbEntity
  8
cuts
 62
     7
420
 16777215
100
AcDbLine
 10
265.0
 20
230.0
 30
0.0
 11
265.0
 21
290.0
 31
0.0
  0
LINE
  5
1CE
330
205
100
AcDbEntity
  8
cuts
 62
     7
420
 16777215
100
AcDbLine
 10
265.0
 20
290.0
 30
0.0
 11
255.0
 21
290.0
 31
0.0
  0
LINE
  5
1CF
330
205
100
AcDbEntity
  8
cuts
 62
     7
420
 16777215
100
AcDbLine
 10
275.0
 20
310.0
 30
0.0
 11
275.0
 21
210.0
 31
0.0
  0
LINE
  5
1D0
330
205
100
AcDbEntity
  8
cuts
 62
     7
420
 16777215
100
AcDbLine
 10
156.0
 20
270.0
 30
0.0
 11
156.0
 21
260.0
 31
0.0
  0
LINE
  5
1D1
330
205
100
AcDbEntity
  8
cuts
 62
     7
420
 16777215
100
AcDbLine
 10
164.0
 20
260.0
 30
0.0
 11
164.0
 21
270.0
 31
0.0
  0
LINE
  5
1D2
330
205
100
AcDbEntity
  8
cuts
 62
     7
420
 16777215
100
AcDbLine
 10
156.0
 20
260.0
 30
0.0
 11
164.0
 21
260.0
 31
0.0
  0
LINE
  5
1D3
330
205
100
AcDbEntity
  8
cuts
 62
     7
420
 16777215
100
AcDbLine
 10
164.0
 20
270.0
 30
0.0
 11
156.0
 21
270.0
 31
0.0
  0
LINE
  5
1D4
330
205
100
AcDbEntity
  8
cuts
 62
     7
420
 16777215
100
AcDbLine
 10
150.0
 20
415.0
 30
0.0
 11
145.0
 21
410.0
 31
0.0
  0
LINE
  5
1D5
330
205
100
AcDbEntity
  8
cuts
 62
     7
420
 16777215
100
AcDbLine
 10
145.0
 20
320.0
 30
0.0
 11
150.0
 21
315.0
 31
0.0
  0
LINE
  5
1D6
330
205
100
AcDbEntity
  8
cuts
 62
     7
420
 16777215
100
AcDbLine
 10
280.0
 20
415.0
 30
0.0
 11
150.0
 21
415.0
 31
0.0
  0
LINE
  5
1D7
330
205
100
AcDbEntity
  8
cuts
 62
     7
420
 16777215
100
AcDbLine
 10
280.0
 20
415.0
 30
0.0
 11
285.0
 21
410.0
 31
0.0
  0
LINE
  5
1D8
330
205
100
AcDbEntity
  8
cuts
 62
     7
420
 16777215
100
AcDbLine
 10
285.0
 20
320.0
 30
0.0
 11
285.0
 21
410.0
 31
0.0
  0
LINE
  5
1D9
330
205
100
AcDbEntity
  8
cuts
 62
     7
420
 16777215
100
AcDbLine
 10
285.0
 20
320.0
 30
0.0
 11
280.0
 21
315.0
 31
0.0
  0
LINE
  5
1DA
330
205
100
AcDbEntity
  8
cuts
 62
     7
420
 16777215
100
AcDbLine
 10
280.0
 20
315.0
 30
0.0
 11
150.0
 21
315.0
 31
0.0
  0
LINE
  5
1DB
330
205
100
AcDbEntity
  8
cuts
 62
     7
420
 16777215
100
AcDbLine
 10
145.0
 20
410.0
 30
0.0
 11
145.0
 21
320.0
 31
0.0
  0
LINE
  5
1DC
330
205
100
AcDbEntity
  8
cuts
 62
     7
420
 16777215
100
AcDbLine
 10
150.0
 20
310.0
 30
0.0
 11
275.0
 21
310.0
 31
0.0
  0
LINE
  5
1DD
330
205
100
AcDbEntity
  8
cuts
 62
     7
420
 16777215
100
AcDbLine
 10
135.0
 20
310.0
 30
0.0
 11
5.0
 21
310.0
 31
0.0
  0
LINE
  5
1DE
330
205
100
AcDbEntity
  8
cuts
 62
     7
420
 16777215
100
AcDbLine
 10
145.0
 20
305.0
 30
0.0
 11
145.0
 21
215.0
 31
0.0
  0
LINE
  5
1DF
330
205
100
AcDbEntity
  8
cuts
 62
     7
420
 16777215
100
AcDbLine
 10
150.0
 20
205.0
 30
0.0
 11
280.0
 21
205.0
 31
0.0
  0
LINE
  5
1E0
330
205
100
AcDbEntity
  8
cuts
 62
     7
420
 16777215
100
AcDbLine
 10
135.0
 20
205.0
 30
0.0
 11
5.0
 21
205.0
 31
0.0
  0
LINE
  5
1E1
330
205
100
AcDbEntity
  8
cuts
 62
     7
420
 16777215
100
AcDbLine
 10
145.0
 20
200.0
 30
0.0
 11
145.0
 21
110.0
 31
0.0
  0
LINE
  5
1E2
330
205
100
AcDbEntity
  8
cuts
 62
     7
420
 16777215
100
AcDbLine
 10
135.0
 20
100.0
 30
0.0
 11
5.0
 21
100.0
 31
0.0
  0
LINE
  5
1E3
330
205
100
AcDbEntity
  8
cuts
 62
     7
420
 16777215
100
AcDbLine
 10
150.0
 20
100.0
 30
0.0
 11
280.0
 21
100.0
 31
0.0
  0
LINE
  5
1E4
330
205
100
AcDbEntity
  8
cuts
 62
     7
420
 16777215
100
AcDbLine
 10
145.0
 20
95.0
 30
0.0
 11
145.0
 21
5.0
 31
0.0
  0
LINE
  5
1E5
330
205
100
AcDbEntity
  8
cuts
 62
     7
420
 16777215
100
AcDbLine
 10
150.0
 20
210.0
 30
0.0
 11
275.0
 21
210.0
 31
0.0
  0
LINE
  5
1E6
330
205
100
AcDbEntity
  8
patterns
 62
     3
420
    65280
370
    -3
100
AcDbLine
 10
130.0
 20
205.0
 30
0.0
 11
130.0
 21
105.0
 31
0.0
  0
ENDSEC
  0
SECTION
  2
OBJECTS
  0
DICTIONARY
  5
1F3
330
0
100
AcDbDictionary
281
     1
  3
ACAD_GROUP
350
1F4
  3
ACAD_LAYOUT
350
200
  3
ACAD_MATERIAL
350
221
  3
ACAD_MLEADERSTYLE
350
252
  3
ACAD_MLINESTYLE
350
1FD
  3
ACAD_PLOTSETTINGS
350
1FF
  3
ACAD_PLOTSTYLENAME
350
1F5
  3
ACAD_TABLESTYLE
350
251
  3
ACAD_VISUALSTYLE
350
210
  3
QCAD_OBJECTS
350
226
  0
DICTIONARY
  5
1F4
102
{ACAD_REACTORS
330
1F3
102
}
330
1F3
100
AcDbDictionary
281
     1
  0
DICTIONARY
  5
200
102
{ACAD_REACTORS
330
1F3
102
}
330
1F3
100
AcDbDictionary
281
     1
  3
Layout1
350
204
  3
Layout2
350
20C
  3
Model
350
208
  0
DICTIONARY
  5
221
102
{ACAD_REACTORS
330
1F3
102
}
330
1F3
100
AcDbDictionary
281
     1
  3
ByBlock
350
223
  3
ByLayer
350
222
  3
Global
350
224
  0
DICTIONARY
  5
252
102
{ACAD_REACTORS
330
1F3
102
}
330
1F3
100
AcDbDictionary
281
     1
  0
DICTIONARY
  5
1FD
102
{ACAD_REACTORS
330
1F3
102
}
330
1F3
100
AcDbDictionary
281
     1
  3
Standard
350
1FE
  0
DICTIONARY
  5
1FF
102
{ACAD_REACTORS
330
1F3
102
}
330
1F3
100
AcDbDictionary
281
     1
  0
ACDBDICTIONARYWDFLT
  5
1F5
102
{ACAD_REACTORS
330
1F3
102
}
330
1F3
100
AcDbDictionary
281
     1
  3
Normal
350
1F6
100
AcDbDictionaryWithDefault
340
1F6
  0
DICTIONARY
  5
251
102
{ACAD_REACTORS
330
1F3
102
}
330
1F3
100
AcDbDictionary
281
     1
  0
DICTIONARY
  5
210
102
{ACAD_REACTORS
330
1F3
102
}
330
1F3
100
AcDbDictionary
281
     1
  3
2dWireframe
350
215
  3
3D Hidden
350
217
  3
3dWireframe
350
216
  3
Basic
350
218
  3
Brighten
350
21C
  3
ColorChange
350
220
  3
Conceptual
350
21A
  3
Dim
350
21B
  3
Facepattern
350
21F
  3
Flat
350
211
  3
FlatWithEdges
350
212
  3
Gouraud
350
213
  3
GouraudWithEdges
350
214
  3
Linepattern
350
21E
  3
Realistic
350
219
  3
Thicken
350
21D
  0
DICTIONARY
  5
226
102
{ACAD_REACTORS
330
1F3
102
}
330
1F3
100
AcDbDictionary
281
     1
  3
Grid/DisplayGrid
350
236
  3
Grid/GridSpacingX
350
22F
  3
Grid/GridSpacingY
350
230
  3
Grid/MetaGridSpacingX
350
22A
  3
Grid/MetaGridSpacingY
350
22D
  3
MultiPageSettings/Columns
350
22E
  3
MultiPageSettings/GlueMarginsBottom
350
233
  3
MultiPageSettings/GlueMarginsLeft
350
231
  3
MultiPageSettings/GlueMarginsRight
350
227
  3
MultiPageSettings/GlueMarginsTop
350
23A
  3
MultiPageSettings/PrintCropMarks
350
229
  3
MultiPageSettings/Rows
350
232
  3
PageSettings/OffsetX
350
238
  3
PageSettings/OffsetY
350
239
  3
PageSettings/PageOrientation
350
228
  3
PageSettings/PaperHeight
350
22B
  3
PageSettings/PaperWidth
350
234
  3
PageSettings/Scale
350
22C
  3
PageSettings/ShowPaperBorders
350
237
  3
UnitSettings/PaperUnit
350
235
  0
LAYOUT
  5
204
102
{ACAD_REACTORS
330
200
102
}
330
200
100
AcDbPlotSettings
  1

  2
none_device
  4

  6

 40
0.0
 41
0.0
 42
0.0
 43
0.0
 44
0.0
 45
0.0
 46
0.0
 47
0.0
 48
0.0
 49
0.0
140
0.0
141
0.0
142
1.0
143
1.0
 70
   688
 72
     0
 73
     0
 74
     5
  7

 75
    16
 76
     0
 77
     2
 78
   300
147
1.0
148
0.0
149
0.0
100
AcDbLayout
  1
Layout1
 70
     1
 71
     1
 10
0.0
 20
0.0
 11
210.0
 21
297.0
 12
0.0
 22
0.0
 32
0.0
 14
1.000000000000000E+20
 24
1.000000000000000E+20
 34
1.000000000000000E+20
 15
-1.000000000000000E+20
 25
-1.000000000000000E+20
 35
-1.000000000000000E+20
146
0.0
 13
0.0
 23
0.0
 33
0.0
 16
1.0
 26
0.0
 36
0.0
 17
0.0
 27
1.0
 37
0.0
 76
     0
330
201
  0
LAYOUT
  5
20C
102
{ACAD_REACTORS
330
200
102
}
330
200
100
AcDbPlotSettings
  1

  2
none_device
  4

  6

 40
0.0
 41
0.0
 42
0.0
 43
0.0
 44
0.0
 45
0.0
 46
0.0
 47
0.0
 48
0.0
 49
0.0
140
0.0
141
0.0
142
1.0
143
1.0
 70
   688
 72
     0
 73
     0
 74
     5
  7

 75
    16
 76
     0
 77
     2
 78
   300
147
1.0
148
0.0
149
0.0
100
AcDbLayout
  1
Layout2
 70
     1
 71
     2
 10
0.0
 20
0.0
 11
0.0
 21
0.0
 12
0.0
 22
0.0
 32
0.0
 14
0.0
 24
0.0
 34
0.0
 15
0.0
 25
0.0
 35
0.0
146
0.0
 13
0.0
 23
0.0
 33
0.0
 16
1.0
 26
0.0
 36
0.0
 17
0.0
 27
1.0
 37
0.0
 76
     0
330
209
  0
LAYOUT
  5
208
102
{ACAD_REACTORS
330
200
102
}
330
200
100
AcDbPlotSettings
  1

  2
none_device
  4

  6

 40
0.0
 41
0.0
 42
0.0
 43
0.0
 44
0.0
 45
0.0
 46
0.0
 47
0.0
 48
0.0
 49
0.0
140
0.0
141
0.0
142
1.0
143
1.0
 70
  1712
 72
     0
 73
     0
 74
     0
  7

 75
     0
 76
     0
 77
     2
 78
   300
147
1.0
148
0.0
149
0.0
100
AcDbLayout
  1
Model
 70
     1
 71
     0
 10
0.0
 20
0.0
 11
12.0
 21
9.0
 12
0.0
 22
0.0
 32
0.0
 14
1.000000000000000E+20
 24
1.000000000000000E+20
 34
1.000000000000000E+20
 15
-1.000000000000000E+20
 25
-1.000000000000000E+20
 35
-1.000000000000000E+20
146
0.0
 13
0.0
 23
0.0
 33
0.0
 16
1.0
 26
0.0
 36
0.0
 17
0.0
 27
1.0
 37
0.0
 76
     0
330
205
331
20F
  0
MATERIAL
  5
223
102
{ACAD_REACTORS
330
221
102
}
330
221
100
AcDbMaterial
  1
ByBlock
 72
     1
 94
      127
  0
MATERIAL
  5
222
102
{ACAD_REACTORS
330
221
102
}
330
221
100
AcDbMaterial
  1
ByLayer
 72
     1
 94
      127
  0
MATERIAL
  5
224
102
{ACAD_REACTORS
330
221
102
}
330
221
100
AcDbMaterial
  1
Global
 72
     1
 94
      127
  0
MLINESTYLE
  5
1FE
102
{ACAD_REACTORS
330
1FD
102
}
330
1FD
100
AcDbMlineStyle
  2
Standard
 70
     0
  3

 62
   256
 51
90.0
 52
90.0
 71
     2
 49
0.5
 62
   256
  6
BYLAYER
 49
-0.5
 62
   256
  6
BYLAYER
  0
ACDBPLACEHOLDER
  5
1F6
102
{ACAD_REACTORS
330
1F5
102
}
330
1F5
  0
VISUALSTYLE
  5
215
102
{ACAD_REACTORS
330
210
102
}
330
210
100
AcDbVisualStyle
  2
2dWireframe
 70
     4
177
     2
291
     0
 71
     0
176
     1
 72
     2
176
     1
 73
     0
176
     1
 90
        0
176
     1
 40
-0.6
176
     1
 41
-30.0
176
     1
 62
     5
 63
     7
421
 16777215
176
     1
 74
     1
176
     1
 91
        4
176
     1
 64
     7
176
     1
 65
   257
176
     1
 75
     1
176
     1
175
     1
176
     1
 42
1.0
176
     1
 92
        0
176
     1
 66
   257
176
     1
 43
1.0
176
     1
 76
     1
176
     1
 77
     6
176
     1
 78
     2
176
     1
 67
     7
176
     1
 79
     5
176
     1
170
     0
176
     1
171
     0
176
     1
290
     0
176
     1
 93
        1
176
     1
 44
0.0
176
     1
173
     0
176
     1
  0
VISUALSTYLE
  5
217
102
{ACAD_REACTORS
330
210
102
}
330
210
100
AcDbVisualStyle
  2
3D Hidden
 70
     6
177
     2
291
     0
 71
     1
176
     1
 72
     2
176
     1
 73
     2
176
     1
 90
        0
176
     1
 40
-0.6
176
     1
 41
-30.0
176
     1
 62
     5
 63
     7
421
 16777215
176
     1
 74
     2
176
     1
 91
        2
176
     1
 64
     7
176
     1
 65
   257
176
     1
 75
     2
176
     1
175
     1
176
     1
 42
40.0
176
     1
 92
        0
176
     1
 66
   257
176
     1
 43
1.0
176
     1
 76
     1
176
     1
 77
     6
176
     1
 78
     2
176
     1
 67
     7
176
     1
 79
     3
176
     1
170
     0
176
     1
171
     0
176
     1
290
     0
176
     1
 93
        1
176
     1
 44
0.0
176
     1
173
     0
176
     1
  0
VISUALSTYLE
  5
216
102
{ACAD_REACTORS
330
210
102
}
330
210
100
AcDbVisualStyle
  2
3dWireframe
 70
     5
177
     2
291
     0
 71
     0
176
     1
 72
     2
176
     1
 73
     0
176
     1
 90
        0
176
     1
 40
-0.6
176
     1
 41
-30.0
176
     1
 62
     5
 63
     7
421
 16777215
176
     1
 74
     1
176
     1
 91
        4
176
     1
 64
     7
176
     1
 65
   257
176
     1
 75
     1
176
     1
175
     1
176
     1
 42
1.0
176
     1
 92
        0
176
     1
 66
   257
176
     1
 43
1.0
176
     1
 76
     1
176
     1
 77
     6
176
     1
 78
     2
176
     1
 67
     7
176
     1
 79
     5
176
     1
170
     0
176
     1
171
     0
176
     1
290
     0
176
     1
 93
        1
176
     1
 44
0.0
176
     1
173
     0
176
     1
  0
VISUALSTYLE
  5
218
102
{ACAD_REACTORS
330
210
102
}
330
210
100
AcDbVisualStyle
  2
Basic
 70
     7
177
     2
291
     1
 71
     1
176
     1
 72
     0
176
     1
 73
     1
176
     1
 90
        0
176
     1
 40
-0.6
176
     1
 41
-30.0
176
     1
 62
     5
 63
     7
421
 16777215
176
     1
 74
     0
176
     1
 91
        4
176
     1
 64
     7
176
     1
 65
   257
176
     1
 75
     1
176
     1
175
     1
176
     1
 42
1.0
176
     1
 92
        8
176
     1
 66
     7
176
     1
 43
1.0
176
     1
 76
     1
176
     1
 77
     6
176
     1
 78
     2
176
     1
 67
     7
176
     1
 79
     5
176
     1
170
     0
176
     1
171
     0
176
     1
290
     0
176
     1
 93
        1
176
     1
 44
0.0
176
     1
173
     0
176
     1
  0
VISUALSTYLE
  5
21C
102
{ACAD_REACTORS
330
210
102
}
330
210
100
AcDbVisualStyle
  2
Brighten
 70
    12
177
     2
291
     1
 71
     2
176
     1
 72
     2
176
     1
 73
     0
176
     1
 90
        0
176
     1
 40
-0.6
176
     1
 41
-30.0
176
     1
 62
     5
 63
     7
421
 16777215
176
     1
 74
     1
176
     1
 91
        4
176
     1
 64
     7
176
     1
 65
   257
176
     1
 75
     1
176
     1
175
     1
176
     1
 42
1.0
176
     1
 92
        8
176
     1
 66
     7
176
     1
 43
1.0
176
     1
 76
     1
176
     1
 77
     6
176
     1
 78
     2
176
     1
 67
     7
176
     1
 79
     5
176
     1
170
     0
176
     1
171
     0
176
     1
290
     0
176
     1
 93
        1
176
     1
 44
50.0
176
     1
173
     0
176
     1
  0
VISUALSTYLE
  5
220
102
{ACAD_REACTORS
330
210
102
}
330
210
100
AcDbVisualStyle
  2
ColorChange
 70
    16
177
     2
291
     1
 71
     2
176
     1
 72
     2
176
     1
 73
     3
176
     1
 90
        0
176
     1
 40
-0.6
176
     1
 41
-30.0
176
     1
 62
     5
 63
     8
421
  8421504
176
     1
 74
     1
176
     1
 91
        4
176
     1
 64
     7
176
     1
 65
   257
176
     1
 75
     1
176
     1
175
     1
176
     1
 42
1.0
176
     1
 92
        8
176
     1
 66
     8
424
  8421504
176
     1
 43
1.0
176
     1
 76
     1
176
     1
 77
     6
176
     1
 78
     2
176
     1
 67
     7
176
     1
 79
     5
176
     1
170
     0
176
     1
171
     0
176
     1
290
     0
176
     1
 93
        1
176
     1
 44
0.0
176
     1
173
     0
176
     1
  0
VISUALSTYLE
  5
21A
102
{ACAD_REACTORS
330
210
102
}
330
210
100
AcDbVisualStyle
  2
Conceptual
 70
     9
177
     2
291
     0
 71
     3
176
     1
 72
     2
176
     1
 73
     0
176
     1
 90
        0
176
     1
 40
-0.6
176
     1
 41
-30.0
176
     1
 62
     5
 63
     7
421
 16777215
176
     1
 74
     2
176
     1
 91
        2
176
     1
 64
     7
176
     1
 65
   257
176
     1
 75
     1
176
     1
175
     1
176
     1
 42
40.0
176
     1
 92
        8
176
     1
 66
     7
176
     1
 43
1.0
176
     1
 76
     1
176
     1
 77
     6
176
     1
 78
     2
176
     1
 67
     7
176
     1
 79
     3
176
     1
170
     0
176
     1
171
     0
176
     1
290
     0
176
     1
 93
        1
176
     1
 44
0.0
176
     1
173
     0
176
     1
  0
VISUALSTYLE
  5
21B
102
{ACAD_REACTORS
330
210
102
}
330
210
100
AcDbVisualStyle
  2
Dim
 70
    11
177
     2
291
     1
 71
     2
176
     1
 72
     2
176
     1
 73
     0
176
     1
 90
        0
176
     1
 40
-0.6
176
     1
 41
-30.0
176
     1
 62
     5
 63
     7
421
 16777215
176
     1
 74
     1
176
     1
 91
        4
176
     1
 64
     7
176
     1
 65
   257
176
     1
 75
     1
176
     1
175
     1
176
     1
 42
1.0
176
     1
 92
        8
176
     1
 66
     7
176
     1
 43
1.0
176
     1
 76
     1
176
     1
 77
     6
176
     1
 78
     2
176
     1
 67
     7
176
     1
 79
     5
176
     1
170
     0
176
     1
171
     0
176
     1
290
     0
176
     1
 93
        1
176
     1
 44
-50.0
176
     1
173
     0
176
     1
  0
VISUALSTYLE
  5
21F
102
{ACAD_REACTORS
330
210
102
}
330
210
100
AcDbVisualStyle
  2
Facepattern
 70
    15
177
     2
291
     1
 71
     2
176
     1
 72
     2
176
     1
 73
     0
176
     1
 90
        0
176
     1
 40
-0.6
176
     1
 41
-30.0
176
     1
 62
     5
 63
     7
421
 16777215
176
     1
 74
     1
176
     1
 91
        4
176
     1
 64
     7
176
     1
 65
   257
176
     1
 75
     1
176
     1
175
     1
176
     1
 42
1.0
176
     1
 92
        8
176
     1
 66
     7
176
     1
 43
1.0
176
     1
 76
     1
176
     1
 77
     6
176
     1
 78
     2
176
     1
 67
     7
176
     1
 79
     5
176
     1
170
     0
176
     1
171
     0
176
     1
290
     0
176
     1
 93
        1
176
     1
 44
0.0
176
     1
173
     0
176
     1
  0
VISUALSTYLE
  5
211
102
{ACAD_REACTORS
330
210
102
}
330
210
100
AcDbVisualStyle
  2
Flat
 70
     0
177
     2
291
     1
 71
     2
176
     1
 72
     1
176
     1
 73
     1
176
     1
 90
        2
176
     1
 40
-0.6
176
     1
 41
30.0
176
     1
 62
     5
 63
     7
421
 16777215
176
     1
 74
     0
176
     1
 91
        4
176
     1
 64
     7
176
     1
 65
   257
176
     1
 75
     1
176
     1
175
     1
176
     1
 42
1.0
176
     1
 92
        8
176
     1
 66
     7
176
     1
 43
1.0
176
     1
 76
     1
176
     1
 77
     6
176
     1
 78
     2
176
     1
 67
     7
176
     1
 79
     5
176
     1
170
     0
176
     1
171
     0
176
     1
290
     0
176
     1
 93
       13
176
     1
 44
0.0
176
     1
173
     0
176
     1
  0
VISUALSTYLE
  5
212
102
{ACAD_REACTORS
330
210
102
}
330
210
100
AcDbVisualStyle
  2
FlatWithEdges
 70
     1
177
     2
291
     1
 71
     2
176
     1
 72
     1
176
     1
 73
     1
176
     1
 90
        2
176
     1
 40
-0.6
176
     1
 41
30.0
176
     1
 62
     5
 63
     7
421
 16777215
176
     1
 74
     1
176
     1
 91
        4
176
     1
 64
     7
176
     1
 65
   257
176
     1
 75
     1
176
     1
175
     1
176
     1
 42
1.0
176
     1
 92
        0
176
     1
 66
   257
176
     1
 43
1.0
176
     1
 76
     1
176
     1
 77
     6
176
     1
 78
     2
176
     1
 67
     7
176
     1
 79
     5
176
     1
170
     0
176
     1
171
     0
176
     1
290
     0
176
     1
 93
       13
176
     1
 44
0.0
176
     1
173
     0
176
     1
  0
VISUALSTYLE
  5
213
102
{ACAD_REACTORS
330
210
102
}
330
210
100
AcDbVisualStyle
  2
Gouraud
 70
     2
177
     2
291
     1
 71
     2
176
     1
 72
     2
176
     1
 73
     1
176
     1
 90
        2
176
     1
 40
-0.6
176
     1
 41
30.0
176
     1
 62
     5
 63
     7
421
 16777215
176
     1
 74
     0
176
     1
 91
        4
176
     1
 64
     7
176
     1
 65
   257
176
     1
 75
     1
176
     1
175
     1
176
     1
 42
1.0
176
     1
 92
        0
176
     1
 66
     7
176
     1
 43
1.0
176
     1
 76
     1
176
     1
 77
     6
176
     1
 78
     2
176
     1
 67
     7
176
     1
 79
     5
176
     1
170
     0
176
     1
171
     0
176
     1
290
     0
176
     1
 93
       13
176
     1
 44
0.0
176
     1
173
     0
176
     1
  0
VISUALSTYLE
  5
214
102
{ACAD_REACTORS
330
210
102
}
330
210
100
AcDbVisualStyle
  2
GouraudWithEdges
 70
     3
177
     2
291
     1
 71
     2
176
     1
 72
     2
176
     1
 73
     1
176
     1
 90
        2
176
     1
 40
-0.6
176
     1
 41
30.0
176
     1
 62
     5
 63
     7
421
 16777215
176
     1
 74
     1
176
     1
 91
        4
176
     1
 64
     7
176
     1
 65
   257
176
     1
 75
     1
176
     1
175
     1
176
     1
 42
1.0
176
     1
 92
        0
176
     1
 66
   257
176
     1
 43
1.0
176
     1
 76
     1
176
     1
 77
     6
176
     1
 78
     2
176
     1
 67
     7
176
     1
 79
     5
176
     1
170
     0
176
     1
171
     0
176
     1
290
     0
176
     1
 93
       13
176
     1
 44
0.0
176
     1
173
     0
176
     1
  0
VISUALSTYLE
  5
21E
102
{ACAD_REACTORS
330
210
102
}
330
210
100
AcDbVisualStyle
  2
Linepattern
 70
    14
177
     2
291
     1
 71
     2
176
     1
 72
     2
176
     1
 73
     0
176
     1
 90
        0
176
     1
 40
-0.6
176
     1
 41
-30.0
176
     1
 62
     5
 63
     7
421
 16777215
176
     1
 74
     1
176
     1
 91
        4
176
     1
 64
     7
176
     1
 65
   257
176
     1
 75
     7
176
     1
175
     7
176
     1
 42
1.0
176
     1
 92
        8
176
     1
 66
     7
176
     1
 43
1.0
176
     1
 76
     1
176
     1
 77
     6
176
     1
 78
     2
176
     1
 67
     7
176
     1
 79
     5
176
     1
170
     0
176
     1
171
     0
176
     1
290
     0
176
     1
 93
        1
176
     1
 44
0.0
176
     1
173
     0
176
     1
  0
VISUALSTYLE
  5
219
102
{ACAD_REACTORS
330
210
102
}
330
210
100
AcDbVisualStyle
  2
Realistic
 70
     8
177
     2
291
     0
 71
     2
176
     1
 72
     2
176
     1
 73
     0
176
     1
 90
        0
176
     1
 40
-0.6
176
     1
 41
-30.0
176
     1
 62
     5
 63
     7
421
 16777215
176
     1
 74
     1
176
     1
 91
        0
176
     1
 64
     7
176
     1
 65
   257
176
     1
 75
     1
176
     1
175
     1
176
     1
 42
1.0
176
     1
 92
        8
176
     1
 66
     8
424
  7895160
176
     1
 43
1.0
176
     1
 76
     1
176
     1
 77
     6
176
     1
 78
     2
176
     1
 67
     7
176
     1
 79
     5
176
     1
170
     0
176
     1
171
     0
176
     1
290
     0
176
     1
 93
       13
176
     1
 44
0.0
176
     1
173
     0
176
     1
  0
VISUALSTYLE
  5
21D
102
{ACAD_REACTORS
330
210
102
}
330
210
100
AcDbVisualStyle
  2
Thicken
 70
    13
177
     2
291
     1
 71
     2
176
     1
 72
     2
176
     1
 73
     0
176
     1
 90
        0
176
     1
 40
-0.6
176
     1
 41
-30.0
176
     1
 62
     5
 63
     7
421
 16777215
176
     1
 74
     1
176
     1
 91
        4
176
     1
 64
     7
176
     1
 65
   257
176
     1
 75
     1
176
     1
175
     1
176
     1
 42
1.0
176
     1
 92
       12
176
     1
 66
     7
176
     1
 43
1.0
176
     1
 76
     1
176
     1
 77
     6
176
     1
 78
     2
176
     1
 67
     7
176
     1
 79
     5
176
     1
170
     0
176
     1
171
     0
176
     1
290
     0
176
     1
 93
        1
176
     1
 44
0.0
176
     1
173
     0
176
     1
  0
XRECORD
  5
236
102
{ACAD_REACTORS
330
226
102
}
330
226
100
AcDbXrecord
280
     1
290
     1
  0
XRECORD
  5
22F
102
{ACAD_REACTORS
330
226
102
}
330
226
100
AcDbXrecord
280
     1
1000
auto
  0
XRECORD
  5
230
102
{ACAD_REACTORS
330
226
102
}
330
226
100
AcDbXrecord
280
     1
1000
auto
  0
XRECORD
  5
22A
102
{ACAD_REACTORS
330
226
102
}
330
226
100
AcDbXrecord
280
     1
1000
auto
  0
XRECORD
  5
22D
102
{ACAD_REACTORS
330
226
102
}
330
226
100
AcDbXrecord
280
     1
1000
auto
  0
XRECORD
  5
22E
102
{ACAD_REACTORS
330
226
102
}
330
226
100
AcDbXrecord
280
     1
 90
        1
  0
XRECORD
  5
233
102
{ACAD_REACTORS
330
226
102
}
330
226
100
AcDbXrecord
280
     1
 40
10.0
  0
XRECORD
  5
231
102
{ACAD_REACTORS
330
226
102
}
330
226
100
AcDbXrecord
280
     1
 40
10.0
  0
XRECORD
  5
227
102
{ACAD_REACTORS
330
226
102
}
330
226
100
AcDbXrecord
280
     1
 40
10.0
  0
XRECORD
  5
23A
102
{ACAD_REACTORS
330
226
102
}
330
226
100
AcDbXrecord
280
     1
 40
10.0
  0
XRECORD
  5
229
102
{ACAD_REACTORS
330
226
102
}
330
226
100
AcDbXrecord
280
     1
290
     0
  0
XRECORD
  5
232
102
{ACAD_REACTORS
330
226
102
}
330
226
100
AcDbXrecord
280
     1
 90
        1
  0
XRECORD
  5
238
102
{ACAD_REACTORS
330
226
102
}
330
226
100
AcDbXrecord
280
     1
 40
0.0
  0
XRECORD
  5
239
102
{ACAD_REACTORS
330
226
102
}
330
226
100
AcDbXrecord
280
     1
 40
0.0
  0
XRECORD
  5
228
102
{ACAD_REACTORS
330
226
102
}
330
226
100
AcDbXrecord
280
     1
1000
Portait
  0
XRECORD
  5
22B
102
{ACAD_REACTORS
330
226
102
}
330
226
100
AcDbXrecord
280
     1
 40
297.0
  0
XRECORD
  5
234
102
{ACAD_REACTORS
330
226
102
}
330
226
100
AcDbXrecord
280
     1
 40
210.0
  0
XRECORD
  5
22C
102
{ACAD_REACTORS
330
226
102
}
330
226
100
AcDbXrecord
280
     1
1000
1
  0
XRECORD
  5
237
102
{ACAD_REACTORS
330
226
102
}
330
226
100
AcDbXrecord
280
     1
290
     1
  0
XRECORD
  5
235
102
{ACAD_REACTORS
330
226
102
}
330
226
100
AcDbXrecord
280
     1
 90
        4
  0
ENDSEC
  0
EOF
