0
SECTION
2
HEADER
9
$ACADVER
1
AC1006
9
$INSBASE
10
0.0
20
0.0
30
0.0
9
$EXTMIN
10
0.0
20
0.0
9
$EXTMAX
10
0.0
20
0.0
0
ENDSEC
0
SECTION
2
TABLES
0
TABLE
2
LTYPE
70
1
0
LTYPE
2
CONTINUOUS
70
64
3
Solid line
72
65
73
0
40
0.0
0
ENDTAB
0
TABLE
2
LAYER
70
1
0
LAYER
2
PYDXF
70
64
62
7
6
continuous
0
ENDTAB
0
TABLE
2
STYLE
70
1
0
STYLE
2
STANDARD
70
0
40
0
41
40
50
50
71
0
42
1
3
ARIAL.TTF
4

0
ENDTAB
0
TABLE
2
VIEW
70
0
0
ENDTAB
0
ENDSEC
0
SECTION
2
BLOCKS
0
ENDSEC
0
SECTION
2
ENTITIES
0
LINE
8
0
62
0
10
-2
20
0
11
2
21
0
0
LINE
8
0
62
0
10
0
20
-2
11
0
21
2
0
CIRCLE
8
0
62
0
10
210
20
60.46
40
2
0
ARC
8
0
62
0
10
210
20
59.76
40
10
50
0
51
180
0
LWPOLYLINE
8
0
62
0
70
0
90
4
10
200
20
59.76
10
200
20
40
10
220
20
40
10
220
20
59.76
0
CIRCLE
8
0
62
0
10
235
20
60.46
40
2
0
ARC
8
0
62
0
10
235
20
59.76
40
10
50
0
51
180
0
LWPOLYLINE
8
0
62
0
70
0
90
4
10
225
20
59.76
10
225
20
40
10
245
20
40
10
245
20
59.76
0
LWPOLYLINE
8
0
62
0
70
1
90
12
10
60
20
40
10
90
20
40
10
90
20
44.02
10
80
20
44.02
10
80
20
66.04
10
70
20
66.04
10
70
20
62.02
10
73
20
62.02
10
73
20
58.6
10
70
20
58.6
10
70
20
44.02
10
60
20
44.02
0
LWPOLYLINE
8
0
62
0
70
1
90
4
10
153.44
20
340
10
156.56
20
340
10
156.56
20
370
10
153.44
20
370
0
LWPOLYLINE
8
0
62
0
70
1
90
4
10
153.44
20
50
10
156.56
20
50
10
156.56
20
60
10
153.44
20
60
0
LWPOLYLINE
8
0
62
0
70
1
90
4
10
140
20
10
10
120
20
10
10
120
20
13.72
10
140
20
13.72
0
LWPOLYLINE
8
0
62
0
70
1
90
4
10
140
20
90
10
120
20
90
10
120
20
86.28
10
140
20
86.28
0
LWPOLYLINE
8
0
62
0
70
1
90
4
10
140
20
110
10
120
20
110
10
120
20
113.72
10
140
20
113.72
0
LWPOLYLINE
8
0
62
0
70
1
90
4
10
140
20
190
10
120
20
190
10
120
20
186.28
10
140
20
186.28
0
LWPOLYLINE
8
0
62
0
70
1
90
4
10
140
20
210
10
120
20
210
10
120
20
213.72
10
140
20
213.72
0
LWPOLYLINE
8
0
62
0
70
1
90
4
10
140
20
290
10
120
20
290
10
120
20
286.28
10
140
20
286.28
0
LWPOLYLINE
8
0
62
0
70
1
90
4
10
140
20
310.3
10
120
20
310.3
10
120
20
313.42
10
140
20
313.42
0
LWPOLYLINE
8
0
62
0
70
1
90
4
10
140
20
389.7
10
120
20
389.7
10
120
20
386.58
10
140
20
386.58
0
LWPOLYLINE
8
0
62
0
70
1
90
4
10
280
20
10
10
260
20
10
10
260
20
13.72
10
280
20
13.72
0
LWPOLYLINE
8
0
62
0
70
1
90
4
10
280
20
90
10
260
20
90
10
260
20
86.28
10
280
20
86.28
0
LWPOLYLINE
8
0
62
0
70
1
90
4
10
280
20
110
10
260
20
110
10
260
20
113.72
10
280
20
113.72
0
LWPOLYLINE
8
0
62
0
70
1
90
4
10
280
20
190
10
260
20
190
10
260
20
186.28
10
280
20
186.28
0
LWPOLYLINE
8
0
62
0
70
1
90
4
10
280
20
210
10
260
20
210
10
260
20
213.72
10
280
20
213.72
0
LWPOLYLINE
8
0
62
0
70
1
90
4
10
280
20
290
10
260
20
290
10
260
20
286.28
10
280
20
286.28
0
LWPOLYLINE
8
0
62
0
70
1
90
4
10
280
20
310.3
10
260
20
310.3
10
260
20
313.42
10
280
20
313.42
0
LWPOLYLINE
8
0
62
0
70
1
90
4
10
280
20
389.7
10
260
20
389.7
10
260
20
386.58
10
280
20
386.58
0
ENDSEC
0
EOF
